<svg width="512" height="512" fill="none" xmlns="http://www.w3.org/2000/svg"><g clip-path="url(#a)" fill-rule="evenodd" clip-rule="evenodd"><path d="M53.89 404.09c27.87 13.99 70.95 18.09 101.1 3.11-37.6-40-8.95-20.39-45.17-56.29-8.43 4.62-28.85-33.31-51.59-39.85-27.92-8.02-39.93 14.77-42.09 24.13-5.48 28.34 13.64 56.68 37.76 68.9h-.01Z" fill="url(#b)"/><path d="M247.78 144.72c.43 0 .86.08 1.25.24.4.16.76.4 1.06.71.3.31.54.67.7 1.07.16.4.23.83.22 1.25v239.48c0 .43-.07.85-.24 1.24-.17.39-.4.75-.7 1.05-.3.3-.66.54-1.05.7-.39.16-.82.24-1.25.23a3.31 3.31 0 0 1-2.26-.97c-.6-.6-.95-1.41-.97-2.26V147.98a3.3 3.3 0 0 1 3.22-3.27l.02.01Z" fill="#38150D"/><path d="M442.69 236.56c-14.11-12.26-41.98-23.37-50.21-8.87-10.76 19.12 19.71 61.6 18.84 89.71-.04 3.99-.58 7.97-1.62 11.82-21.24 18.6-45.96 37.72-67.32 56.21l-169.68 8.99c-32-10.84-63.97-21.84-95.93-32.71 0-16 .24-32.12.35-48.09h-.47c-.72.04-1.45.04-2.17 0h-7.8c-10.33 36.66-34.88 92.27 25.07 100.27h291.67c59.71-8.4 64.68-92.7 32.6-144.93-24.12-39.41.87-32.87 15.77-18.49 14.03 11.31 19.16-5.91 10.92-13.91h-.02Z" fill="#38150D"/><path d="M411.31 317c-109.22 58.37-294.46 81.86-333.88-3.47h-.32c-9.3 33.03-31.53 73.78 14.74 100.31h291.67c21.91-23.14 36.81-62.23 27.79-96.84Z" fill="#542E0C"/><path d="M64.86 355.47a56.053 56.053 0 0 0 2.52 33.62c105.67 21.36 227.62 13.76 337.82-8.75 4.48-10.36 7.3-21.36 8.36-32.6-124.31 44.62-274.6 60.46-348.7 7.88v-.16.01Z" fill="#613612"/><path d="M143.96 190.95c53.5-14.85 106.93-29.68 160.3-44.5 47.3 49.23 61.09 110.08 32.83 173.19-55.18 5.75-110.36 11.63-165.54 17.34 26.09-53.96 19.12-106.42-27.59-146.03Z" fill="#EDC72F"/><path d="M325.74 173.1a166.345 166.345 0 0 1 16.75 32.2l-161.28 38.23a106.72 106.72 0 0 0-16.12-30.35l160.65-40.08Zm25.5 71.58c.88 12.75.08 25.57-2.36 38.11l-167.55 29.09c3.54-11.61 5.31-23.69 5.24-35.83l164.67-31.37Z" fill="#C81C0D"/><path d="M455.04 112.36c-125.07 18.49-132.34-1.94-5.8 72.8 16.87 9.96 40.54 19.85 48.63 7.57 23.32-41.09-8.24-72.35-42.83-80.37Z" fill="url(#c)"/><path d="M18.76 200.02c-28.15 8-22.72 40.07 5.02 36.07 39.01-5.4 79.41-18.38 115.41-34.87 12.73-5.81 27.35-10.44 35.59 4.81 11.85 21.85 32.96 34.28 55.29 17.63 20.5-15.03 44.84-31.46 68.55-48.3 31.11-22.06 98.33-62.94 149.59-60.14 40.83 2.4 71.18 39.29 49.67 77.57 10.25-15.43 14.68-34.47 14.07-53.73-3.62-125.68-171.51-156.79-266.01-95.99C172.75 89.99 135.97 167.5 18.75 200.02h.01Z" fill="url(#d)"/><path d="M.46 216.23c-2.62 11.02 6.02 22.24 23.32 19.8 39.01-5.4 79.41-18.38 115.41-34.87 12.73-5.81 27.35-10.44 35.59 4.81 11.85 21.85 32.96 34.28 55.29 17.63 20.5-15.03 44.84-31.46 68.55-48.3 31.11-22.06 98.33-62.94 149.59-60.14 40.82 2.4 71.18 39.3 49.67 77.57 2.45-3.7 4.6-7.58 6.43-11.62 13.87-41.09-14.89-72.76-54.28-77.97-53.28-6.82-120.64 33.47-159.25 60.93-22.92 16.25-46.43 31.87-68.76 48.51-15.27 11.21-27.35 1.2-35.18-13.04-11.06-20.23-30.36-20.64-49.49-12.63C102 207.16 59.58 220.99 23.75 229c-12.06 2.83-25.13-1.81-23.32-12.82l.03.04v.01Z" fill="url(#e)"/><path d="M245.95 159.1c52.46-34.88 134.71-83.19 196.69-81.59 37.19.81 68.96 28.68 69.29 67.56v-6.02c-3.6-125.67-171.49-156.78-265.98-95.98-51.67 33.07-85.24 81.59-141.95 118.66-13.46 9.63-5.83 26.46 10.86 17.84a429.659 429.659 0 0 0 79.82-54.92c12.73-10.83 27.55-3.61 22.53 17.04-5.23 22.04 14.07 27.25 28.75 17.43v-.03l-.01.01Z" fill="url(#f)"/><path d="M154.99 407.2c-36.22 7.02-73.04 7.57-100.71-6.38-24.32-12.26-43.63-37.29-38.15-65.63-7.61 32.2 7.21 70.08 32.32 94.36 114.74 109.89 327.58 81.15 437.03-37.28 15.77-17.11 8.2-33.19-7.88-32.63-4.49.26-8.88 1.46-12.89 3.51a265.215 265.215 0 0 1-68.54 21.95c-29.99 5.24-45.56-1.77-69.72-17.5-25.11-16.67-40.52-10.48-66.41 2.72a418.245 418.245 0 0 1-104.96 36.89H155l-.01-.01Z" fill="url(#g)"/><path d="M326.56 367.59c-25.11-16.67-40.52-10.48-66.41 2.72a418.245 418.245 0 0 1-104.96 36.89c-36.22 7.02-73.04 7.57-100.7-6.38-24.32-12.26-43.63-37.29-38.15-65.63a77.277 77.277 0 0 0-1.97 21.17c9.77 68.54 84.35 75.32 143.35 63.85a418.66 418.66 0 0 0 108.67-38.03c8.59-4.49 20.85-11.08 30.78-11.27 8.06.15 15.84 2.91 22.19 7.88 28.06 18.45 47.3 25.81 81.04 17.85 22.98-5.44 46.55-17.07 67.6-27.59 10.29-5.24 19.71-9.54 25.11-1.38a15.758 15.758 0 0 0-6.51-6.23c-2.73-1.4-5.81-1.97-8.86-1.65-4.49.26-8.88 1.46-12.89 3.51a264.833 264.833 0 0 1-68.54 21.95c-29.99 5.24-45.56-1.77-69.72-17.5v-.16h-.03Z" fill="url(#h)"/><path d="M260.6 414.94c-108.51 37.29-196.52 35.95-226.52-4.85 4.55 7.07 9.91 13.59 15.96 19.43 73.23 70.28 186.59 83.87 287.45 53.56 17.15-5.6 45.21-22.51 59.12-34.37 19.51-16.67 7.21-39.41-15.57-28.93a587.397 587.397 0 0 1-73.63 27.59c-17.3 5.44-22.98-4.3-21.99-14.19 2.33-20.18-5.83-24.83-24.91-18.25h.08l.01.01Z" fill="url(#i)"/></g><defs><linearGradient id="b" x1="41.65" y1="301.98" x2="98.94" y2="409.28" gradientUnits="userSpaceOnUse"><stop stop-color="#0818AD"/><stop offset="1" stop-color="#0E007B"/></linearGradient><linearGradient id="c" x1="370.66" y1="155.4" x2="465.12" y2="155.4" gradientUnits="userSpaceOnUse"><stop stop-color="#2A77FF"/><stop offset=".53" stop-color="#003AF4"/><stop offset="1" stop-color="#0D007A"/></linearGradient><linearGradient id="d" x1=".12" y1="124.72" x2="512" y2="124.72" gradientUnits="userSpaceOnUse"><stop stop-color="#6DFFFF"/><stop offset=".49" stop-color="#00C1FF"/><stop offset="1" stop-color="#158BFF"/></linearGradient><linearGradient id="e" x1="251562" y1="169.366" x2="433957" y2="169.366" gradientUnits="userSpaceOnUse"><stop stop-color="#6DFFFF"/><stop offset=".49" stop-color="#00C1FF"/><stop offset="1" stop-color="#158BFF"/></linearGradient><linearGradient id="f" x1="304.51" y1="13" x2="304.51" y2="181.96" gradientUnits="userSpaceOnUse"><stop stop-color="#06B1FF"/><stop offset="1" stop-color="#6DFFFF"/></linearGradient><linearGradient id="g" x1="462.99" y1="400.63" x2="14.4" y2="422.3" gradientUnits="userSpaceOnUse"><stop stop-color="#53F0FF"/><stop offset="1" stop-color="#1097FF"/></linearGradient><linearGradient id="h" x1="475.18" y1="367.71" x2="-13.48" y2="382.34" gradientUnits="userSpaceOnUse"><stop stop-color="#6DFFFF"/><stop offset="1" stop-color="#38E1FF"/></linearGradient><linearGradient id="i" x1="377.82" y1="454.2" x2="34.09" y2="454.2" gradientUnits="userSpaceOnUse"><stop stop-color="#66FBFF"/><stop offset="1" stop-color="#01BEFE"/></linearGradient><clipPath id="a"><path fill="#fff" transform="translate(0 13)" d="M0 0h512v485.3H0z"/></clipPath></defs></svg>