<svg width="106" height="79" viewBox="0 0 106 79" fill="none" xmlns="http://www.w3.org/2000/svg"><g clip-path="url(#a)"><rect x="6.867" y="16.409" width="92.266" height="62.591" rx="8" fill="#F8F8F8"/><path fill-rule="evenodd" clip-rule="evenodd" d="M56.4 23.444a3 3 0 0 0-3-3H10.81a3 3 0 0 0-3 3v1.72c0 .54.547.92 1.087.92h10.227a3.2 3.2 0 0 1 0 6.398H8.897c-.54 0-1.087.38-1.087.92v13.61a3 3 0 0 0 3 3H53.4a3 3 0 0 0 3-3 3.366 3.366 0 0 0-3.366-3.366h-6.879a3.2 3.2 0 1 1 0-6.398h8.47c.98 0 1.774-.794 1.774-1.774v-2.346c0-.952-1.607-1.687-2.559-1.687H39.232a3.2 3.2 0 0 1 0-6.4H53.84l.09.002c.922.025 2.47-.676 2.47-1.599ZM22.307 44.872a3.2 3.2 0 1 0 0-6.398H12.081a3.2 3.2 0 1 0 0 6.398h10.227Z" fill="#EBE8F1"/><path fill-rule="evenodd" clip-rule="evenodd" d="M8.037 75.166A7.995 7.995 0 0 0 14.868 79h76.266a8 8 0 0 0 8-8V24.41a7.995 7.995 0 0 0-3.775-6.795 7.962 7.962 0 0 1 1.169 4.165v46.591a8 8 0 0 1-8 8H12.262a7.963 7.963 0 0 1-4.225-1.205Z" fill="#EBE8F1"/><rect x="7.367" y="16.909" width="91.266" height="61.591" rx="7.5" stroke="#29307A"/><rect x="48.81" y="65.654" width="46.064" height="34.936" rx="4" transform="rotate(-78.95 48.81 65.654)" fill="#FFC8FF"/><path fill-rule="evenodd" clip-rule="evenodd" d="M49.998 62.355a3 3 0 0 0 2.37 3.52l27.014 5.275a3 3 0 0 0 3.42-1.991 2.99 2.99 0 0 1-1.22.014l-26.66-5.207a3 3 0 0 1-2.37-3.52l7.231-37.026c.07-.359.2-.69.38-.984a3.001 3.001 0 0 0-2.843 2.424l-7.322 37.495Z" fill="#FEE4FE"/><rect x="49.396" y="65.259" width="45.064" height="33.936" rx="3.5" transform="rotate(-78.95 49.396 65.26)" stroke="#373737"/><rect x="63.348" y="37.237" width="10.829" height="1.199" rx=".599" transform="rotate(11.05 63.348 37.237)" fill="#373737"/><rect x="62.449" y="41.846" width="17.292" height="1.199" rx=".599" transform="rotate(11.05 62.45 41.846)" fill="#373737"/><rect x="61.548" y="46.456" width="17.292" height="1.199" rx=".599" transform="rotate(11.05 61.548 46.456)" fill="#373737"/><rect x="60.648" y="51.066" width="17.292" height="1.199" rx=".599" transform="rotate(11.05 60.648 51.066)" fill="#373737"/><path d="M69.946 73.142a1.99 1.99 0 0 1-2.652-2.969L88.981 50.8l2.652 2.968-21.687 19.374Z" fill="#704FE6"/><path d="M69.613 72.769a1.49 1.49 0 1 1-1.986-2.223l21.314-19.04 1.986 2.222-21.314 19.04Z" stroke="#373737"/><path d="m92.808 50.238-1.174 3.53-2.652-2.968 3.591-.82a.2.2 0 0 1 .235.258Z" fill="#373737"/><rect x="34.81" y="59.014" width="48.57" height="36.837" rx="4" transform="rotate(-90 34.81 59.014)" fill="#704FE6"/><path fill-rule="evenodd" clip-rule="evenodd" d="M35.37 55.523a3 3 0 0 0 3 3H67.72a3 3 0 0 0 2.985-2.703 2.993 2.993 0 0 1-1.11.212H40.628a3 3 0 0 1-3-3V12.927c0-.334.055-.654.155-.954a3.001 3.001 0 0 0-2.412 2.943v40.607Z" fill="#DEC8FE"/><rect x="35.31" y="58.514" width="47.57" height="35.837" rx="3.5" transform="rotate(-90 35.31 58.514)" stroke="#373737"/><rect x="44.113" y="26.669" width="11.418" height="1.264" rx=".632" fill="#fff"/><rect x="44.114" y="31.621" width="18.233" height="1.264" rx=".632" fill="#fff"/><rect x="44.115" y="36.573" width="18.233" height="1.264" rx=".632" fill="#fff"/><rect x="44.114" y="41.525" width="18.233" height="1.264" rx=".632" fill="#fff"/><rect x="26.095" y="76.611" width="47.467" height="36" rx="4" transform="rotate(-105 26.095 76.61)" fill="#DEC8FE"/><path fill-rule="evenodd" clip-rule="evenodd" d="M25.724 73.108a3 3 0 0 0 3.674 2.121l27.573-7.388a3 3 0 0 0 2.19-3.342c-.303.233-.655.41-1.047.515l-27.213 7.292a3 3 0 0 1-3.674-2.121l-10.11-37.727a2.997 2.997 0 0 1-.094-1.001 3.001 3.001 0 0 0-1.535 3.45l10.236 38.201Z" fill="#F3EAFE"/><rect x="26.448" y="75.998" width="46.467" height="35" rx="3.5" transform="rotate(-105 26.448 75.998)" stroke="#373737"/><rect x="26.694" y="43.724" width="11.158" height="1.235" rx=".618" transform="rotate(-15 26.694 43.724)" fill="#373737"/><rect x="27.947" y="48.399" width="17.819" height="1.235" rx=".618" transform="rotate(-15 27.947 48.399)" fill="#373737"/><rect x="29.199" y="53.074" width="17.819" height="1.235" rx=".618" transform="rotate(-15 29.2 53.074)" fill="#373737"/><rect x="30.452" y="57.749" width="17.819" height="1.235" rx=".618" transform="rotate(-15 30.452 57.749)" fill="#373737"/><path d="m91.22 28.275-3.768 9.4c-.467 1.164-2.006 1.674-3.184 1.242-1.222-.45-2.073-1.947-1.589-3.155l5.043-12.582c.353-.882 1.536-1.358 2.431-1.04.94.336 1.556 1.563 1.185 2.49l-4.116 10.267c-.226.565-1.056.92-1.62.693-.565-.226-.92-1.056-.694-1.62l2.782-6.942" stroke="#373737" stroke-linecap="round"/></g><defs><clipPath id="a"><path fill="#fff" d="M0 0h106v79H0z"/></clipPath></defs></svg>