<svg width="106" height="79" viewBox="0 0 106 79" fill="none" xmlns="http://www.w3.org/2000/svg">
<rect x="7" y="15.9653" width="92.2656" height="62.5908" rx="8" fill="#F6F6F6"/>
<path fill-rule="evenodd" clip-rule="evenodd" d="M56.5322 22.9999C56.5322 21.3431 55.1891 19.9999 53.5322 19.9999H10.9428C9.28596 19.9999 7.94281 21.3431 7.94281 22.9999V24.7203C7.94281 25.2597 8.4901 25.6396 9.02952 25.6396V25.6396H19.2568C21.0237 25.6396 22.4561 27.072 22.4561 28.839C22.4561 30.6059 21.0237 32.0383 19.2568 32.0383H9.02952V32.0383C8.4901 32.0383 7.94281 32.4182 7.94281 32.9576V46.5679C7.94281 48.2247 9.28596 49.5679 10.9428 49.5679H53.5322C55.1891 49.5679 56.5322 48.2247 56.5322 46.5679V46.5679C56.5322 44.7091 55.0254 43.2022 53.1666 43.2022H46.2882C44.5213 43.2022 43.0889 41.7698 43.0889 40.0029C43.0889 38.2359 44.5213 36.8036 46.2882 36.8036H54.7584C55.7381 36.8036 56.5322 36.0094 56.5322 35.0297V32.6836C56.5322 31.7324 54.9244 30.9965 53.9732 30.9965V30.9965H39.3652C37.5982 30.9965 36.1658 29.5641 36.1658 27.7971C36.1658 26.0302 37.5982 24.5978 39.3651 24.5978H53.9732C54.003 24.5978 54.0328 24.5982 54.0625 24.599C54.9848 24.6243 56.5322 23.9226 56.5322 22.9999V22.9999ZM22.4414 44.428C24.2083 44.428 25.6407 42.9957 25.6407 41.2287C25.6407 39.4618 24.2083 38.0294 22.4414 38.0294H12.2141C10.4472 38.0294 9.01477 39.4618 9.01477 41.2287C9.01477 42.9957 10.4472 44.428 12.2141 44.428H22.4414Z" fill="#EBE8F1"/>
<path fill-rule="evenodd" clip-rule="evenodd" d="M8.16992 74.7217C9.57514 77.0214 12.109 78.5564 15.0013 78.5564H91.267C95.6852 78.5564 99.267 74.9746 99.267 70.5564V23.9655C99.267 21.0982 97.7585 18.5833 95.4919 17.1709C96.2333 18.3842 96.6605 19.8103 96.6605 21.3363V67.9271C96.6605 72.3454 93.0788 75.9271 88.6605 75.9271H12.3949C10.8439 75.9271 9.39599 75.4857 8.16992 74.7217Z" fill="#D9D9E5"/>
<rect x="7.5" y="16.4653" width="91.2656" height="61.5908" rx="7.5" stroke="#29307A"/>
<rect x="48.9424" y="65.2102" width="46.0643" height="34.9364" rx="4" transform="rotate(-78.9497 48.9424 65.2102)" fill="#EBE8F1"/>
<path fill-rule="evenodd" clip-rule="evenodd" d="M50.1307 61.9112C49.8131 63.5373 50.8739 65.113 52.5 65.4306L79.5146 70.7063C81.011 70.9986 82.4648 70.1235 82.9346 68.7148C82.5447 68.8009 82.131 68.8101 81.7141 68.7287L55.0541 63.5222C53.4279 63.2047 52.3671 61.629 52.6847 60.0029L59.9158 22.9755C59.9857 22.6175 60.1166 22.287 60.2956 21.9925C58.9297 22.0377 57.7262 23.018 57.4531 24.4164L50.1307 61.9112Z" fill="#F6F6F6"/>
<rect x="49.5289" y="64.8153" width="45.0643" height="33.9364" rx="3.5" transform="rotate(-78.9497 49.5289 64.8153)" stroke="#2A317B"/>
<rect x="63.4805" y="36.793" width="10.8287" height="1.19898" rx="0.599491" transform="rotate(11.0503 63.4805 36.793)" fill="#29307A"/>
<rect x="62.582" y="41.4023" width="17.2923" height="1.19898" rx="0.599491" transform="rotate(11.0503 62.582 41.4023)" fill="#29307A"/>
<rect x="61.6807" y="46.0122" width="17.2923" height="1.19898" rx="0.599491" transform="rotate(11.0503 61.6807 46.0122)" fill="#29307A"/>
<rect x="60.7803" y="50.6219" width="17.2923" height="1.19898" rx="0.599491" transform="rotate(11.0503 60.7803 50.6219)" fill="#29307A"/>
<path d="M70.079 72.6976C69.2593 73.4299 68.0011 73.359 67.2688 72.5393V72.5393C66.5365 71.7196 66.6074 70.4614 67.4271 69.7291L89.1139 50.3556L91.7657 53.3242L70.079 72.6976Z" fill="#275FA0"/>
<path d="M67.7602 70.102L89.0741 51.0616L91.0598 53.2844L69.7459 72.3247C69.1321 72.8731 68.19 72.82 67.6417 72.2062C67.0933 71.5924 67.1464 70.6503 67.7602 70.102Z" stroke="#2A317B"/>
<path d="M92.9403 49.7939L91.7666 53.3241L89.1147 50.3556L92.706 49.5358C92.858 49.5011 92.9895 49.646 92.9403 49.7939Z" fill="#29307A"/>
<rect x="34.9424" y="58.5699" width="48.5699" height="36.8368" rx="4" transform="rotate(-90 34.9424 58.5699)" fill="#9579CD"/>
<path fill-rule="evenodd" clip-rule="evenodd" d="M35.5029 55.0793C35.5029 56.7362 36.8461 58.0793 38.5029 58.0793L67.8514 58.0793C69.408 58.0793 70.6878 56.8937 70.8369 55.3762C70.4938 55.5128 70.1195 55.588 69.7277 55.588L40.7601 55.588C39.1033 55.588 37.7601 54.2448 37.7601 52.588L37.7601 12.4827C37.7601 12.1494 37.8144 11.8289 37.9147 11.5295C36.5395 11.8028 35.5029 13.0163 35.5029 14.4718L35.5029 55.0793Z" fill="#E4DDF3"/>
<rect x="35.4424" y="58.0699" width="47.5699" height="35.8368" rx="3.5" transform="rotate(-90 35.4424 58.0699)" stroke="#2A317B"/>
<rect x="44.2461" y="26.2247" width="11.4177" height="1.2642" rx="0.632099" fill="white"/>
<rect x="44.2471" y="31.1769" width="18.2329" height="1.2642" rx="0.632099" fill="white"/>
<rect x="44.248" y="36.1293" width="18.2329" height="1.2642" rx="0.632099" fill="white"/>
<rect x="44.2471" y="41.0813" width="18.2329" height="1.2642" rx="0.632099" fill="white"/>
<rect x="26.2275" y="76.1667" width="47.4666" height="36" rx="4" transform="rotate(-105 26.2275 76.1667)" fill="#F0B861"/>
<path fill-rule="evenodd" clip-rule="evenodd" d="M25.8564 72.664C26.2852 74.2644 27.9302 75.2141 29.5306 74.7853L57.1034 67.3972C58.5931 66.998 59.519 65.5452 59.2942 64.0554C58.9911 64.2875 58.6385 64.4652 58.2469 64.5702L31.0336 71.8619C29.4332 72.2908 27.7882 71.341 27.3594 69.7406L17.2505 32.0135C17.1606 31.678 17.1313 31.3406 17.1558 31.0128C15.919 31.6415 15.2469 33.0691 15.6204 34.4628L25.8564 72.664Z" fill="#FCEDD8"/>
<rect x="26.5811" y="75.5544" width="46.4666" height="35" rx="3.5" transform="rotate(-105 26.5811 75.5544)" stroke="#2A317B"/>
<rect x="26.8271" y="43.2804" width="11.1584" height="1.23548" rx="0.617741" transform="rotate(-15 26.8271 43.2804)" fill="white"/>
<rect x="28.0801" y="47.955" width="17.8187" height="1.23548" rx="0.617741" transform="rotate(-15 28.0801 47.955)" fill="white"/>
<rect x="29.332" y="52.6298" width="17.8187" height="1.23548" rx="0.617741" transform="rotate(-15 29.332 52.6298)" fill="white"/>
<rect x="30.585" y="57.3048" width="17.8187" height="1.23548" rx="0.617741" transform="rotate(-15 30.585 57.3048)" fill="white"/>
<path d="M91.3523 27.831L87.5847 37.2309C87.1179 38.3951 85.5788 38.9048 84.4011 38.4725C83.1786 38.0239 82.3274 36.5265 82.8118 35.3179L87.8546 22.7365C88.2082 21.8543 89.3904 21.3779 90.2858 21.6968C91.2259 22.0317 91.8417 23.2595 91.4704 24.1858C90.369 26.9338 87.355 34.4533 87.355 34.4533C87.1287 35.0181 86.2991 35.3728 85.7343 35.1464C85.1695 34.9201 84.8146 34.0905 85.0409 33.5258L87.8232 26.5843" stroke="#29307A" stroke-linecap="round"/>
</svg>
