<svg width="106" height="82" viewBox="0 0 106 82" fill="none" xmlns="http://www.w3.org/2000/svg">
<rect x="23.7314" y="13.8646" width="5.79883" height="9.95746" rx="2.89941" fill="#275FA0"/>
<rect x="24.2314" y="14.3646" width="4.79883" height="8.95746" rx="2.39941" stroke="#2A317B"/>
<rect x="7" y="19.2299" width="92.2656" height="62.5908" rx="8" fill="#F6F6F6"/>
<path fill-rule="evenodd" clip-rule="evenodd" d="M8.16895 77.986C9.57417 80.2857 12.108 81.8206 15.0004 81.8206H91.266C95.6843 81.8206 99.266 78.2389 99.266 73.8206V27.2298C99.266 24.3625 97.7576 21.8476 95.491 20.4352C96.2323 21.6485 96.6595 23.0746 96.6595 24.6005V71.1914C96.6595 75.6096 93.0778 79.1914 88.6595 79.1914H12.3939C10.8429 79.1914 9.39501 78.75 8.16895 77.986Z" fill="#D9D9E5"/>
<rect x="7.5" y="19.7299" width="91.2656" height="61.5908" rx="7.5" stroke="#29307A"/>
<rect width="1.98854" height="6.53679" rx="0.994268" transform="matrix(-0.689601 -0.72419 0.697998 -0.716099 79.958 8.93774)" fill="#2A317B"/>
<rect width="1.98854" height="6.53679" rx="0.994268" transform="matrix(0.689601 -0.72419 -0.697998 -0.716099 68.8408 8.93774)" fill="#2A317B"/>
<rect x="73.4238" y="2" width="1.95072" height="6.65888" rx="0.97536" fill="#2A317B"/>
<path d="M65.0503 14.2686L61.9805 19.8447H86.8183L83.3551 14.1258C82.6303 12.9289 81.3328 12.1978 79.9336 12.1978H68.5544C67.0962 12.1978 65.7536 12.9912 65.0503 14.2686Z" fill="#9579CD"/>
<path d="M65.0503 14.2686L61.9805 19.8447H86.8183L83.3551 14.1258C82.6303 12.9289 81.3328 12.1978 79.9336 12.1978H68.5544C67.0962 12.1978 65.7536 12.9912 65.0503 14.2686Z" fill="#9579CD"/>
<path fill-rule="evenodd" clip-rule="evenodd" d="M64.6467 74.0938C76.892 74.0938 86.8188 64.167 86.8188 51.9217C86.8188 39.6764 76.892 29.7496 64.6467 29.7496C52.4014 29.7496 42.4746 39.6764 42.4746 51.9217C42.4746 64.167 52.4014 74.0938 64.6467 74.0938ZM64.6461 67.5671C73.1567 67.5671 80.0559 60.668 80.0559 52.1574C80.0559 43.6468 73.1567 36.7476 64.6461 36.7476C56.1356 36.7476 49.2364 43.6468 49.2364 52.1574C49.2364 60.668 56.1356 67.5671 64.6461 67.5671Z" fill="#F0B861"/>
<path fill-rule="evenodd" clip-rule="evenodd" d="M77.1558 61.7792C74.2393 65.4751 69.72 67.8475 64.6465 67.8475C55.8509 67.8475 48.7207 60.7173 48.7207 51.9218C48.7207 51.1728 48.7724 50.4359 48.8724 49.7144C49.2705 49.8955 49.7128 49.9963 50.1786 49.9963H57.257C59.0011 49.9963 60.415 48.5824 60.415 46.8383C60.415 45.0941 59.0011 43.6802 57.257 43.6802H51.0163C53.8074 39.0741 58.8675 35.996 64.6465 35.996C73.4421 35.996 80.5723 43.1262 80.5723 51.9218C80.5723 53.1389 80.4357 54.3241 80.1771 55.463H73.37C71.6258 55.463 70.2119 56.8769 70.2119 58.6211C70.2119 60.3653 71.6258 61.7792 73.37 61.7792H77.1558Z" fill="#EBE8F1"/>
<circle cx="64.6465" cy="51.9218" r="15.4258" stroke="#29307A"/>
<rect x="16.792" y="34.1475" width="12.7383" height="2.60016" rx="1.30008" fill="#9579CD"/>
<path fill-rule="evenodd" clip-rule="evenodd" d="M64.6467 74.0938C76.892 74.0938 86.8188 64.167 86.8188 51.9217C86.8188 39.6764 76.892 29.7496 64.6467 29.7496C52.4014 29.7496 42.4746 39.6764 42.4746 51.9217C42.4746 64.167 52.4014 74.0938 64.6467 74.0938ZM65.6395 73.7165C76.6471 73.7165 85.5706 64.793 85.5706 53.7854C85.5706 42.7777 76.6471 33.8543 65.6395 33.8543C54.6318 33.8543 45.7084 42.7777 45.7084 53.7854C45.7084 64.793 54.6318 73.7165 65.6395 73.7165Z" fill="#FCEDD8"/>
<circle cx="64.6467" cy="51.9217" r="21.6721" stroke="#29307A"/>
<path fill-rule="evenodd" clip-rule="evenodd" d="M62.2266 20.2762L65.2964 14.7001C65.9997 13.4228 67.3423 12.6293 68.8005 12.6293H80.1797C81.5789 12.6293 82.8764 13.3604 83.6012 14.5573L84.1792 15.5118C83.443 14.3797 82.1824 13.6928 80.8261 13.6928H69.447C67.9888 13.6928 66.6462 14.4863 65.9429 15.7637L63.4586 20.2762H62.2266Z" fill="#E4DCF1"/>
<path d="M65.0503 14.2686L61.9805 19.8447H86.8183L83.3551 14.1258C82.6303 12.9289 81.3328 12.1978 79.9336 12.1978H68.5544C67.0962 12.1978 65.7536 12.9912 65.0503 14.2686Z" stroke="#29307A"/>
</svg>
