<svg width="93" height="81" viewBox="0 0 93 81" fill="none" xmlns="http://www.w3.org/2000/svg">
<rect x="16.8086" y="12.3082" width="5.79883" height="9.95746" rx="2.89941" fill="#275FA0"/>
<rect x="17.3086" y="12.8082" width="4.79883" height="8.95746" rx="2.39941" stroke="#2A317B"/>
<rect x="0.0771484" y="17.6735" width="92.2656" height="62.5908" rx="8" fill="#F6F6F6"/>
<path fill-rule="evenodd" clip-rule="evenodd" d="M1.24609 76.4296C2.65132 78.7293 5.18515 80.2642 8.0775 80.2642H84.3431C88.7614 80.2642 92.3431 76.6825 92.3431 72.2642V25.6734C92.3431 22.8061 90.8347 20.2912 88.5681 18.8788C89.3095 20.0921 89.7367 21.5182 89.7367 23.0441V69.635C89.7367 74.0532 86.155 77.635 81.7367 77.635H5.47106C3.92006 77.635 2.47216 77.1936 1.24609 76.4296Z" fill="#D9D9E5"/>
<rect x="0.577148" y="18.1735" width="91.2656" height="61.5908" rx="7.5" stroke="#29307A"/>
<rect x="73.0352" y="7.16553" width="1.95072" height="6.41527" rx="0.97536" transform="rotate(-134.666 73.0352 7.16553)" fill="#2A317B"/>
<rect width="1.95072" height="6.41527" rx="0.97536" transform="matrix(0.702969 -0.71122 -0.71122 -0.702969 61.918 7.16553)" fill="#2A317B"/>
<rect x="66.501" y="0.481567" width="1.95072" height="6.41527" rx="0.97536" fill="#2A317B"/>
<path d="M58.1159 12.3217L55.0576 17.6735H79.8955L76.4409 12.1776C75.7089 11.013 74.4299 10.3063 73.0544 10.3063H61.5888C60.1534 10.3063 58.8281 11.0754 58.1159 12.3217Z" fill="#9579CD"/>
<path d="M58.1159 12.3217L55.0576 17.6735H79.8955L76.4409 12.1776C75.7089 11.013 74.4299 10.3063 73.0544 10.3063H61.5888C60.1534 10.3063 58.8281 11.0754 58.1159 12.3217Z" fill="#9579CD"/>
<path fill-rule="evenodd" clip-rule="evenodd" d="M57.7239 72.5374C69.9692 72.5374 79.896 62.6106 79.896 50.3653C79.896 38.12 69.9692 28.1932 57.7239 28.1932C45.4785 28.1932 35.5518 38.12 35.5518 50.3653C35.5518 62.6106 45.4785 72.5374 57.7239 72.5374ZM57.7233 66.0107C66.2339 66.0107 73.1331 59.1116 73.1331 50.601C73.1331 42.0904 66.2339 35.1912 57.7233 35.1912C49.2127 35.1912 42.3135 42.0904 42.3135 50.601C42.3135 59.1116 49.2127 66.0107 57.7233 66.0107Z" fill="#F0B861"/>
<path fill-rule="evenodd" clip-rule="evenodd" d="M70.2329 60.2228C67.3165 63.9187 62.7971 66.2911 57.7236 66.2911C48.9281 66.2911 41.7979 59.1609 41.7979 50.3654C41.7979 49.6164 41.8496 48.8795 41.9496 48.158C42.3477 48.3391 42.7899 48.4399 43.2557 48.4399H50.3341C52.0783 48.4399 53.4922 47.026 53.4922 45.2819C53.4922 43.5377 52.0783 42.1238 50.3341 42.1238H44.0935C46.8846 37.5177 51.9446 34.4396 57.7236 34.4396C66.5192 34.4396 73.6494 41.5698 73.6494 50.3654C73.6494 51.5825 73.5129 52.7677 73.2543 53.9066H66.4471C64.703 53.9066 63.2891 55.3205 63.2891 57.0647C63.2891 58.8089 64.703 60.2228 66.4471 60.2228H70.2329Z" fill="#EBE8F1"/>
<circle cx="57.7236" cy="50.3654" r="15.4258" stroke="#29307A"/>
<rect x="9.86914" y="32.5911" width="12.7383" height="2.60016" rx="1.30008" fill="#9579CD"/>
<path fill-rule="evenodd" clip-rule="evenodd" d="M57.7239 72.5374C69.9692 72.5374 79.896 62.6106 79.896 50.3653C79.896 38.12 69.9692 28.1932 57.7239 28.1932C45.4785 28.1932 35.5518 38.12 35.5518 50.3653C35.5518 62.6106 45.4785 72.5374 57.7239 72.5374ZM58.7166 72.1601C69.7243 72.1601 78.6477 63.2367 78.6477 52.229C78.6477 41.2213 69.7243 32.2979 58.7166 32.2979C47.709 32.2979 38.7855 41.2213 38.7855 52.229C38.7855 63.2367 47.709 72.1601 58.7166 72.1601Z" fill="#FCEDD8"/>
<circle cx="57.7239" cy="50.3653" r="21.6721" stroke="#29307A"/>
<path fill-rule="evenodd" clip-rule="evenodd" d="M55.3037 18.0891L58.362 12.7373C59.0742 11.491 60.3995 10.7219 61.8349 10.7219H73.3005C74.676 10.7219 75.955 11.4287 76.687 12.5932L77.2636 13.5106C76.5219 12.4101 75.2797 11.7466 73.947 11.7466H62.4814C61.046 11.7466 59.7206 12.5157 59.0085 13.762L56.5357 18.0891H55.3037Z" fill="#E4DCF1"/>
<path d="M58.1159 12.3217L55.0576 17.6735H79.8955L76.4409 12.1776C75.7089 11.013 74.4299 10.3063 73.0544 10.3063H61.5888C60.1534 10.3063 58.8281 11.0754 58.1159 12.3217Z" stroke="#29307A"/>
</svg>
