<svg width="106" height="82" viewBox="0 0 106 82" fill="none" xmlns="http://www.w3.org/2000/svg"><rect x="23.599" y="14.044" width="5.799" height="9.957" rx="2.899" fill="#704FE6"/><rect x="24.099" y="14.544" width="4.799" height="8.957" rx="2.399" fill="#704FE6" stroke="#373737"/><rect x="6.867" y="19.409" width="92.266" height="62.591" rx="8" fill="#F8F8F8"/><path fill-rule="evenodd" clip-rule="evenodd" d="M8.036 78.166A7.995 7.995 0 0 0 14.868 82h76.265a8 8 0 0 0 8-8V27.41a7.995 7.995 0 0 0-3.775-6.795 7.962 7.962 0 0 1 1.169 4.165v46.59a8 8 0 0 1-8 8H12.26a7.962 7.962 0 0 1-4.225-1.204Z" fill="#EBE8F1"/><rect x="7.367" y="19.909" width="91.266" height="61.591" rx="7.5" stroke="#373737"/><rect x="79.825" y="8.901" width="1.951" height="6.415" rx=".975" transform="rotate(-134.666 79.825 8.901)" fill="#373737"/><rect width="1.951" height="6.415" rx=".975" transform="scale(1 -1) rotate(45.334 45.011 77.808)" fill="#373737"/><rect x="73.291" y="2.218" width="1.951" height="6.415" rx=".975" fill="#373737"/><path d="m64.906 14.058-3.058 5.351h24.838l-3.455-5.495a4 4 0 0 0-3.387-1.872H68.38a4 4 0 0 0-3.473 2.016Z" fill="#704FE6"/><path d="m64.906 14.058-3.058 5.351h24.838l-3.455-5.495a4 4 0 0 0-3.387-1.872H68.38a4 4 0 0 0-3.473 2.016Z" fill="#704FE6"/><path fill-rule="evenodd" clip-rule="evenodd" d="M64.514 74.273c12.245 0 22.172-9.926 22.172-22.172 0-12.245-9.927-22.172-22.172-22.172-12.245 0-22.172 9.927-22.172 22.172 0 12.246 9.927 22.172 22.172 22.172Zm0-6.526c8.51 0 15.41-6.9 15.41-15.41s-6.9-15.41-15.41-15.41c-8.511 0-15.41 6.9-15.41 15.41s6.899 15.41 15.41 15.41Z" fill="#DEC8FE"/><path fill-rule="evenodd" clip-rule="evenodd" d="M77.023 61.959a15.897 15.897 0 0 1-12.51 6.068c-8.795 0-15.925-7.13-15.925-15.926 0-.749.052-1.486.152-2.207.398.181.84.282 1.306.282h7.078a3.158 3.158 0 1 0 0-6.316h-6.24c2.79-4.606 7.85-7.684 13.63-7.684 8.795 0 15.925 7.13 15.925 15.925 0 1.218-.136 2.403-.395 3.542h-6.807a3.158 3.158 0 1 0 0 6.316h3.786Z" fill="#EBE8F1"/><circle cx="64.514" cy="52.101" r="15.426" stroke="#373737"/><rect x="16.659" y="34.327" width="12.738" height="2.6" rx="1.3" fill="#704FE6"/><path fill-rule="evenodd" clip-rule="evenodd" d="M64.514 74.273c12.245 0 22.172-9.926 22.172-22.172 0-12.245-9.927-22.172-22.172-22.172-12.245 0-22.172 9.927-22.172 22.172 0 12.246 9.927 22.172 22.172 22.172Zm.993-.377c11.007 0 19.93-8.923 19.93-19.931 0-11.008-8.923-19.931-19.93-19.931-11.008 0-19.932 8.923-19.932 19.931 0 11.008 8.924 19.931 19.932 19.931Z" fill="#F2EAFE"/><circle cx="64.514" cy="52.101" r="21.672" stroke="#373737"/><path fill-rule="evenodd" clip-rule="evenodd" d="m62.094 19.825 3.058-5.352a4 4 0 0 1 3.473-2.015h11.466a4 4 0 0 1 3.386 1.871l.577.917a4 4 0 0 0-3.317-1.764H69.271a4 4 0 0 0-3.472 2.016l-2.473 4.327h-1.232Z" fill="#DEC8FE"/><path d="m64.906 14.058-3.058 5.351h24.838l-3.455-5.495a4 4 0 0 0-3.387-1.872H68.38a4 4 0 0 0-3.473 2.016Z" stroke="#373737"/></svg>