<svg id="Layer_1" data-name="Layer 1" xmlns="http://www.w3.org/2000/svg" viewBox="0 0 1653.92 556.75"><defs><linearGradient id="linear-gradient" x1="45.17" y1="-608.63" x2="107.3" y2="-492.27" gradientTransform="translate(0 922)" gradientUnits="userSpaceOnUse"><stop offset="0" stop-color="#0818ad"/><stop offset="1" stop-color="#0e007b"/></linearGradient><linearGradient id="linear-gradient-2" x1="401.94" y1="-767.58" x2="504.37" y2="-767.58" gradientTransform="translate(0 922)" gradientUnits="userSpaceOnUse"><stop offset="0" stop-color="#2a77ff"/><stop offset=".53" stop-color="#003af4"/><stop offset="1" stop-color="#0d007a"/></linearGradient><linearGradient id="linear-gradient-3" x1=".13" y1="-800.85" x2="555.2" y2="-800.85" gradientTransform="translate(0 922)" gradientUnits="userSpaceOnUse"><stop offset="0" stop-color="#6dffff"/><stop offset=".49" stop-color="#00c1ff"/><stop offset="1" stop-color="#158bff"/></linearGradient><linearGradient id="linear-gradient-4" x1="272788.17" y1="-752.42" x2="470572.33" y2="-752.42" gradientTransform="translate(0 922)" gradientUnits="userSpaceOnUse"><stop offset="0" stop-color="#6dffff"/><stop offset=".49" stop-color="#00c1ff"/><stop offset="1" stop-color="#158bff"/></linearGradient><linearGradient id="linear-gradient-5" x1="330.2" y1="-921.98" x2="330.2" y2="-738.76" gradientTransform="translate(0 922)" gradientUnits="userSpaceOnUse"><stop offset="0" stop-color="#06b1ff"/><stop offset="1" stop-color="#6dffff"/></linearGradient><linearGradient id="linear-gradient-6" x1="502.06" y1="-501.65" x2="15.62" y2="-478.15" gradientTransform="translate(0 922)" gradientUnits="userSpaceOnUse"><stop offset="0" stop-color="#53f0ff"/><stop offset="1" stop-color="#1097ff"/></linearGradient><linearGradient id="linear-gradient-7" x1="515.28" y1="-537.36" x2="-14.61" y2="-521.49" gradientTransform="translate(0 922)" gradientUnits="userSpaceOnUse"><stop offset="0" stop-color="#6dffff"/><stop offset="1" stop-color="#38e1ff"/></linearGradient><linearGradient id="linear-gradient-8" x1="409.7" y1="-443.57" x2="36.97" y2="-443.57" gradientTransform="translate(0 922)" gradientUnits="userSpaceOnUse"><stop offset="0" stop-color="#66fbff"/><stop offset="1" stop-color="#01befe"/></linearGradient><style>.cls-1{fill:#38150d}.cls-1,.cls-4{stroke-width:0}.cls-1{fill-rule:evenodd}.cls-4{fill:#000}</style></defs><path d="M58.44 424.1c30.22 15.17 76.93 19.62 109.63 3.38-40.78-43.38-9.71-22.11-48.98-61.04-9.15 5.01-31.29-36.13-55.95-43.21-30.28-8.7-43.3 16.01-45.64 26.17-5.94 30.72 14.79 61.45 40.94 74.7Z" style="fill:url(#linear-gradient);fill-rule:evenodd;stroke-width:0"/><path class="cls-1" d="M268.69 142.85c.47-.01.93.08 1.36.26s.82.44 1.15.77.59.72.76 1.16c.17.43.25.9.24 1.36v259.69c0 .93-.36 1.83-1.02 2.49-.66.66-1.56 1.03-2.49 1.01-.92-.02-1.8-.4-2.45-1.05a3.584 3.584 0 0 1-1.05-2.45V146.4c.02-1.93 1.57-3.5 3.5-3.55Z"/><path class="cls-1" d="M480.05 242.43c-15.3-13.29-45.52-25.34-54.45-9.62-11.67 20.73 21.37 66.8 20.43 97.28-.04 4.33-.63 8.64-1.75 12.82-23.04 20.17-49.84 40.9-73 60.95l-184 9.74c-34.7-11.75-69.37-23.68-104.03-35.47 0-17.35.26-34.83.38-52.14h-.51c-.78.04-1.57.04-2.35 0h-8.46c-11.2 39.75-37.83 100.05 27.18 108.73h316.28c64.75-9.1 70.14-100.52 35.35-157.15-26.16-42.74.94-35.65 17.1-20.05 15.2 12.27 20.76-6.41 11.83-15.09Z"/><path d="M446.02 329.67c-118.43 63.3-319.31 88.77-362.05-3.76h-.34c-10.09 35.82-34.19 80.01 15.98 108.77h316.28c23.76-25.09 39.92-67.49 30.13-105.01Z" style="fill:#542e0c;fill-rule:evenodd;stroke-width:0"/><path d="M70.34 371.38a60.808 60.808 0 0 0 2.74 36.46c114.59 23.16 246.83 14.92 366.33-9.49 4.86-11.23 7.91-23.16 9.06-35.35-134.8 48.38-297.77 65.56-378.12 8.55v-.17Z" style="fill:#613612;fill-rule:evenodd;stroke-width:0"/><path d="M156.12 192.98c58.01-16.1 115.95-32.18 173.82-48.25 51.29 53.38 66.25 119.37 35.6 187.8-59.84 6.24-119.67 12.61-179.51 18.81 28.3-58.52 20.73-115.4-29.91-158.36Z" style="fill:#edc72f;fill-rule:evenodd;stroke-width:0"/><path d="M353.23 173.62c7.31 10.94 13.4 22.65 18.16 34.92L196.5 250a115.596 115.596 0 0 0-17.48-32.91l174.21-43.47Zm27.65 77.62c.95 13.83.09 27.72-2.56 41.33l-181.69 31.54c3.84-12.59 5.76-25.69 5.68-38.85l178.57-34.02Z" style="fill:#c81c0d;fill-rule:evenodd;stroke-width:0"/><path d="M493.44 107.75c-135.63 20.05-143.5-2.1-6.29 78.95 18.29 10.81 43.96 21.53 52.73 8.21 25.29-44.56-8.93-78.46-46.44-87.16Z" style="fill:url(#linear-gradient-2);fill-rule:evenodd;stroke-width:0"/><path d="M20.34 202.82c-30.53 8.68-24.64 43.45 5.44 39.11 42.3-5.86 86.11-19.93 125.15-37.81 13.8-6.3 29.65-11.32 38.59 5.21 12.85 23.69 35.74 37.17 59.95 19.12 22.23-16.3 48.62-34.12 74.33-52.38 33.73-23.92 106.63-68.25 162.21-65.21 44.27 2.61 77.19 42.61 53.87 84.12 11.12-16.73 15.92-37.38 15.26-58.27C551.22.41 369.16-33.32 266.69 32.61 187.34 83.5 147.45 167.55 20.34 202.82Z" style="fill:url(#linear-gradient-3);fill-rule:evenodd;stroke-width:0"/><path d="M.5 220.39c-2.84 11.94 6.53 24.12 25.28 21.47 42.3-5.86 86.11-19.93 125.15-37.81 13.8-6.3 29.66-11.32 38.59 5.21 12.85 23.69 35.74 37.17 59.95 19.12 22.23-16.3 48.62-34.12 74.34-52.38 33.73-23.92 106.62-68.25 162.21-65.21 44.27 2.61 77.18 42.61 53.87 84.12 2.66-4.01 4.99-8.22 6.98-12.6 15.04-44.56-16.15-78.9-58.86-84.55-57.78-7.39-130.82 36.29-172.68 66.07-24.85 17.62-50.35 34.56-74.56 52.61-16.56 12.16-29.65 1.3-38.15-14.14-11.99-21.94-32.92-22.39-53.66-13.69-38.33 21.96-84.33 36.95-123.19 45.65-13.08 3.07-27.25-1.96-25.28-13.91v.04Z" style="fill:url(#linear-gradient-4);fill-rule:evenodd;stroke-width:0"/><path d="M266.71 158.45c56.88-37.83 146.08-90.2 213.28-88.47 40.33.87 74.78 31.1 75.13 73.26v-6.53C551.23.43 369.17-33.3 266.7 32.63c-56.03 35.86-92.43 88.47-153.93 128.68-14.6 10.44-6.32 28.69 11.78 19.35a465.404 465.404 0 0 0 86.55-59.55c13.8-11.75 29.87-3.91 24.43 18.48-5.67 23.9 15.26 29.55 31.17 18.91v-.05h.01Z" style="fill:url(#linear-gradient-5);fill-rule:evenodd;stroke-width:0"/><path d="M168.07 427.48c-39.28 7.61-79.2 8.21-109.2-6.92-26.37-13.29-47.31-40.43-41.37-71.16-8.25 34.92 7.82 75.99 35.05 102.32 124.42 119.16 355.22 88 473.9-40.43 17.1-18.55 8.89-35.99-8.55-35.39a35.21 35.21 0 0 0-13.98 3.8 287.467 287.467 0 0 1-74.33 23.81c-32.53 5.68-49.41-1.92-75.61-18.98-27.23-18.08-43.94-11.37-72.02 2.95a453.468 453.468 0 0 1-113.82 40h-.07Z" style="fill:url(#linear-gradient-6);fill-rule:evenodd;stroke-width:0"/><path d="M354.12 384.52c-27.23-18.08-43.94-11.37-72.02 2.95a453.468 453.468 0 0 1-113.82 40c-39.28 7.61-79.2 8.21-109.2-6.92-26.37-13.29-47.31-40.43-41.37-71.16a83.565 83.565 0 0 0-2.14 22.95c10.6 74.32 91.46 81.67 155.45 69.24a453.665 453.665 0 0 0 117.83-41.24c9.32-4.87 22.61-12.01 33.38-12.22 8.74.16 17.18 3.16 24.06 8.55 30.43 20 51.29 27.99 87.87 19.36 24.92-5.9 50.48-18.51 73.3-29.92 11.16-5.68 21.37-10.34 27.23-1.5a17.1 17.1 0 0 0-16.67-8.55 35.21 35.21 0 0 0-13.98 3.8 287.467 287.467 0 0 1-74.33 23.81c-32.53 5.68-49.41-1.92-75.61-18.98v-.17h.02Z" style="fill:url(#linear-gradient-7);fill-rule:evenodd;stroke-width:0"/><path d="M282.6 435.87c-117.66 40.43-213.1 38.98-245.63-5.26a118.29 118.29 0 0 0 17.31 21.07c79.41 76.21 202.33 90.95 311.7 58.08 18.59-6.07 49.02-24.4 64.11-37.27 21.16-18.08 7.82-42.74-16.88-31.37a636.194 636.194 0 0 1-79.84 29.92c-18.76 5.9-24.92-4.66-23.85-15.39 2.52-21.88-6.33-26.93-27.01-19.79h.09Z" style="fill:url(#linear-gradient-8);fill-rule:evenodd;stroke-width:0"/><path class="cls-4" d="M886.22 375.03c45.34 65.66-6.25 107.82-56.32 144.88-21.82 10.51-41.27 29.3-64.37 34.09-34.81 6.04-80.14 3.9-102.01-24.62-55.61-45.65-10.17-102.7 36.23-136.77 8.32-3.59 29.51-22.38 29.82-7.1-15.58 15.35-39.82 23.67-47.57 44.96-28.98 47.11 19.9 99.47 67.69 97.53 52.93 6.44 129.72-47.75 115.27-104.13-8.92-41.51-38.07-72.55-58.7-107.94-25.71-37.21-46.58-75.64-74.07-109.6-72.35-90.14 18.1-176.44 112.19-175.66 50.74 10.63 93.47 70.86 45.9 112.19-7.65 7.74-13.04 12.15-18.22 20.6-6.17-1-16.06 5.12-15.86-3.78-2.66-11.53 21.06-23.27 23.42-35.98 5.36-27.35-13.57-58.5-40.45-64.59-26.88-13.28-56.5 4.6-79.76 13.96-29.7 20.58-26.23 61.78-12.08 89.24 43.39 72.35 95.68 140.19 138.89 212.73Zm177.07-107.47c-5.42 22.17-11.37 141.63 23.19 131.61 41.78-25.65-10.76 29.82-28.87 24.11-27.89-5.44-26.86-43.5-29.1-66.97 1.09-33.55-10.01-8.6-22.25 1.89-100.49 114.03-106.7-39.76-15.85-91.58 32.57-18.31 42.3 6.53 72.88.94Zm-58.24 20.83c-31.15-14.53-57.73 59.97-40.71 79.52 17.37 7.97 36.48-26.76 43.8-39.52 11.17-15.03 25.6-32.97-3.08-40Zm290.22 179.91c-31.56-2.51-46.47-37.03-50.66-65.34-.64-6.01-3.59-16.17-2.84-21.78-14.46 7.76-23.14 16.67-36.45 20.36-97.93 51.27-111.45-56.96-52.34-110.06 17.2-11.83 37.44-25.6 58.21-30.06 9.5-6.06 35.81 8.58 31.49-8.99-4.58-38.49 15.19-183.53-46.38-164.97-34.91-2.3 55.21-55.63 68.64 1.67 17.27 58.3 8.66 118.3 9.48 177.98-7.92 23.21 13.39 16.81 9.7 35.03-13.63 42.92-15.72 136.1 34.57 152.9 8.76 3.18 20.36.72 24.38-6.64 8.96 15.96-37.73 22.22-47.8 19.91Zm-52.55-126.41c-7.66-16.49 6.31-41.5-10.65-50.65-45.6-20.44-67.53 2.34-79.77 44.52-18.1 78.06 77.19 68.98 90.42 6.13Z"/><path class="cls-4" d="M1523.93 413.85c-50.87 46.83-78.32 27.72-126.61-8.54-23-21.1-12.24 17.07-14.43 31.24 1.6 18.21-2.41 32.17 2.36 48.29 1.72 17.87-21.51 25.22-34.55 28.39-9.09-27.91-2.59-67.85-5.2-98.22 1.91-6.06-3.01-9.42-5.2-13.02 3.86-18.1 6.35-32.5 7.56-49.94-1.47-70.41 5.79-138.55 17.03-205.7 12.13-47.63 33.32-93.4 77.16-116.46 15.94-11.2 89.41-17.44 55.85 12.3-21.11 18.62-57.31-7.77-70.54 22.71-45.17 72.15-39.09 159.65-45.44 244.25 7.52 5.13 10.3-9.12 14.45-12.08 3.08-4.16 11.48-8.85 12.53-13.5 15.46-8.01 43.36-38.57 58.23-16.57 33.13 33.97-37.32 79.36-57.25 99.39 8.9 11.34 20.31 13.36 29.11 21.3 9.89 10.96 25.54 23.89 39.53 28.87 13.65 6.05 26.5 2.56 38.34-4.97 10.94-15.93 24.09-12.2 7.06 2.26Zm-83.32-123.56c-24.21-16.91-52.57 54.09-58.7 71.26-.33 26.46 81.93-45.34 58.7-71.26Z"/><path class="cls-4" d="M1526.78 284.13c16.47-25.28 50.43-52.51 81.91-46.85 31.44 20.03 55.02 37.11 41.18 77.62-11 41.33-56.01 69.36-96.55 71.47-46.85-8.09-46.41-70.69-26.53-102.24Zm69.59-12.31c-29.84-19.06-48.56 19.42-47.8 44.03-2.45 14.12 8.41 26.24 10.42 38.34 50.44 38.18 81.25-59.98 37.38-82.37Z"/></svg>