<svg width="125" height="52" viewBox="0 0 125 52" fill="none" xmlns="http://www.w3.org/2000/svg"><path d="M31.391 30.878c.46-1.81.983-3.588 1.585-5.358.374-1.101.767-2.206 1.163-3.314.855-2.4 1.718-4.82 2.408-7.278.371-1.322.578-2.653.248-3.786-.345-1.19-1.25-2.066-2.854-2.517-1.107-.31-2.112-.129-2.94.588-.797.687-1.38 1.825-1.8 3.32-.997 3.55-1.943 7.12-2.888 10.686-.533 2.009-1.065 4.016-1.605 6.018-1.742-.458-3.513-.771-5.26-1.08l-.012-.002c-1.922-.34-3.816-.675-5.664-1.193a12.584 12.584 0 0 1-1.49-.52 192.737 192.737 0 0 1 2.634-3.705l.294-.407c1.115-1.543 2.237-3.106 3.293-4.706 2.111-3.199 3.975-6.567 5.015-10.274.26-.928-.202-1.713-.768-2.25a4.895 4.895 0 0 0-1.938-1.09c-1.432-.402-3.159-.115-4.019 1.393l-.004.007-.004.007a179.09 179.09 0 0 1-2.728 5c-1.433 2.47-3.071 4.873-4.786 7.172l-.007.01-.006.009c-.381.562-.793 1.145-1.213 1.74-.676.958-1.377 1.95-2.017 2.951-1.05 1.642-1.988 3.384-2.506 5.23-.188.67-.17 1.325.074 1.946.24.614.687 1.16 1.298 1.643l.004.004c1.63 1.264 3.58 2.007 5.568 2.511 1.603.406 3.262.664 4.82.906l1.09.171c2.757.462 4.748.867 5.993 1.213-.328 1.133-.688 2.26-1.05 3.394v.003c-.412 1.289-.827 2.588-1.196 3.903-.608 2.166 1.091 4.082 2.95 4.604 1.763.495 3.66-.297 4.194-2.2l.001-.004 2.145-7.868c.854.224 1.686.54 2.538.878l.335.133c.889.355 1.806.72 2.757.987.68.19 1.29-.162 1.786-.704 1.467-1.454 1.879-3.832.461-5.525-.824-1.04-1.91-1.604-3.034-1.97-.767-.25-1.596-.417-2.38-.577-.164-.033-.326-.066-.485-.1Z" fill="#9579CD" stroke="#000"/><path d="M23.082 6.99c-.498-.629-1.352-1.088-2.005-1.272-1.3-.364-2.743-.078-3.45 1.16a179.158 179.158 0 0 1-2.737 5.015c-1.445 2.492-3.095 4.911-4.819 7.222-.393.58-.809 1.17-1.231 1.768-1.76 2.492-3.633 5.142-4.437 8.008a2.72 2.72 0 0 0-.105.864c-.408-.642-.506-1.339-.295-2.09.805-2.867 2.677-5.517 4.437-8.01.422-.597.838-1.186 1.232-1.767 1.723-2.31 3.373-4.73 4.818-7.222a179.121 179.121 0 0 0 2.737-5.015c.707-1.238 2.15-1.524 3.45-1.16 1.027.289 2.553 1.26 2.405 2.499Z" fill="#E4DDF3"/><path d="M23.082 6.99c-.498-.629-1.352-1.088-2.005-1.272-1.3-.364-2.743-.078-3.45 1.16a179.158 179.158 0 0 1-2.737 5.015c-1.445 2.492-3.095 4.911-4.819 7.222-.393.58-.809 1.17-1.231 1.768-1.76 2.492-3.633 5.142-4.437 8.008a2.72 2.72 0 0 0-.105.864c-.408-.642-.506-1.339-.295-2.09.805-2.867 2.677-5.517 4.437-8.01.422-.597.838-1.186 1.232-1.767 1.723-2.31 3.373-4.73 4.818-7.222a179.121 179.121 0 0 0 2.737-5.015c.707-1.238 2.15-1.524 3.45-1.16 1.027.289 2.553 1.26 2.405 2.499ZM12.49 27.065c-.187.272-.373.543-.558.815.664.32 1.366.583 2.105.79 1.876.526 3.794.865 5.712 1.204 1.918.34 3.836.678 5.71 1.204.588-2.168 1.163-4.339 1.739-6.51.944-3.562 1.888-7.125 2.884-10.672.819-2.917 2.193-4.104 4.124-3.562 1.123.315 1.824.837 2.222 1.506-.154-1.261-.883-2.245-2.622-2.733-1.93-.542-3.305.645-4.124 3.562-.995 3.547-1.94 7.11-2.884 10.672a1252.5 1252.5 0 0 1-1.738 6.51c-1.875-.526-3.793-.865-5.71-1.204-1.919-.338-3.837-.677-5.713-1.204-.393-.11-.775-.236-1.146-.378Z" fill="#E4DDF3"/><path d="M12.49 27.065c-.187.272-.373.543-.558.815.664.32 1.366.583 2.105.79 1.876.526 3.794.865 5.712 1.204 1.918.34 3.836.678 5.71 1.204.588-2.168 1.163-4.339 1.739-6.51.944-3.562 1.888-7.125 2.884-10.672.819-2.917 2.193-4.104 4.124-3.562 1.123.315 1.824.837 2.222 1.506-.154-1.261-.883-2.245-2.622-2.733-1.93-.542-3.305.645-4.124 3.562-.995 3.547-1.94 7.11-2.884 10.672a1252.5 1252.5 0 0 1-1.738 6.51c-1.875-.526-3.793-.865-5.71-1.204-1.919-.338-3.837-.677-5.713-1.204-.393-.11-.775-.236-1.146-.378ZM31.456 31.402c-.094.36-.186.72-.276 1.082.339.077.684.147 1.031.218 1.888.383 3.839.779 5.091 2.364.131.156.244.32.34.488a3.214 3.214 0 0 0-.74-1.715c-1.252-1.585-3.203-1.981-5.09-2.364l-.356-.073Z" fill="#E4DDF3"/><path d="M31.456 31.402c-.094.36-.186.72-.276 1.082.339.077.684.147 1.031.218 1.888.383 3.839.779 5.091 2.364.131.156.244.32.34.488a3.214 3.214 0 0 0-.74-1.715c-1.252-1.585-3.203-1.981-5.09-2.364l-.356-.073ZM20.911 45.588a2.76 2.76 0 0 1 .093-1.003c.367-1.306.78-2.599 1.192-3.89.412-1.291.824-2.581 1.19-3.884a15.555 15.555 0 0 0-.698-.201c-.285.956-.588 1.906-.892 2.858-.413 1.291-.825 2.584-1.192 3.89-.223.796-.074 1.57.307 2.23Z" fill="#E4DDF3"/><path d="M20.911 45.588a2.76 2.76 0 0 1 .093-1.003c.367-1.306.78-2.599 1.192-3.89.412-1.291.824-2.581 1.19-3.884a15.555 15.555 0 0 0-.698-.201c-.285.956-.588 1.906-.892 2.858-.413 1.291-.825 2.584-1.192 3.89-.223.796-.074 1.57.307 2.23Z" fill="#E4DDF3"/><path d="M110.839 23.804a70.565 70.565 0 0 1-1.896-5.256c-.351-1.11-.687-2.232-1.025-3.36-.732-2.44-1.47-4.901-2.37-7.29-.484-1.285-1.105-2.48-2.042-3.198-.983-.754-2.23-.925-3.79-.338-1.076.406-1.778 1.147-2.022 2.215-.234 1.026-.03 2.288.517 3.742 1.3 3.45 2.651 6.887 4 10.32a1304.52 1304.52 0 0 1 2.271 5.8c-1.676.662-3.287 1.459-4.878 2.244l-.011.006c-1.75.865-3.474 1.716-5.27 2.392-.503.19-1.006.344-1.51.465-.047-1.497-.059-3.014-.07-4.546l-.005-.502c-.015-1.904-.037-3.828-.133-5.742-.193-3.828-.686-7.646-2.043-11.25-.34-.9-1.177-1.26-1.95-1.357a4.895 4.895 0 0 0-2.208.27c-1.392.523-2.614 1.777-2.414 3.501v.008l.002.008c.327 2.198.58 4.08.762 5.645.31 2.84.411 5.745.39 8.614v.011l.001.012c.026.679.04 1.391.054 2.12.022 1.172.045 2.386.122 3.572.127 1.945.402 3.905 1.078 5.699.245.651.648 1.168 1.212 1.524.557.352 1.24.527 2.018.556h.006c2.062.053 4.073-.502 5.974-1.274 1.532-.621 3.022-1.396 4.419-2.124l.98-.507c2.496-1.26 4.34-2.114 5.548-2.572.407 1.107.784 2.228 1.164 3.357l.001.002c.432 1.282.867 2.575 1.348 3.853.793 2.106 3.297 2.644 5.103 1.963 1.715-.645 2.774-2.406 2.077-4.257l-.001-.003-2.93-7.61c.82-.326 1.678-.563 2.565-.796l.348-.09c.926-.241 1.882-.49 2.807-.838.66-.25.943-.894 1.022-1.625.321-2.04-.756-4.2-2.901-4.726-1.28-.35-2.489-.16-3.611.21-.766.253-1.533.609-2.259.944l-.45.208Z" fill="#9579CD" stroke="#000"/><path d="M89.997 9.475c-.773-.212-1.734-.076-2.368.163-1.264.476-2.258 1.56-2.094 2.977.328 2.202.583 4.089.765 5.662.312 2.864.414 5.79.394 8.673.027.701.04 1.422.054 2.154.057 3.05.118 6.294 1.167 9.08.109.289.25.541.426.759-.708-.276-1.2-.78-1.475-1.51-1.049-2.786-1.11-6.03-1.167-9.081a110.65 110.65 0 0 0-.054-2.154c.02-2.883-.082-5.809-.394-8.673-.182-1.573-.437-3.46-.764-5.662-.164-1.416.83-2.501 2.093-2.977.999-.376 2.803-.496 3.417.589Z" fill="#E4DDF3"/><path d="M89.997 9.475c-.773-.212-1.734-.076-2.368.163-1.264.476-2.258 1.56-2.094 2.977.328 2.202.583 4.089.765 5.662.312 2.864.414 5.79.394 8.673.027.701.04 1.422.054 2.154.057 3.05.118 6.294 1.167 9.08.109.289.25.541.426.759-.708-.276-1.2-.78-1.475-1.51-1.049-2.786-1.11-6.03-1.167-9.081a110.65 110.65 0 0 0-.054-2.154c.02-2.883-.082-5.809-.394-8.673-.182-1.573-.437-3.46-.764-5.662-.164-1.416.83-2.501 2.093-2.977.999-.376 2.803-.496 3.417.589ZM93.351 31.924c.01.33.02.659.032.987a12.87 12.87 0 0 0 2.165-.61c1.823-.686 3.57-1.55 5.316-2.412 1.746-.863 3.491-1.725 5.314-2.411-.811-2.095-1.633-4.185-2.455-6.276-1.348-3.43-2.697-6.859-3.995-10.307-1.068-2.835-.663-4.606 1.213-5.313 1.092-.41 1.966-.406 2.683-.102-.871-.925-2.041-1.286-3.731-.65-1.877.707-2.282 2.478-1.214 5.313 1.298 3.448 2.647 6.878 3.995 10.307.822 2.09 1.644 4.181 2.455 6.276-1.822.686-3.568 1.549-5.314 2.411-1.746.863-3.493 1.726-5.316 2.412a13.28 13.28 0 0 1-1.148.375Z" fill="#E4DDF3"/><path d="M93.351 31.924c.01.33.02.659.032.987a12.87 12.87 0 0 0 2.165-.61c1.823-.686 3.57-1.55 5.316-2.412 1.746-.863 3.491-1.725 5.314-2.411-.811-2.095-1.633-4.185-2.455-6.276-1.348-3.43-2.697-6.859-3.995-10.307-1.068-2.835-.663-4.606 1.213-5.313 1.092-.41 1.966-.406 2.683-.102-.871-.925-2.041-1.286-3.731-.65-1.877.707-2.282 2.478-1.214 5.313 1.298 3.448 2.647 6.878 3.995 10.307.822 2.09 1.644 4.181 2.455 6.276-1.822.686-3.568 1.549-5.314 2.411-1.746.863-3.493 1.726-5.316 2.412a13.28 13.28 0 0 1-1.148.375ZM111.202 24.188c.136.346.276.69.418 1.035.318-.138.638-.286.96-.435 1.748-.81 3.554-1.646 5.502-1.11.198.049.386.113.563.192a3.211 3.211 0 0 0-1.611-.944c-1.948-.536-3.755.3-5.503 1.11l-.329.152Z" fill="#E4DDF3"/><path d="M111.202 24.188c.136.346.276.69.418 1.035.318-.138.638-.286.96-.435 1.748-.81 3.554-1.646 5.502-1.11.198.049.386.113.563.192a3.211 3.211 0 0 0-1.611-.944c-1.948-.536-3.755.3-5.503 1.11l-.329.152ZM111.105 41.863a2.744 2.744 0 0 1-.519-.863c-.478-1.27-.911-2.555-1.344-3.84a113.657 113.657 0 0 0-1.341-3.834c-.204.069-.431.152-.681.25.336.94.655 1.885.973 2.831.433 1.286.866 2.571 1.344 3.84.291.775.87 1.31 1.568 1.616Z" fill="#E4DDF3"/><path d="M111.105 41.863a2.744 2.744 0 0 1-.519-.863c-.478-1.27-.911-2.555-1.344-3.84a113.657 113.657 0 0 0-1.341-3.834c-.204.069-.431.152-.681.25.336.94.655 1.885.973 2.831.433 1.286.866 2.571 1.344 3.84.291.775.87 1.31 1.568 1.616Z" fill="#E4DDF3"/><path d="m45.73 20.537-.002.005c-2.994 6.868-3.22 15.458.865 22.031 3.123 5.038 9 8.237 14.889 8.237 6.832 0 11.916-4.81 14.164-10.884 2.28-5.947 2.387-12.63.522-18.69-1.103-3.642-2.888-6.587-5.44-8.62-2.557-2.037-5.843-3.126-9.886-3.126-7.097 0-12.38 4.958-15.112 11.047Zm21.912 18.961-.001.002c-1.534 2.664-3.781 3.974-6.799 3.974-3.41 0-6.374-1.748-8.075-4.734-1.146-2.132-1.729-4.67-1.729-7.63 0-4.014 1.159-7.47 3.364-10.783 1.788-2.378 4.328-3.95 7.272-3.95 2.86 0 4.93 1.172 6.287 3.527l.002.003c1.392 2.375 2.107 5.459 2.107 9.283 0 4.116-.819 7.544-2.428 10.308Z" fill="#F0B861" stroke="#000"/><path d="M76.969 30.22a29.02 29.02 0 0 0-1.279-8.838C73.525 14.237 68.74 9.99 60.842 9.99c-6.833 0-11.973 4.772-14.656 10.752-2.944 6.755-3.148 15.165.832 21.568 2.048 3.303 5.321 5.795 8.994 7.064C50.708 46.368 47 39.492 47 31.49c0-10.77 6.716-19.5 15-19.5 7.956 0 14.465 8.052 14.969 18.23Z" fill="#FCEDD8"/></svg>