<svg width="123" height="54" viewBox="0 0 123 54" fill="none" xmlns="http://www.w3.org/2000/svg"><path fill-rule="evenodd" clip-rule="evenodd" d="M19.036 10.05a3 3 0 0 1 3-3h45.875a3 3 0 0 1 3 3v1.322c0 .22-.196.385-.415.385H58.087a2.67 2.67 0 0 0 0 5.342h12.409c.219 0 .415.165.415.384v11.248a3 3 0 0 1-3 3H22.036a3 3 0 0 1-3-3 2.314 2.314 0 0 1 2.314-2.313h9.368a2.67 2.67 0 0 0 0-5.342H20.625a1.589 1.589 0 0 1-1.589-1.588v-1.904c0-.788 1.2-1.355 1.987-1.355H38.11a2.67 2.67 0 1 0 0-5.342H21.023c-.176 0-.347.017-.513.05-.595.116-1.474-.282-1.474-.888ZM54.687 27.44a2.67 2.67 0 0 1 0-5.341h12.409a2.67 2.67 0 0 1 0 5.341H54.687Z" fill="#EBE8F1"/><path fill-rule="evenodd" clip-rule="evenodd" d="M122.861 18.911a3 3 0 0 0-3-3H67.614a3 3 0 0 0-3 3v1.854c0 .246.22.432.466.432h13.933a2.999 2.999 0 0 1 0 5.998H65.08c-.245 0-.466.186-.466.432v12.998a3 3 0 0 0 3 3h52.247a3 3 0 0 0 3-3 2.967 2.967 0 0 0-2.967-2.966h-10.15a2.999 2.999 0 0 1 0-5.998h11.332c.986 0 1.785-.799 1.785-1.784V27.74c0-.885-1.347-1.522-2.231-1.522h-19.185a2.999 2.999 0 0 1 0-5.997h19.185c.071 0 .141.002.211.007.808.056 2.02-.507 2.02-1.317Zm-40.03 19.897a2.999 2.999 0 1 0 0-5.998H68.898a2.999 2.999 0 1 0 0 5.998h13.933Z" fill="#EBE8F1"/><path d="M22.008 30.732c-1.802.029-3.59.206-5.356.38l-.012.002c-1.943.193-3.856.382-5.776.382-.537 0-1.062-.033-1.575-.098a192.473 192.473 0 0 1 1.535-4.28l.173-.47c.657-1.787 1.314-3.595 1.899-5.421 1.168-3.65 2.052-7.396 2.052-11.247 0-.963-.657-1.595-1.347-1.958a4.895 4.895 0 0 0-2.16-.526c-1.488 0-3.073.743-3.494 2.426l-.002.008-.001.008a178.923 178.923 0 0 1-1.276 5.55c-.712 2.768-1.64 5.523-2.67 8.2l-.004.01-.004.012c-.215.644-.453 1.316-.698 2.003-.392 1.104-.798 2.249-1.144 3.386-.566 1.865-1 3.796-1 5.713 0 .696.195 1.321.598 1.853.397.526.975.93 1.693 1.232l.005.002c1.911.776 3.989.965 6.04.913 1.653-.041 3.32-.242 4.884-.43l1.096-.13c2.78-.3 4.807-.448 6.098-.451-.01 1.18-.051 2.361-.093 3.551v.003a115.021 115.021 0 0 0-.097 4.08c0 2.25 2.154 3.637 4.084 3.637 1.832 0 3.444-1.275 3.445-3.252v-.004l-.061-8.155c.883-.015 1.77.065 2.68.16l.359.038c.952.1 1.934.205 2.921.205.706 0 1.199-.505 1.53-1.16 1.019-1.797.773-4.198-1.05-5.445-1.074-.78-2.272-1.028-3.453-1.076-.806-.033-1.65.029-2.447.087a96.02 96.02 0 0 1-.494.036 70.975 70.975 0 0 1 .078-5.587c.063-1.162.143-2.331.224-3.505.176-2.542.352-5.106.352-7.658 0-1.374-.16-2.71-.784-3.713-.654-1.052-1.762-1.651-3.428-1.651-1.15 0-2.068.446-2.672 1.36-.581.877-.836 2.13-.836 3.684 0 3.687.054 7.38.107 11.067.03 2.078.06 4.155.08 6.229Z" fill="#704FE6" stroke="#373737"/><path d="M14.431 9.751c-.65-.47-1.596-.682-2.274-.682-1.35 0-2.662.665-3.008 2.048-.47 2.176-.896 4.032-1.28 5.568-.718 2.79-1.653 5.565-2.688 8.256-.222.665-.463 1.345-.708 2.035-1.022 2.875-2.108 5.932-2.108 8.909 0 .308.044.594.132.86-.566-.508-.849-1.152-.849-1.933 0-2.977 1.087-6.035 2.108-8.91.245-.69.487-1.369.708-2.034 1.035-2.691 1.97-5.466 2.688-8.256.384-1.536.811-3.392 1.28-5.568.346-1.383 1.659-2.048 3.008-2.048 1.068 0 2.799.523 2.991 1.755ZM9.659 31.942c-.108.312-.214.623-.318.935.725.128 1.472.192 2.24.192 1.948 0 3.887-.192 5.825-.384 1.938-.192 3.876-.384 5.823-.384-.02-2.246-.053-4.492-.085-6.738-.054-3.685-.107-7.37-.107-11.054 0-3.03 1.003-4.544 3.008-4.544 1.166 0 1.983.313 2.546.85-.489-1.173-1.456-1.923-3.263-1.923-2.005 0-3.008 1.514-3.008 4.544 0 3.684.054 7.37.107 11.054.032 2.246.065 4.492.085 6.738-1.947 0-3.884.192-5.822.384-1.939.192-3.877.384-5.826.384-.408 0-.81-.018-1.205-.054ZM29.09 30.993c.006.372.015.744.027 1.116.346-.017.698-.043 1.051-.07 1.921-.14 3.907-.286 5.54.902.17.115.322.241.46.378a3.214 3.214 0 0 0-1.176-1.451c-1.634-1.189-3.62-1.043-5.54-.901l-.362.026ZM22.77 47.5a2.76 2.76 0 0 1-.181-.991c0-1.356.048-2.712.096-4.067.048-1.354.096-2.708.096-4.061a15.51 15.51 0 0 0-.726-.005c-.016.997-.051 1.995-.087 2.992-.047 1.356-.096 2.711-.096 4.068 0 .827.353 1.532.898 2.064Z" fill="#DEC8FE"/><path d="M105.918 34.18c-1.801.029-3.59.206-5.355.38l-.013.002c-1.942.192-3.856.382-5.775.382-.538 0-1.063-.033-1.576-.098a192.367 192.367 0 0 1 1.535-4.28l.173-.47c.657-1.788 1.315-3.596 1.899-5.421 1.168-3.65 2.053-7.397 2.053-11.248 0-.963-.658-1.594-1.347-1.957a4.896 4.896 0 0 0-2.161-.527c-1.488 0-3.073.744-3.493 2.427l-.002.008-.002.008a178.784 178.784 0 0 1-1.276 5.55c-.712 2.767-1.64 5.523-2.67 8.2l-.004.01-.004.011c-.215.645-.453 1.317-.697 2.004-.392 1.104-.799 2.249-1.145 3.386-.566 1.864-1 3.795-1 5.713 0 .695.195 1.321.598 1.853.398.526.975.93 1.693 1.232l.005.002c1.911.776 3.989.965 6.04.913 1.653-.042 3.32-.242 4.884-.43.372-.045.738-.089 1.096-.13 2.78-.3 4.807-.449 6.099-.452-.01 1.18-.052 2.362-.094 3.552v.003a115.017 115.017 0 0 0-.096 4.08c0 2.25 2.153 3.636 4.084 3.636 1.832 0 3.444-1.274 3.444-3.252v-.003l-.061-8.155c.883-.015 1.77.065 2.681.16l.358.038c.952.1 1.934.204 2.922.204.705 0 1.198-.504 1.529-1.16 1.019-1.796.773-4.197-1.049-5.444-1.075-.78-2.273-1.028-3.453-1.077-.807-.032-1.65.03-2.448.088l-.494.035a70.828 70.828 0 0 1 .078-5.587c.063-1.161.143-2.33.224-3.504.176-2.542.353-5.106.353-7.659 0-1.373-.161-2.71-.784-3.712-.655-1.053-1.762-1.652-3.428-1.652-1.15 0-2.069.447-2.673 1.36-.581.878-.835 2.13-.835 3.685 0 3.687.053 7.38.106 11.067.03 2.078.06 4.155.081 6.229Z" fill="#704FE6" stroke="#373737"/><path d="M98.341 13.199c-.649-.47-1.596-.682-2.274-.682-1.35 0-2.662.665-3.008 2.048-.47 2.176-.896 4.032-1.28 5.568-.718 2.79-1.653 5.565-2.688 8.256-.222.665-.463 1.344-.708 2.034-1.022 2.875-2.108 5.933-2.108 8.91 0 .308.044.594.132.86-.566-.508-.848-1.152-.848-1.933 0-2.978 1.086-6.035 2.107-8.91.246-.69.487-1.37.709-2.035 1.034-2.69 1.97-5.465 2.688-8.256.384-1.536.81-3.392 1.28-5.568.345-1.382 1.658-2.047 3.008-2.047 1.067 0 2.798.523 2.99 1.755ZM93.569 35.39c-.108.311-.214.623-.318.935.725.128 1.472.192 2.24.192 1.948 0 3.887-.192 5.825-.384 1.938-.192 3.876-.384 5.823-.384-.02-2.246-.053-4.492-.085-6.738-.054-3.685-.107-7.37-.107-11.054 0-3.03 1.003-4.544 3.008-4.544 1.166 0 1.983.313 2.547.85-.49-1.173-1.457-1.924-3.263-1.924-2.006 0-3.008 1.515-3.008 4.545 0 3.684.053 7.369.106 11.054.033 2.246.065 4.492.086 6.738-1.947 0-3.885.191-5.823.383-1.939.192-3.877.385-5.825.385-.408 0-.81-.019-1.206-.055ZM113 34.44c.006.372.015.744.027 1.117.347-.018.698-.043 1.052-.07 1.921-.14 3.906-.287 5.54.902.168.114.321.24.459.377a3.215 3.215 0 0 0-1.175-1.45c-1.635-1.189-3.62-1.043-5.541-.902l-.362.027ZM106.68 50.948a2.775 2.775 0 0 1-.181-.991c0-1.357.048-2.712.096-4.068.048-1.354.096-2.707.096-4.06a15.48 15.48 0 0 0-.725-.005c-.017.997-.052 1.994-.087 2.992-.048 1.355-.096 2.711-.096 4.067 0 .827.353 1.533.897 2.065Z" fill="#DEC8FE"/><path d="m46.703 12.53-.002.005c-2.993 6.868-3.22 15.457.866 22.03 3.123 5.039 9 8.237 14.889 8.237 6.832 0 11.916-4.809 14.164-10.883 2.28-5.948 2.386-12.63.522-18.69-1.104-3.643-2.888-6.588-5.441-8.621-2.557-2.037-5.843-3.126-9.885-3.126-7.098 0-12.38 4.959-15.113 11.048Zm21.912 18.96v.003c-1.534 2.664-3.782 3.973-6.8 3.973-3.409 0-6.373-1.747-8.074-4.734-1.146-2.131-1.73-4.669-1.73-7.63 0-4.014 1.16-7.47 3.365-10.783 1.788-2.378 4.328-3.949 7.272-3.949 2.86 0 4.93 1.172 6.286 3.526l.002.003c1.393 2.376 2.108 5.46 2.108 9.283 0 4.116-.82 7.544-2.428 10.309Z" fill="#DEC8FE" stroke="#373737"/><path d="M77.942 22.212c.034-2.987-.4-5.982-1.278-8.838-2.165-7.145-6.95-11.392-14.848-11.392-6.834 0-11.973 4.773-14.656 10.752-2.945 6.755-3.148 15.166.832 21.568 2.048 3.303 5.32 5.796 8.993 7.065-5.304-3.006-9.011-9.882-9.011-17.885 0-10.77 6.715-19.5 15-19.5 7.956 0 14.465 8.053 14.968 18.23Z" fill="#F2EAFE"/></svg>