<svg width="326" height="166" fill="none" xmlns="http://www.w3.org/2000/svg"><path d="M324.459 165.543c0-88.14-73.679-161.82-161.82-161.82C74.576 3.723.819 77.48.819 165.543h323.64Z" fill="#F1F7FE"/><circle cx="102.154" cy="97.617" r="58.584" fill="#FEEF79"/><path d="M28.692 142.483v22.744h270.31l-.995-15.66-71.834-71.585-21.873 21.5-37.905-37.035-60.898 59.903-27.963-27.342-48.842 47.475Z" fill="#fff"/><path d="M166.892 124.994V62.82l37.573 36.35-12.973 12.851 34.636 34.514V77.996l72.822 73.434v13.953h-99.258L181.7 150.084v-11.26l-14.808-13.83ZM77.548 135.026V95.34l53.366 52.615v17.588H88.371v-13.68l-10.823-16.837Z" fill="#EFE4FF"/><path fill-rule="evenodd" clip-rule="evenodd" d="m166.442 60.28 37.872 37.871 21.62-21.62 71.649 71.648c.684.684-.377 1.745-1.061 1.061l-70.588-70.588-33.714 33.714c-.684.684-1.744-.377-1.06-1.06l12.093-12.094L166.442 62.4l-59.883 59.882 18.877 18.878c.684.684-.376 1.744-1.06 1.06L77.348 95.194l-44.984 44.984c-.684.684-1.745-.376-1.06-1.06l46.045-46.045 28.15 28.15 60.943-60.944Zm7.931 24.617 8.125 8.126c.684.684-.376 1.744-1.06 1.06l-8.126-8.126c-.684-.683.377-1.744 1.061-1.06Zm14.423 9.424a.75.75 0 0 1 1.061 0l3.845 3.845c.684.684-.376 1.745-1.06 1.06l-3.846-3.844a.752.752 0 0 1 0-1.061Zm48.987 10.455 10.955 10.955c.684.684-.377 1.745-1.061 1.061l-10.955-10.955c-.684-.684.377-1.745 1.061-1.061Zm3.917 17.848 11.173 11.172c.684.684-.376 1.745-1.06 1.061l-11.173-11.173c-.684-.684.376-1.744 1.06-1.06Zm-146.98.865 7.417 7.417c.684.684-.376 1.745-1.06 1.061l-7.418-7.417c-.684-.684.377-1.745 1.061-1.061Zm101.718 12.91 6.82 6.82c.684.684-.377 1.744-1.061 1.06l-6.819-6.82c-.684-.683.376-1.744 1.06-1.06Zm-94.839.516 4.994 4.994c.684.684-.376 1.744-1.06 1.061l-4.994-4.995c-.684-.683.376-1.744 1.06-1.06ZM1.169 164.484H199.09c.968 0 .968 1.5 0 1.5H1.17c-.967 0-.967-1.5 0-1.5Zm222.879 0h100.411c.967 0 .967 1.5 0 1.5H224.048c-.967 0-.967-1.5 0-1.5Z" fill="#373737"/><path d="m28.477 128.235 8.74 27.436s-1.976 4.256-8.588 4.256l-.152-.001c-6.49-.065-8.436-4.255-8.436-4.255l8.436-27.436Z" fill="#EDFFBE"/><path d="M28.477 165.095v-8.816m0-5.7v5.7m-3.04-3.344 3.04 3.344m-8.436-.608 8.436-27.436 8.74 27.436s-1.976 4.256-8.588 4.256c-6.612 0-8.588-4.256-8.588-4.256Z" stroke="#373737" stroke-width="1.5" stroke-linecap="round" stroke-linejoin="round"/><path d="m127.223 128.899 8.582 26.941s-1.94 4.18-8.433 4.18l-.149-.001c-6.374-.063-8.285-4.179-8.285-4.179l8.285-26.941Z" fill="#EDFFBE"/><path d="M127.223 165.095v-8.658m0-5.597v5.597m-2.986-3.283 2.986 3.283m-8.285-.597 8.285-26.941 8.582 26.941s-1.94 4.18-8.433 4.18-8.434-4.18-8.434-4.18Z" stroke="#373737" stroke-width="1.5" stroke-linecap="round" stroke-linejoin="round"/><path d="m298.883 132.984 7.614 23.901s-1.721 3.707-7.481 3.707h-.133c-5.654-.056-7.349-3.707-7.349-3.707l7.349-23.901Z" fill="#EDFFBE"/><path d="M298.883 165.095v-7.681m0-4.965v4.965m-2.648-2.913 2.648 2.913m-7.349-.529 7.349-23.901 7.614 23.901s-1.721 3.707-7.481 3.707c-5.761 0-7.482-3.707-7.482-3.707Z" stroke="#373737" stroke-width="1.5" stroke-linecap="round" stroke-linejoin="round"/><path d="m159.708 114.543 11.758 38.913s-2.69 4.718-11.758 4.718-12.322-4.718-12.322-4.718l12.322-38.913Z" fill="#EDFFBE"/><path d="M159.708 165.095v-10.268m0-9.64v5.965m-4.093-.329 4.093 4.004m0 0v-3.675m0 0 3.148-2.798m-15.47 5.102 12.322-38.913 11.758 38.913s-2.69 4.718-11.758 4.718-12.322-4.718-12.322-4.718Z" stroke="#373737" stroke-width="1.5" stroke-linecap="round" stroke-linejoin="round"/><path d="m182.733 129.184 8.514 26.729s-1.925 4.147-8.367 4.147l-.147-.001c-6.324-.063-8.219-4.146-8.219-4.146l8.219-26.729Z" fill="#EDFFBE"/><path d="M182.733 165.095v-8.589m0-5.553v5.553m-2.962-3.258 2.962 3.258m-8.219-.593 8.219-26.729 8.514 26.729s-1.925 4.147-8.367 4.147c-6.442 0-8.366-4.147-8.366-4.147Z" stroke="#373737" stroke-width="1.5" stroke-linecap="round" stroke-linejoin="round"/><path d="m87.156 123.116 9.953 31.246s-2.25 4.847-9.78 4.847l-.173-.001c-7.393-.073-9.608-4.846-9.608-4.846l9.608-31.246Z" fill="#EDFFBE"/><path d="M87.156 165.095v-10.041m0-6.491v3.246m-3.463-.563 3.463 3.808m0 0v-3.245m0 0 2.77-3.246m-12.378 5.799 9.608-31.246 9.953 31.246s-2.25 4.847-9.78 4.847c-7.531 0-9.781-4.847-9.781-4.847Z" stroke="#373737" stroke-width="1.5" stroke-linecap="round" stroke-linejoin="round"/><path d="m270.943 113.287 12.881 40.674s-3.587 5.773-12.881 5.773-12.212-5.773-12.212-5.773l12.212-40.674Z" fill="#EDFFBE"/><path d="M270.943 165.095v-10.777m0-9.626v6.144m-4.058-.952 4.058 4.434m0 0v-3.482m0 0 4.78-4.821m-16.992 7.946 12.212-40.674 12.881 40.674s-3.587 5.773-12.881 5.773-12.212-5.773-12.212-5.773Z" stroke="#373737" stroke-width="1.5" stroke-linecap="round" stroke-linejoin="round"/><path fill-rule="evenodd" clip-rule="evenodd" d="M183.682 39.4a.75.75 0 0 1 .75-.75h11.417a.75.75 0 0 1 0 1.5h-11.417a.75.75 0 0 1-.75-.75Zm16.118 0a.75.75 0 0 1 .75-.75h4.868a.75.75 0 1 1 0 1.5h-4.868a.75.75 0 0 1-.75-.75ZM61.253 54.547a.75.75 0 0 1 .75-.75h11.632a.75.75 0 0 1 0 1.5H62.003a.75.75 0 0 1-.75-.75Zm-7.334 6.497a.75.75 0 0 1 .75-.75h9.22a.75.75 0 0 1 0 1.5h-9.22a.75.75 0 0 1-.75-.75Zm86.408 6.897a.75.75 0 0 1 .75-.75h12.61a.75.75 0 0 1 0 1.5h-12.61a.75.75 0 0 1-.75-.75Zm147.781 6.211a.75.75 0 0 1 .75-.75h11.752a.75.75 0 0 1 0 1.5h-11.752a.75.75 0 0 1-.75-.75Zm17.964 0a.75.75 0 0 1 .75-.75h8.059a.75.75 0 0 1 0 1.5h-8.059a.75.75 0 0 1-.75-.75ZM48.365 108.401a.75.75 0 0 1 .75-.75h7.867a.75.75 0 0 1 0 1.5h-7.867a.75.75 0 0 1-.75-.75Z" fill="#373737"/><path d="m57.683 98.114-.738.06-.07-.736a6.874 6.874 0 0 0-13.187-1.984l-.217.52-.56-.064c-2.362-.269-4.527 1.648-4.527 4.036a4.062 4.062 0 0 0 4.03 4.062H57.931a2.952 2.952 0 0 0 2.952-2.952c0-1.698-1.511-3.082-3.2-2.942ZM130.042 56.939l.738.06.07-.736a8.585 8.585 0 0 1 16.468-2.478l.217.52.56-.064c2.992-.34 5.73 2.084 5.73 5.108a5.142 5.142 0 0 1-5.102 5.142H129.725a3.783 3.783 0 0 1-3.783-3.783c0-2.177 1.935-3.948 4.1-3.77ZM286.392 61.673l.738.06.07-.736a8.19 8.19 0 0 1 15.71-2.364l.217.52.56-.063c2.847-.324 5.453 1.983 5.453 4.86 0 2.69-2.17 4.872-4.855 4.892H286.091a3.591 3.591 0 0 1-3.591-3.59c0-2.067 1.837-3.75 3.892-3.58ZM200.866 24.832l-.738.06-.07-.736c-.543-5.683-5.331-10.129-11.157-10.129-4.659 0-8.656 2.844-10.347 6.893l-.217.52-.56-.063c-3.957-.45-7.576 2.752-7.576 6.754a6.798 6.798 0 0 0 6.746 6.798H201.289a5.058 5.058 0 0 0 5.058-5.057c0-2.914-2.585-5.28-5.481-5.04Z" fill="#fff" stroke="#373737" stroke-width="1.5"/><path d="M278.31 25.533c0 11.906-19.745 34.83-19.745 34.83h-13.628s-18.681-22.57-18.681-34.83c0-14.574 11.217-25.35 25.791-25.35s26.263 10.776 26.263 25.35Z" fill="#fff"/><path d="M270.294 25.66c0-9.268-3.306-17.859-14.108-23.78 11.622 0 20.88 12.316 20.88 23.78 0 9.209-12.175 25.882-19.131 34.199l-.554 13.215h-3.077l.001-13.364c11.623-12.553 15.989-28.764 15.989-34.05Z" fill="#EFE4FF"/><path d="M265.912 17.338c-.77-3.078-3.227-5.86-5.974-7.387-.846-.47-1.574.842-.729 1.311 2.386 1.326 4.578 3.763 5.248 6.44.234.938 1.689.575 1.455-.364Z" fill="#373737"/><path fill-rule="evenodd" clip-rule="evenodd" d="M244.82 60.22v10.838a3 3 0 0 0 3 3h7.933a3 3 0 0 0 3-3V60.142c2.017-2.379 19.557-23.387 19.557-34.61 0-14.573-11.689-25.349-26.263-25.349-14.574 0-25.791 10.776-25.791 25.35 0 11.692 16.989 32.76 18.564 34.688Zm-14.767-25.796c-1.254-2.93-2.344-6.081-2.294-9.307h49.048c.053 3.244-1.163 6.404-2.498 9.307h-44.256Zm-2.228-10.807h48.913c-.969-12.7-11.528-21.934-24.691-21.934-13.13 0-23.292 9.205-24.222 21.934Zm2.899 12.307h42.866c-4.123 8.272-9.789 15.876-15.721 22.939h-12.218c-5.694-7.07-11.088-14.692-14.927-22.939Zm26.529 24.907H246.32v2.02h10.933v-2.02Zm-10.933 6.147V64.35h10.933v2.627H246.32Zm0 1.5h10.933v2.58a1.5 1.5 0 0 1-1.5 1.5h-7.933a1.5 1.5 0 0 1-1.5-1.5v-2.58Z" fill="#373737"/></svg>