<svg width="476" height="113" viewBox="0 0 476 113" fill="none" xmlns="http://www.w3.org/2000/svg">
<path d="M433.149 88.957C458.558 90.6519 438.538 98.2694 472.551 106.806L457.01 107.548L6.83984 106.557C9.50329 102.564 21.5555 95.7575 23.947 90.5275C26.9364 83.99 21.6445 80.5454 33.0041 76.6713C44.3637 72.7972 29.9569 66.9193 40.7187 61.8348C51.4805 56.7502 60.6634 61.3173 74.5901 52.9784C81.936 48.5799 89.8166 38.7852 97.4648 34.9364C111.9 27.6722 109.708 36.7083 134.676 36.7083C174.523 36.7084 161.699 41.4431 169.472 49.9177C177.244 58.3922 178.257 46.5044 198.585 46.2622C218.913 46.0201 202.552 53.6339 210.251 56.75C222.814 61.8347 241.068 63.5297 266.787 63.5297C295.952 63.5297 300.829 74.6409 312.787 69.5562C324.744 64.4714 340.906 59.4134 369.306 70.3093C397.705 81.2051 407.739 87.2621 433.149 88.957Z" fill="#EFEEF3"/>
<path d="M449.781 102.869C462.236 107.986 467.985 100.321 476 112.976H459.084H0.602539C0.602539 107.576 14.1025 105.259 16.9877 103.363C21.4687 100.418 14.2261 100.017 25.5655 91.3775C36.905 82.7379 35.8135 87.1781 56.2922 82.7504C76.2712 78.4307 64.8753 75.9378 69.7351 64.0584C74.5948 52.179 88.76 60.6738 107.119 61.7537C125.478 62.8337 116.559 64.9206 124.659 73.0202C132.759 81.1198 140.884 76.0928 161.403 76.0928C181.922 76.0928 173.08 79.2597 184.96 87.3593C196.839 95.4589 191.498 86.0843 226.057 90.944C260.615 95.8038 253.465 91.3775 263.185 86.5177C268.281 83.9696 267.831 87.1291 273.171 86.5177C274.998 85.2985 277.831 79.9081 279.572 79.8056C281.749 79.6776 283.029 74.6845 287.51 75.7183C291.095 76.5452 291.607 81.0859 295.576 83.6465C310.427 82.8783 303.106 87.3593 320.925 87.3593C338.744 87.3593 343.078 95.0238 359.719 92.0573C371.014 90.0437 367.386 88.4414 382.833 89.6297C386.805 89.9352 396.819 93.0154 401.756 93.0154C406.693 93.0154 416.583 97.6861 425.948 97.6861C435.975 97.6861 446.254 92.411 455.05 96.0094C460.32 98.1652 448.101 102.179 449.781 102.869Z" fill="#E7E3EE"/>
<path d="M230.16 17.7334C231.364 16.1271 234.037 12.6455 236.578 14.5195C239.118 16.3936 236.712 29.1152 238.451 36.0786C240.19 43.042 245.937 44.248 245.937 44.248C245.937 44.248 244.2 12.1077 247.142 6.88565C250.083 1.66363 256.5 -1.68465 260.913 1.93094C265.325 5.54653 262.25 59.6479 262.25 59.6479C262.25 59.6479 268.802 56.5672 269.871 52.5505C270.94 48.5339 267.411 25.5799 269.871 23.7587C272.331 21.9375 278.026 26.0367 279.23 29.2499C280.435 32.463 279.23 43.5491 279.23 52.5505C279.23 64.7358 260.913 69.9591 260.913 69.8252C260.913 80.9667 259.486 96.0568 258.773 101.86H249.414C245.269 82.5763 245.536 52.8183 245.937 52.5505C245.937 52.5505 234.573 52.5505 231.096 40.4977C227.619 28.4449 229.462 18.6646 230.16 17.7334Z" fill="#B4A3D7"/>
<path d="M233.616 53.5072C232.955 52.6793 231.485 50.8848 230.088 51.8507C228.691 52.8167 230.014 59.3738 229.058 62.9629C228.102 66.552 224.942 67.1736 224.942 67.1736C224.942 67.1736 225.897 50.6076 224.28 47.916C222.663 45.2244 219.135 43.4986 216.709 45.3622C214.283 47.2258 215.974 75.1112 215.974 75.1112C215.974 75.1112 212.371 73.5233 211.784 71.453C211.196 69.3827 213.136 57.5516 211.784 56.6129C210.431 55.6742 207.3 57.787 206.638 59.4432C205.976 61.0993 206.638 66.8134 206.638 71.453C206.638 77.7336 216.709 80.4258 216.709 80.3568C216.709 86.0995 217.493 93.8773 217.885 96.8683H223.031C225.31 86.9291 225.163 71.591 224.942 71.453C224.942 71.453 231.19 71.453 233.102 65.2406C235.013 59.0283 234 53.9872 233.616 53.5072Z" fill="#B4A3D7"/>
<path d="M186.086 30.8046C185.622 30.243 184.59 29.0257 183.61 29.6809C182.63 30.3361 183.559 34.7841 182.888 37.2187C182.217 39.6534 179.999 40.075 179.999 40.075C179.999 40.075 180.67 28.8376 179.535 27.0118C178.4 25.186 175.924 24.0153 174.222 25.2795C172.52 26.5436 173.706 45.4594 173.706 45.4594C173.706 45.4594 171.178 44.3823 170.766 42.9779C170.353 41.5736 171.715 33.548 170.766 32.9113C169.817 32.2745 167.619 33.7077 167.155 34.8312C166.69 35.9546 167.155 39.8307 167.155 42.9779C167.155 47.2383 174.222 49.0646 174.222 49.0178C174.222 52.9133 174.772 58.1893 175.047 60.2182H178.658C180.257 53.476 180.154 43.0716 179.999 42.9779C179.999 42.9779 184.384 42.9779 185.725 38.7638C187.067 34.5497 186.356 31.1302 186.086 30.8046Z" fill="#C4B8DC"/>
<path d="M421.528 76.5845C421.3 76.3089 420.794 75.7115 420.313 76.0331C419.832 76.3547 420.288 78.5375 419.958 79.7323C419.629 80.9271 418.541 81.1341 418.541 81.1341C418.541 81.1341 418.87 75.6193 418.313 74.7232C417.756 73.8272 416.541 73.2527 415.706 73.8731C414.87 74.4935 415.452 83.7764 415.452 83.7764C415.452 83.7764 414.212 83.2478 414.009 82.5586C413.807 81.8695 414.475 77.9309 414.009 77.6184C413.544 77.3059 412.465 78.0093 412.237 78.5606C412.009 79.1119 412.237 81.0141 412.237 82.5586C412.237 84.6495 415.706 85.5457 415.706 85.5227C415.706 87.4344 415.976 90.0237 416.111 91.0193H417.883C418.667 87.7106 418.617 82.6046 418.541 82.5586C418.541 82.5586 420.693 82.5586 421.351 80.4906C422.009 78.4225 421.66 76.7443 421.528 76.5845Z" fill="#CFCADB"/>
<path d="M129.159 21.7543C128.931 21.4787 128.425 20.8813 127.944 21.2029C127.463 21.5245 127.919 23.7073 127.589 24.9021C127.26 26.0969 126.172 26.3039 126.172 26.3039C126.172 26.3039 126.501 20.7891 125.944 19.893C125.387 18.997 124.172 18.4225 123.336 19.0429C122.501 19.6633 123.083 28.9462 123.083 28.9462C123.083 28.9462 121.843 28.4176 121.64 27.7284C121.438 27.0393 122.106 23.1007 121.64 22.7882C121.175 22.4757 120.096 23.1791 119.868 23.7304C119.64 24.2817 119.868 26.1839 119.868 27.7284C119.868 29.8193 123.336 30.7155 123.336 30.6925C123.336 32.6042 123.606 35.1935 123.741 36.1891H125.514C126.298 32.8804 126.248 27.7744 126.172 27.7284C126.172 27.7284 128.323 27.7284 128.982 25.6604C129.64 23.5923 129.291 21.9141 129.159 21.7543Z" fill="#CFCADB"/>
<path d="M376.064 65.6814C378.794 60.4038 377.528 45.7701 376.548 45.5847C375.651 45.147 373.846 45.0937 373.803 48.3822C374.019 59.8009 373.054 63.3191 371.058 65.6814C369.547 67.4696 368.313 66.7091 367.937 65.6814C367.56 64.6537 367.883 51.1798 368.313 47.5259C368.658 44.6027 368.457 34.3754 368.313 29.827C368.313 28.8374 367.538 27.4862 365.945 27.4862C363.954 27.4862 363.792 30.1125 363.523 32.282C363.254 34.4516 362.985 40.3892 363.523 45.1279C364.061 49.8667 363.447 53.9774 362.985 53.9774C362.263 53.9774 360.758 52.9539 360.401 51.4082C359.639 39.2888 361.666 35.6466 358.571 35.308C356.884 35.1233 358.004 42.4177 357.764 46.3269C356.636 46.8282 355.697 45.7519 355.127 44.7854C353.62 42.2292 355.234 38.0484 353.62 38.2768C352.325 38.4599 352.59 43.7221 353.331 45.5847C353.953 47.1486 355.947 48.0861 357.382 48.5999C357.382 50.7695 357.71 55.6901 360.078 56.832C361.973 57.7455 362.895 59.9199 362.985 60.7383C362.985 65.9528 363.566 76.307 362.716 76.1294C359.885 76.0037 359.594 68.6502 358.033 68.5932C356.706 68.5446 357.178 71.6724 358.395 74.4976C359.612 77.3228 362.499 78.0599 363.033 80.9626L362.908 85.4862L367.937 85.2072L368.313 71.8475C369.82 71.3146 373.803 69.75 376.064 65.6814Z" fill="#C4B8DC"/>
<path d="M56.9747 59.0216C54.6887 58.0736 49.8749 55.845 48.9087 54.5148C48.8224 54.5148 52.5751 55.0836 56.1983 57.4027C56.1552 57.3152 51.7555 52.7646 50.3321 49.833C50.2892 49.92 55.8791 54.2059 58.231 57.3519C57.9013 56.7465 55.7937 50.8721 55.4229 47.305C55.4214 47.2993 55.4211 47.296 55.4219 47.2952C55.4223 47.2985 55.4226 47.3018 55.4229 47.305C55.4972 47.588 58.3844 53.753 59.0412 56.3316C58.7465 54.9344 57.2159 46.4332 57.9668 42.7446C58.01 42.8759 59.0452 53.2022 60.0804 56.3088C60.0373 56.3088 60.5549 50.2705 61.892 47.2952C61.547 49.6288 60.8913 54.7424 61.0294 56.5276C60.9862 56.5276 63.0567 51.8458 65.084 50.0518C65.042 50.0944 63.5292 55.1101 62.3349 56.7904C62.9701 56.1154 66.4833 53.0792 67.8014 52.7646C67.5857 52.8521 64.135 57.1402 62.2371 57.9278C62.2371 57.9715 66.1623 56.7464 67.8014 55.3899C66.8287 56.4536 64.8547 58.4518 63.8749 58.9211C64.5876 58.7213 66.3066 58.2212 68.1465 57.4027C67.2982 58.1757 65.2651 59.7917 63.9193 60.0718C62.5736 60.3518 58.7289 60.3926 56.9747 60.3781C54.8612 59.9259 50.4615 58.8904 49.7713 58.3653C50.3321 58.4966 53.3946 59.0216 56.9747 59.0216Z" fill="#CDC4E1"/>
<path d="M146.517 78.0074C151.737 74.0032 160.524 73.2668 161.701 71.3444C161.714 71.3437 161.716 71.3397 161.708 71.3319C161.706 71.3361 161.703 71.3402 161.701 71.3444C161.485 71.3561 158.378 70.4119 156.55 71.6868C154.615 73.0362 148.81 74.8827 147.162 75.0958C147.52 74.9537 157.697 68.8461 157.697 67.4258C159.273 65.2243 149.527 72.2551 147.162 72.7522C147.162 69.9824 150.674 68.6331 151.821 67.0707C152.967 65.5083 154.256 64.4431 155.617 64.017C156.979 63.5909 151.82 63.3068 148.667 66.5736C146.144 69.187 144.415 69.1776 143.866 68.8461C147.413 65.9214 146.711 64.161 148.215 63.0247C149.72 61.8884 152.68 57.4908 152.68 56.9826C152.68 55.5446 147.622 60.1239 141.931 67.4258C141.429 68.8461 144.511 57.83 143.866 56.9826C143.221 56.1352 139.517 59.1174 138.706 67.4258C137.488 69.6984 135.625 61.1021 135.625 51.2408C132.988 49.8958 131.331 62.2152 133.822 67.8003C132.317 67.8713 130.693 66.0018 129.003 58.4353C125.776 59.9858 129.441 67.4258 131.039 70.9767C132.596 74.4363 126.563 67.8519 121.431 64.017C121.431 71.3319 127.671 71.8998 128.388 74.0304C128.961 75.7349 118.821 70.1011 118.553 72.0798C124.623 76.6074 126.625 76.2604 127.599 77.2262C128.574 78.192 140.617 78.7649 146.517 78.0074Z" fill="#B4A3D7"/>
<path d="M311.718 71.5741C315.211 70.1518 322.566 66.8089 324.045 64.8126C324.05 64.8114 324.05 64.8109 324.047 64.8109C324.046 64.8115 324.046 64.812 324.045 64.8126C323.886 64.8561 318.301 65.7532 312.905 69.1446C312.97 69.0135 319.675 62.2054 321.861 57.8053C321.869 57.7949 321.873 57.7881 321.871 57.785C321.868 57.7917 321.864 57.7985 321.861 57.8053C321.528 58.2245 313.306 64.4611 309.798 69.0684C310.302 68.1599 313.523 59.3444 314.09 53.9914C314.092 53.9828 314.093 53.9779 314.091 53.9766C314.091 53.9815 314.09 53.9864 314.09 53.9914C313.976 54.416 309.563 63.6677 308.559 67.5373C309.01 65.4405 311.349 52.683 310.202 47.1477C310.136 47.3446 308.555 62.824 306.974 67.4954C307.01 67.1984 306.211 58.3662 304.202 53.9766C304.729 57.4786 305.732 65.1524 305.521 67.8314C305.587 67.8314 302.422 60.8055 299.323 58.1133C299.387 58.1772 301.7 65.7043 303.525 68.2258C302.554 67.2129 297.184 62.6565 295.17 62.1844C295.499 62.3157 300.774 68.7507 303.675 69.9326C303.675 69.9983 297.675 68.1597 295.17 66.1242C296.657 67.7203 299.674 70.719 301.171 71.4233C300.082 71.1234 297.454 70.373 294.642 69.1446C295.939 70.3047 299.046 72.7298 301.103 73.1501C303.16 73.5703 309.037 73.6316 311.718 73.6097C314.948 72.9312 321.673 71.3772 322.728 70.5892C321.871 70.7862 317.19 71.5741 311.718 71.5741Z" fill="#D0C7E4"/>
</svg>
