<svg width="98" height="70" viewBox="0 0 98 70" fill="none" xmlns="http://www.w3.org/2000/svg">
<rect x="63.5254" y="0.30835" width="5.79883" height="9.95746" rx="2.89941" fill="#275FA0"/>
<rect x="64.0254" y="0.80835" width="4.79883" height="8.95746" rx="2.39941" stroke="#2A317B"/>
<rect x="5.61914" y="6.87891" width="92.2656" height="62.5908" rx="8" fill="#F6F6F6"/>
<path fill-rule="evenodd" clip-rule="evenodd" d="M6.78711 65.6349C8.19238 67.9355 10.7266 69.4698 13.6191 69.4698H89.8848C94.3027 69.4698 97.8848 65.8881 97.8848 61.4698V14.879C97.8848 12.0118 96.377 9.49835 94.1104 8.08594C94.8516 9.29889 95.2783 10.7244 95.2783 12.2497V58.8405C95.2783 63.2588 91.6963 66.8405 87.2783 66.8405H11.0127C9.46191 66.8405 8.01367 66.3991 6.78711 65.6349Z" fill="#D9D9E5"/>
<rect x="6.11914" y="7.37891" width="91.2656" height="61.5908" rx="7.5" stroke="#29307A"/>
<path fill-rule="evenodd" clip-rule="evenodd" d="M76.0469 26.3903C76.0469 24.7335 74.7037 23.3903 73.0469 23.3903H30.4575C28.8006 23.3903 27.4575 24.7335 27.4575 26.3903V28.1107C27.4575 28.6501 28.0048 29.03 28.5442 29.03V29.03H38.7714C40.5384 29.03 41.9708 30.4624 41.9708 32.2293C41.9708 33.9963 40.5384 35.4287 38.7714 35.4287H28.5442V35.4287C28.0048 35.4287 27.4575 35.8086 27.4575 36.348V49.9583C27.4575 51.6151 28.8006 52.9583 30.4575 52.9583H73.0469C74.7037 52.9583 76.0469 51.6151 76.0469 49.9583V49.9583C76.0469 48.0994 74.54 46.5926 72.6812 46.5926H65.8028C64.0359 46.5926 62.6035 45.1602 62.6035 43.3933C62.6035 41.6263 64.0359 40.1939 65.8028 40.1939H74.2731C75.2527 40.1939 76.0469 39.3998 76.0469 38.4201V36.074C76.0469 35.1228 74.4391 34.3869 73.4878 34.3869V34.3869H58.8798C57.1129 34.3869 55.6805 32.9545 55.6805 31.1875C55.6805 29.4206 57.1129 27.9882 58.8798 27.9882H73.4878C73.5177 27.9882 73.5475 27.9886 73.5771 27.9894C74.4994 28.0147 76.0469 27.313 76.0469 26.3903V26.3903ZM41.956 47.8184C43.7229 47.8184 45.1553 46.386 45.1553 44.6191C45.1553 42.8522 43.7229 41.4198 41.956 41.4198H31.7287C29.9618 41.4198 28.5294 42.8522 28.5294 44.6191C28.5294 46.386 29.9618 47.8184 31.7287 47.8184H41.956Z" fill="#EBE8F1"/>
<rect x="0.634766" y="25.1854" width="38.0068" height="28.8254" rx="4" fill="#9579CD"/>
<path fill-rule="evenodd" clip-rule="evenodd" d="M4.01855 25.624C2.3617 25.624 1.01855 26.9672 1.01855 28.624V50.2848C1.01855 51.7096 2.01175 52.9023 3.34356 53.2086C3.10426 52.7777 2.96798 52.2818 2.96798 51.754V30.3913C2.96798 28.7344 4.31112 27.3913 5.96798 27.3913H36.0462C36.5093 27.3913 36.9478 27.4962 37.3394 27.6836C36.9449 26.4874 35.8181 25.624 34.4898 25.624H4.01855Z" fill="#E4DDF3"/>
<rect x="1.13477" y="25.6854" width="37.0068" height="27.8254" rx="3.5" stroke="#2A317B"/>
<rect x="5.07422" y="31.9819" width="30.2422" height="2.60016" rx="1.30008" fill="white"/>
<circle cx="32.8564" cy="48.2229" r="2.32715" fill="#F0B862"/>
<circle cx="30.1123" cy="48.2229" r="2.32715" fill="#FFD6A0"/>
<circle cx="30.1123" cy="48.2229" r="1.9" stroke="#29317A" stroke-width="0.854297"/>
<circle cx="32.8564" cy="48.2229" r="1.9" stroke="#29317A" stroke-width="0.854297"/>
<path d="M88.878 2.2417L68.8652 2.2417C68.8653 3.67623 68.8656 4.57227 68.8656 6.16026V38.3654L71.2293 36.7778L73.593 38.3654L75.8779 36.7778L78.3204 38.3654L80.6053 36.7778L82.7327 38.3654L85.0964 36.7778L87.6177 38.3654L89.9814 36.7778L92.4239 38.3654V5.70664C92.4239 1.84908 92.4239 2.24169 88.878 2.2417Z" fill="#9579CD"/>
<path fill-rule="evenodd" clip-rule="evenodd" d="M67.6895 1.21777H88.8779C90.0599 1.13571 92.4238 1.73345 92.4238 4.78093V38.3655L92.4235 38.3652V6.66421C92.4235 4.5396 92.4235 3.62904 91.9737 3.24471C91.5563 2.88801 90.7515 2.98462 89.1998 2.98462H71.0059C71.0059 3.62158 71.0059 4.15857 71.006 4.6911C71.0061 5.4322 71.0062 6.16467 71.0062 7.14593V36.887L68.8655 38.3655V5.24741C68.8655 5.2132 68.8655 5.17915 68.8656 5.14525C68.8661 3.56139 68.8665 2.32395 67.6895 1.21777Z" fill="#E4DCF1"/>
<path d="M88.8779 0.809405H67.6895C68.8917 1.95167 68.8655 3.23237 68.8655 4.88333V38.3654L71.2292 36.7149L73.593 38.3654L75.8779 36.7149L78.3204 38.3654L80.6053 36.7149L82.7326 38.3654L85.0964 36.7149L87.6176 38.3654L89.9814 36.7149L92.4239 38.3654V4.41172C92.4239 1.33074 90.0599 0.726436 88.8779 0.809405Z" stroke="#2B307B"/>
<rect x="74.624" y="10.2657" width="8.93457" height="0.989258" rx="0.494629" fill="white"/>
<rect x="74.624" y="14.1407" width="14.2676" height="0.989258" rx="0.494629" fill="white"/>
<rect x="74.624" y="18.016" width="14.2676" height="0.989258" rx="0.494629" fill="white"/>
<rect x="74.624" y="21.8912" width="14.2676" height="0.989258" rx="0.494629" fill="white"/>
<path fill-rule="evenodd" clip-rule="evenodd" d="M84.0971 64.2326C89.1606 64.2326 93.2654 60.1278 93.2654 55.0642C93.2654 50.0007 89.1606 45.8959 84.0971 45.8959C79.0335 45.8959 74.9287 50.0007 74.9287 55.0642C74.9287 60.1278 79.0335 64.2326 84.0971 64.2326ZM84.0967 58.1102C85.7789 58.1102 87.1426 56.7465 87.1426 55.0643C87.1426 53.3821 85.7789 52.0184 84.0967 52.0184C82.4145 52.0184 81.0508 53.3821 81.0508 55.0643C81.0508 56.7465 82.4145 58.1102 84.0967 58.1102Z" fill="#F0B861"/>
<path fill-rule="evenodd" clip-rule="evenodd" d="M93.2353 55.8136C93.2553 55.5664 93.2654 55.3165 93.2654 55.0642C93.2654 50.0007 89.1606 45.8959 84.0971 45.8959C79.0335 45.8959 74.9287 50.0007 74.9287 55.0642C74.9287 58.9969 77.4048 62.3513 80.883 63.6534C78.4306 62.2256 76.7822 59.5683 76.7822 56.526C76.7822 51.9742 80.4722 48.2843 85.0239 48.2843C89.3357 48.2843 92.8741 51.5953 93.2353 55.8136Z" fill="#FCEDD8"/>
<circle cx="84.0971" cy="55.0642" r="8.66837" stroke="#29307A"/>
<circle cx="84.0968" cy="55.0643" r="2.75009" stroke="#29307A"/>
<rect x="83.6924" y="48.8711" width="0.806641" height="2.65277" rx="0.40332" fill="#2A317B"/>
<rect x="87.5654" y="55.5388" width="0.806641" height="2.65277" rx="0.40332" transform="rotate(-90 87.5654 55.5388)" fill="#2A317B"/>
<rect x="77.9746" y="55.5388" width="0.806641" height="2.65277" rx="0.40332" transform="rotate(-90 77.9746 55.5388)" fill="#2A317B"/>
<rect x="83.6924" y="58.6047" width="0.806641" height="2.65277" rx="0.40332" fill="#2A317B"/>
</svg>
