<svg width="106" height="79" viewBox="0 0 106 79" fill="none" xmlns="http://www.w3.org/2000/svg"><rect x="67.766" y="10.339" width="4.799" height="8.957" rx="2.399" fill="#704FE6" stroke="#373737"/><rect x="67.766" y="10.339" width="4.799" height="8.957" rx="2.399" fill="#704FE6" stroke="#373737"/><rect x="9.359" y="16.409" width="92.266" height="62.591" rx="8" fill="#F8F8F8"/><path fill-rule="evenodd" clip-rule="evenodd" d="M10.528 75.166A7.995 7.995 0 0 0 17.36 79h76.265a8 8 0 0 0 8-8V24.41a7.994 7.994 0 0 0-3.775-6.795 7.962 7.962 0 0 1 1.169 4.165v46.591a8 8 0 0 1-8 8H14.753a7.963 7.963 0 0 1-4.225-1.205Z" fill="#EBE8F1"/><rect x="9.859" y="16.909" width="91.266" height="61.591" rx="7.5" stroke="#373737"/><path fill-rule="evenodd" clip-rule="evenodd" d="M79.787 35.92a3 3 0 0 0-3-3h-42.59a3 3 0 0 0-3 3v1.721c0 .54.548.92 1.087.92h10.228a3.2 3.2 0 0 1 0 6.398H32.284c-.539 0-1.086.38-1.086.92v13.61a3 3 0 0 0 3 3h42.59a3 3 0 0 0 3-3 3.366 3.366 0 0 0-3.367-3.366h-6.878a3.2 3.2 0 1 1 0-6.398h8.47c.98 0 1.774-.795 1.774-1.774v-2.346c0-.952-1.608-1.688-2.559-1.688H62.62a3.2 3.2 0 0 1 0-6.398h14.698c.922.026 2.47-.675 2.47-1.598ZM45.697 57.35a3.2 3.2 0 1 0 0-6.399H35.468a3.2 3.2 0 1 0 0 6.399h10.227Z" fill="#EBE8F1"/><rect x="4.375" y="34.716" width="38.007" height="28.825" rx="4" fill="#704FE6"/><path fill-rule="evenodd" clip-rule="evenodd" d="M7.759 35.154a3 3 0 0 0-3 3v21.661c0 1.425.993 2.618 2.325 2.924a2.987 2.987 0 0 1-.376-1.454V39.922a3 3 0 0 1 3-3h30.078c.463 0 .902.105 1.294.292a3.001 3.001 0 0 0-2.85-2.06H7.759Z" fill="#DEC8FE"/><rect x="4.875" y="35.216" width="37.007" height="27.825" rx="3.5" stroke="#373737"/><rect x="8.814" y="41.513" width="30.242" height="2.6" rx="1.3" fill="#fff"/><circle cx="36.597" cy="57.753" r="2.327" fill="#FFC8FF"/><circle cx="33.852" cy="57.753" r="2.327" fill="#FFC8FF"/><circle cx="33.852" cy="57.753" r="1.9" stroke="#373737" stroke-width=".854"/><circle cx="36.597" cy="57.753" r="1.9" stroke="#373737" stroke-width=".854"/><path d="M92.618 11.772H72.606V47.896l2.364-1.588 2.363 1.588 2.285-1.588 2.443 1.588 2.285-1.588 2.127 1.588 2.364-1.588 2.52 1.588 2.365-1.588 2.442 1.588V15.237c0-3.857 0-3.465-3.546-3.465Z" fill="#704FE6"/><path fill-rule="evenodd" clip-rule="evenodd" d="M71.43 10.748h21.188c1.182-.082 3.546.516 3.546 3.563v33.585-31.701c0-2.125 0-3.036-.45-3.42-.417-.357-1.222-.26-2.774-.26H74.746v33.902l-2.14 1.479v-33.22c0-1.584 0-2.822-1.176-3.928Z" fill="#DEC8FE"/><path d="M92.618 10.34H71.43c1.202 1.142 1.176 2.423 1.176 4.074v33.482l2.364-1.65 2.363 1.65 2.285-1.65 2.443 1.65 2.284-1.65 2.128 1.65 2.364-1.65 2.52 1.65 2.365-1.65 2.442 1.65V13.942c0-3.08-2.364-3.685-3.546-3.602Z" stroke="#373737"/><rect x="78.364" y="19.796" width="8.935" height=".989" rx=".495" fill="#fff"/><rect x="78.364" y="23.671" width="14.268" height=".989" rx=".495" fill="#fff"/><rect x="78.364" y="27.547" width="14.268" height=".989" rx=".495" fill="#fff"/><rect x="78.364" y="31.422" width="14.268" height=".989" rx=".495" fill="#fff"/><path fill-rule="evenodd" clip-rule="evenodd" d="M87.837 73.763a9.168 9.168 0 1 0 0-18.337 9.168 9.168 0 0 0 0 18.337Zm0-6.122a3.046 3.046 0 1 0 0-6.092 3.046 3.046 0 0 0 0 6.092Z" fill="#DEC8FE"/><path fill-rule="evenodd" clip-rule="evenodd" d="M96.975 65.344a9.168 9.168 0 1 0-18.307-.75 9.172 9.172 0 0 0 5.955 8.59 8.242 8.242 0 1 1 12.352-7.84Z" fill="#F2EAFE"/><circle cx="87.837" cy="64.595" r="8.668" stroke="#373737"/><circle cx="87.837" cy="64.595" r="2.75" stroke="#373737"/><rect x="87.433" y="58.402" width=".807" height="2.653" rx=".403" fill="#373737"/><rect x="91.306" y="65.069" width=".807" height="2.653" rx=".403" transform="rotate(-90 91.306 65.07)" fill="#373737"/><rect x="81.715" y="65.069" width=".807" height="2.653" rx=".403" transform="rotate(-90 81.715 65.07)" fill="#373737"/><rect x="87.433" y="68.135" width=".807" height="2.653" rx=".403" fill="#373737"/></svg>