<svg width="106" height="79" viewBox="0 0 106 79" fill="none" xmlns="http://www.w3.org/2000/svg">
<g clip-path="url(#clip0_1080_3039)">
<rect x="64.8906" y="10" width="5.79883" height="9.95746" rx="2.89941" fill="#275FA0"/>
<rect x="65.3906" y="10.5" width="4.79883" height="8.95746" rx="2.39941" stroke="#2A317B"/>
<rect x="6.98438" y="16.5706" width="92.2656" height="62.5908" rx="8" fill="#F6F6F6"/>
<path fill-rule="evenodd" clip-rule="evenodd" d="M8.15332 75.3268C9.55854 77.6265 12.0924 79.1615 14.9847 79.1615H91.2504C95.6686 79.1615 99.2504 75.5797 99.2504 71.1615V24.5706C99.2504 21.7033 97.7419 19.1884 95.4753 17.776C96.2167 18.9893 96.6439 20.4154 96.6439 21.9414V68.5322C96.6439 72.9505 93.0622 76.5322 88.6439 76.5322H12.3783C10.8273 76.5322 9.37939 76.0908 8.15332 75.3268Z" fill="#D9D9E5"/>
<rect x="7.48438" y="17.0706" width="91.2656" height="61.5908" rx="7.5" stroke="#29307A"/>
<path fill-rule="evenodd" clip-rule="evenodd" d="M77.4121 36.082C77.4121 34.4251 76.069 33.082 74.4121 33.082H31.8227C30.1658 33.082 28.8227 34.4251 28.8227 36.082V37.8023C28.8227 38.3418 29.37 38.7217 29.9094 38.7217V38.7217H40.1367C41.9036 38.7217 43.336 40.1541 43.336 41.921C43.336 43.6879 41.9036 45.1203 40.1367 45.1203H29.9094V45.1203C29.37 45.1203 28.8227 45.5002 28.8227 46.0396V59.6499C28.8227 61.3068 30.1658 62.6499 31.8227 62.6499H74.4121C76.069 62.6499 77.4121 61.3068 77.4121 59.6499V59.6499C77.4121 57.7911 75.9052 56.2842 74.0464 56.2842H67.1681C65.4011 56.2842 63.9688 54.8519 63.9688 53.0849C63.9688 51.318 65.4011 49.8856 67.1681 49.8856H75.6383C76.6179 49.8856 77.4121 49.0914 77.4121 48.1118V45.7657C77.4121 44.8144 75.8043 44.0785 74.8531 44.0785V44.0785H60.245C58.4781 44.0785 57.0457 42.6461 57.0457 40.8792C57.0457 39.1122 58.4781 37.6799 60.245 37.6799H74.853C74.8829 37.6799 74.9127 37.6803 74.9424 37.6811C75.8647 37.7064 77.4121 37.0046 77.4121 36.082V36.082ZM43.3212 57.5101C45.0882 57.5101 46.5206 56.0777 46.5206 54.3107C46.5206 52.5438 45.0882 51.1114 43.3212 51.1114H33.094C31.327 51.1114 29.8947 52.5438 29.8947 54.3107C29.8947 56.0777 31.327 57.5101 33.094 57.5101H43.3212Z" fill="#EBE8F1"/>
<rect x="2" y="34.8771" width="38.0068" height="28.8254" rx="4" fill="#9579CD"/>
<path fill-rule="evenodd" clip-rule="evenodd" d="M5.38379 35.3157C3.72694 35.3157 2.38379 36.6588 2.38379 38.3157V59.9765C2.38379 61.4012 3.37699 62.594 4.70879 62.9002C4.4695 62.4694 4.33321 61.9734 4.33321 61.4457V40.0829C4.33321 38.4261 5.67636 37.0829 7.33321 37.0829H37.4114C37.8745 37.0829 38.3131 37.1879 38.7046 37.3752C38.3101 36.179 37.1834 35.3157 35.855 35.3157H5.38379Z" fill="#E4DDF3"/>
<rect x="2.5" y="35.3771" width="37.0068" height="27.8254" rx="3.5" stroke="#2A317B"/>
<rect x="6.43945" y="41.6736" width="30.2422" height="2.60016" rx="1.30008" fill="white"/>
<circle cx="34.2217" cy="57.9146" r="2.32715" fill="#F0B862"/>
<circle cx="31.4775" cy="57.9146" r="2.32715" fill="#FFD6A0"/>
<circle cx="31.4775" cy="57.9146" r="1.9" stroke="#29317A" stroke-width="0.854297"/>
<circle cx="34.2217" cy="57.9146" r="1.9" stroke="#29317A" stroke-width="0.854297"/>
<path d="M90.2432 11.9334L70.2305 11.9334C70.2305 13.3679 70.2308 14.2639 70.2308 15.8519V48.0571L72.5945 46.4695L74.9582 48.0571L77.2432 46.4695L79.6857 48.0571L81.9706 46.4695L84.0979 48.0571L86.4616 46.4695L88.9829 48.0571L91.3466 46.4695L93.7891 48.0571V15.3983C93.7891 11.5407 93.7891 11.9333 90.2432 11.9334Z" fill="#9579CD"/>
<path fill-rule="evenodd" clip-rule="evenodd" d="M69.0547 10.9094H90.2431C91.4251 10.8274 93.7891 11.4251 93.7891 14.4726V48.0572L93.7887 48.0569V16.3559C93.7887 14.2312 93.7887 13.3207 93.339 12.9364C92.9216 12.5797 92.1168 12.6763 90.565 12.6763H72.3711C72.3711 13.3132 72.3712 13.8502 72.3712 14.3828C72.3713 15.1239 72.3714 15.8563 72.3714 16.8376V46.5786L70.2308 48.0572V14.9391C70.2308 14.9048 70.2308 14.8708 70.2308 14.8369C70.2313 13.253 70.2317 12.0156 69.0547 10.9094Z" fill="#E4DCF1"/>
<path d="M90.2432 10.5011H69.0547C70.2569 11.6433 70.2308 12.924 70.2308 14.575V48.057L72.5945 46.4065L74.9582 48.057L77.2431 46.4065L79.6856 48.057L81.9705 46.4065L84.0979 48.057L86.4616 46.4065L88.9829 48.057L91.3466 46.4065L93.7891 48.057V14.1034C93.7891 11.0224 91.4251 10.4181 90.2432 10.5011Z" stroke="#2B307B"/>
<rect x="75.9893" y="19.9574" width="8.93457" height="0.989258" rx="0.494629" fill="white"/>
<rect x="75.9893" y="23.8324" width="14.2676" height="0.989258" rx="0.494629" fill="white"/>
<rect x="75.9893" y="27.7076" width="14.2676" height="0.989258" rx="0.494629" fill="white"/>
<rect x="75.9893" y="31.5829" width="14.2676" height="0.989258" rx="0.494629" fill="white"/>
<path fill-rule="evenodd" clip-rule="evenodd" d="M85.4623 73.9243C90.5259 73.9243 94.6307 69.8194 94.6307 64.7559C94.6307 59.6923 90.5259 55.5875 85.4623 55.5875C80.3988 55.5875 76.2939 59.6923 76.2939 64.7559C76.2939 69.8194 80.3988 73.9243 85.4623 73.9243ZM85.4619 67.8018C87.1441 67.8018 88.5078 66.4381 88.5078 64.7559C88.5078 63.0737 87.1441 61.71 85.4619 61.71C83.7797 61.71 82.416 63.0737 82.416 64.7559C82.416 66.4381 83.7797 67.8018 85.4619 67.8018Z" fill="#F0B861"/>
<path fill-rule="evenodd" clip-rule="evenodd" d="M94.6005 65.5052C94.6205 65.2581 94.6307 65.0082 94.6307 64.7559C94.6307 59.6923 90.5259 55.5875 85.4623 55.5875C80.3988 55.5875 76.2939 59.6923 76.2939 64.7559C76.2939 68.6886 78.77 72.043 82.2483 73.3451C79.7959 71.9172 78.1475 69.2599 78.1475 66.2176C78.1475 61.6659 81.8374 57.9759 86.3892 57.9759C90.7009 57.9759 94.2393 61.287 94.6005 65.5052Z" fill="#FCEDD8"/>
<circle cx="85.4623" cy="64.7559" r="8.66837" stroke="#29307A"/>
<circle cx="85.462" cy="64.756" r="2.75009" stroke="#29307A"/>
<rect x="85.0576" y="58.5627" width="0.806641" height="2.65277" rx="0.40332" fill="#2A317B"/>
<rect x="88.9307" y="65.2305" width="0.806641" height="2.65277" rx="0.40332" transform="rotate(-90 88.9307 65.2305)" fill="#2A317B"/>
<rect x="79.3398" y="65.2305" width="0.806641" height="2.65277" rx="0.40332" transform="rotate(-90 79.3398 65.2305)" fill="#2A317B"/>
<rect x="85.0576" y="68.2964" width="0.806641" height="2.65277" rx="0.40332" fill="#2A317B"/>
</g>
<defs>
<clipPath id="clip0_1080_3039">
<rect width="106" height="79" fill="white"/>
</clipPath>
</defs>
</svg>
