<svg width="0" height="0" class="hidden">
  <symbol xmlns="http://www.w3.org/2000/svg" viewBox="0 0 175 175" id="shape1">
    <path fill-rule="evenodd" clip-rule="evenodd"
      d="M70 24C63.6484 24 58.5 29.1489 58.5 35.5V57H47C42.8574 57 39.5 60.3579 39.5 64.5C39.5 68.6421 42.8574 72 47 72H58.5V107H47C42.8574 107 39.5 110.358 39.5 114.5C39.5 118.642 42.8574 122 47 122H58.5V126.5C58.5 132.851 63.6484 138 70 138C76.3516 138 81.5 132.851 81.5 126.5V122H99.5V139.5C99.5 145.851 104.648 151 111 151C117.352 151 122.5 145.851 122.5 139.5V122H128C132.143 122 135.5 118.642 135.5 114.5C135.5 110.358 132.143 107 128 107H122.5V72H128C132.143 72 135.5 68.6421 135.5 64.5C135.5 60.3579 132.143 57 128 57H122.5V48.5C122.5 42.1489 117.352 37 111 37C104.648 37 99.5 42.1489 99.5 48.5V57H81.5V35.5C81.5 29.1489 76.3516 24 70 24ZM99.5 107V72H81.5V107H99.5Z">
    </path>
  </symbol>
  <symbol xmlns="http://www.w3.org/2000/svg" viewBox="0 0 175 175" id="shape2">
    <path fill-rule="evenodd" clip-rule="evenodd"
      d="M56.9686 52.1577C63.9282 29.7622 84.815 13.5 109.5 13.5C139.876 13.5 164.5 38.1243 164.5 68.5C164.5 95.9739 144.356 118.743 118.031 122.842C111.072 145.238 90.185 161.5 65.5 161.5C35.1243 161.5 10.5 136.876 10.5 106.5C10.5 79.0261 30.6444 56.2572 56.9686 52.1577ZM99.0342 100.859C96.929 88.2523 87.8874 77.9942 75.9658 74.1412C78.071 86.7477 87.1126 97.0058 99.0342 100.859ZM79.128 53.2015C84.7269 42.1079 96.225 34.5 109.5 34.5C128.278 34.5 143.5 49.7223 143.5 68.5C143.5 83.5371 133.738 96.2943 120.206 100.78C117.818 77.6712 101.122 58.8084 79.128 53.2015ZM95.872 121.799C90.2731 132.892 78.775 140.5 65.5 140.5C46.7223 140.5 31.5 125.278 31.5 106.5C31.5 91.4629 41.2617 78.7057 54.7938 74.2199C57.1817 97.3288 73.8777 116.192 95.872 121.799Z">
    </path>
  </symbol>
  <symbol xmlns="http://www.w3.org/2000/svg" viewBox="0 0 175 175" id="shape3">
    <path
      d="M57.75 87.5C57.75 62.9233 77.6733 43 102.25 43C108.049 43 112.75 38.299 112.75 32.5C112.75 26.701 108.049 22 102.25 22C66.0753 22 36.75 51.3253 36.75 87.5C36.75 123.675 66.0753 153 102.25 153C108.049 153 112.75 148.299 112.75 142.5C112.75 136.701 108.049 132 102.25 132C77.6733 132 57.75 112.077 57.75 87.5Z">
    </path>
    <path fill-rule="evenodd" clip-rule="evenodd"
      d="M138.25 87.5C138.25 106.83 122.58 122.5 103.25 122.5C83.92 122.5 68.25 106.83 68.25 87.5C68.25 68.17 83.92 52.5 103.25 52.5C122.58 52.5 138.25 68.17 138.25 87.5ZM117.25 87.5C117.25 95.232 110.982 101.5 103.25 101.5C95.518 101.5 89.25 95.232 89.25 87.5C89.25 79.768 95.518 73.5 103.25 73.5C110.982 73.5 117.25 79.768 117.25 87.5Z">
    </path>
  </symbol>
  <symbol xmlns="http://www.w3.org/2000/svg" viewBox="0 0 175 175" id="shape4">
    <path
      d="M74.5098 45.5C80.2833 35.5 94.7171 35.5 100.491 45.5L140.328 114.5C146.101 124.5 138.884 137 127.337 137H47.663C36.116 137 28.8991 124.5 34.6726 114.5L74.5098 45.5Z">
    </path>
  </symbol>
  <symbol xmlns="http://www.w3.org/2000/svg" viewBox="0 0 175 175" id="shape5">
    <path
      d="M59.9922 49.741C59.9922 58.387 55.7371 65.396 50.4883 65.396C45.2394 65.396 40.9844 58.387 40.9844 49.741C40.9844 41.0949 45.2394 34.0859 50.4883 34.0859C55.7371 34.0859 59.9922 41.0949 59.9922 49.741Z">
    </path>
    <path
      d="M50.4883 103.156C55.7371 103.156 59.9922 96.1467 59.9922 87.5007C59.9922 78.8547 55.7371 71.8457 50.4883 71.8457C45.2394 71.8457 40.9844 78.8547 40.9844 87.5007C40.9844 96.1467 45.2394 103.156 50.4883 103.156Z">
    </path>
    <path
      d="M75.1621 103.156C80.411 103.156 84.666 96.1467 84.666 87.5007C84.666 78.8547 80.411 71.8457 75.1621 71.8457C69.9132 71.8457 65.6582 78.8547 65.6582 87.5007C65.6582 96.1467 69.9132 103.156 75.1621 103.156Z">
    </path>
    <path
      d="M109.342 87.5007C109.342 96.1467 105.087 103.156 99.8379 103.156C94.589 103.156 90.334 96.1467 90.334 87.5007C90.334 78.8547 94.589 71.8457 99.8379 71.8457C105.087 71.8457 109.342 78.8547 109.342 87.5007Z">
    </path>
    <path
      d="M124.512 103.156C129.761 103.156 134.016 96.1467 134.016 87.5007C134.016 78.8547 129.761 71.8457 124.512 71.8457C119.263 71.8457 115.008 78.8547 115.008 87.5007C115.008 96.1467 119.263 103.156 124.512 103.156Z">
    </path>
    <path
      d="M59.9922 125.259C59.9922 133.905 55.7371 140.914 50.4883 140.914C45.2394 140.914 40.9844 133.905 40.9844 125.259C40.9844 116.613 45.2394 109.604 50.4883 109.604C55.7371 109.604 59.9922 116.613 59.9922 125.259Z">
    </path>
    <path
      d="M75.1621 140.914C80.411 140.914 84.666 133.905 84.666 125.259C84.666 116.613 80.411 109.604 75.1621 109.604C69.9132 109.604 65.6582 116.613 65.6582 125.259C65.6582 133.905 69.9132 140.914 75.1621 140.914Z">
    </path>
    <path
      d="M109.342 125.259C109.342 133.905 105.087 140.914 99.8379 140.914C94.589 140.914 90.334 133.905 90.334 125.259C90.334 116.613 94.589 109.604 99.8379 109.604C105.087 109.604 109.342 116.613 109.342 125.259Z">
    </path>
    <path
      d="M124.512 140.914C129.761 140.914 134.016 133.905 134.016 125.259C134.016 116.613 129.761 109.604 124.512 109.604C119.263 109.604 115.008 116.613 115.008 125.259C115.008 133.905 119.263 140.914 124.512 140.914Z">
    </path>
    <path
      d="M75.1621 65.396C80.411 65.396 84.666 58.387 84.666 49.741C84.666 41.0949 80.411 34.0859 75.1621 34.0859C69.9132 34.0859 65.6582 41.0949 65.6582 49.741C65.6582 58.387 69.9132 65.396 75.1621 65.396Z">
    </path>
    <path
      d="M109.342 49.741C109.342 58.387 105.087 65.396 99.8379 65.396C94.589 65.396 90.334 58.387 90.334 49.741C90.334 41.0949 94.589 34.0859 99.8379 34.0859C105.087 34.0859 109.342 41.0949 109.342 49.741Z">
    </path>
    <path
      d="M124.512 65.396C129.761 65.396 134.016 58.387 134.016 49.741C134.016 41.0949 129.761 34.0859 124.512 34.0859C119.263 34.0859 115.008 41.0949 115.008 49.741C115.008 58.387 119.263 65.396 124.512 65.396Z">
    </path>
  </symbol>
  <symbol xmlns="http://www.w3.org/2000/svg" viewBox="0 0 175 175" id="shape6">
    <path
      d="M141 96.0424C138.264 108.341 134.085 116.202 129.401 116.202C126.48 116.202 123.753 113.143 121.452 107.857C118.731 121.081 114.393 129.637 109.507 129.637C106.324 129.637 103.375 126.008 100.952 119.822C100.952 119.819 100.948 119.816 100.948 119.812C98.251 133.874 93.7747 143.072 88.7085 143.072C85.6389 143.072 82.7857 139.695 80.4137 133.905C77.678 146.203 73.4983 154.065 68.8145 154.065C65.8933 154.065 63.1672 151.006 60.8659 145.719C58.1443 158.944 53.8066 167.5 48.9205 167.5C40.6805 167.5 34 143.166 34 113.149C34 83.1315 40.6805 58.7977 48.9205 58.7977C51.8417 58.7977 54.5678 61.8565 56.8691 67.1434C59.5907 53.9188 63.9284 45.3626 68.8145 45.3626C71.8841 45.3626 74.7373 48.7399 77.1093 54.5301C79.845 42.2316 84.0246 34.3702 88.7085 34.3702C91.8929 34.3702 94.8441 38.0039 97.2673 44.1955C97.36 43.7136 97.4545 43.2371 97.5508 42.7672C100.272 29.514 104.615 20.9351 109.507 20.9351C112.428 20.9351 115.154 23.9939 117.455 29.2808C120.177 16.0562 124.515 7.5 129.401 7.5C132.47 7.5 135.324 10.8773 137.696 16.6675C137.696 16.6675 145.5 57 141 96.0424Z">
    </path>
  </symbol>
  <symbol xmlns="http://www.w3.org/2000/svg" viewBox="0 0 175 175" id="shape7">
    <rect x="24.5693" y="87.9668" width="89" height="89" rx="17" transform="rotate(-45.4247 24.5693 87.9668)"></rect>
  </symbol>

  <symbol xmlns="http://www.w3.org/2000/svg" viewBox="0 0 175 175" id="shape8">
    <path
      d="M50.5518 105.914C34.2529 100.493 22.5 85.1191 22.5 67C22.5 44.3564 40.8564 26 63.5 26C72.4629 26 80.7529 28.876 87.5 33.7549C94.2471 28.876 102.537 26 111.5 26C134.144 26 152.5 44.3564 152.5 67C152.5 82.1235 144.312 95.3345 132.126 102.441C132.372 104.259 132.5 106.115 132.5 108C132.5 130.644 114.144 149 91.5 149C68.8564 149 50.5 130.644 50.5 108C50.5 107.3 50.5176 106.604 50.5518 105.914Z">
    </path>
  </symbol>
  <symbol xmlns="http://www.w3.org/2000/svg" viewBox="0 0 175 175" id="shape9">
    <path
      d="M50 42C50 35.6487 55.1487 30.5 61.5 30.5C67.8513 30.5 73 35.6487 73 42V133C73 139.351 67.8513 144.5 61.5 144.5C55.1487 144.5 50 139.351 50 133V42Z">
    </path>
    <path
      d="M102 42C102 35.6487 107.149 30.5 113.5 30.5C119.851 30.5 125 35.6487 125 42V133C125 139.351 119.851 144.5 113.5 144.5C107.149 144.5 102 139.351 102 133V42Z">
    </path>
    <path
      d="M80 63C80 58.8579 83.3579 55.5 87.5 55.5C91.6421 55.5 95 58.8579 95 63V120C95 124.142 91.6421 127.5 87.5 127.5C83.3579 127.5 80 124.142 80 120V63Z">
    </path>
  </symbol>
  <symbol xmlns="http://www.w3.org/2000/svg" viewBox="0 0 175 175" id="shape10">
    <path
      d="M99.8469 56.4362C109.456 54.8877 116.091 51.588 116.091 47.7675C116.091 42.461 103.29 38.1592 87.5 38.1592C71.7097 38.1592 58.9092 42.461 58.9092 47.7675C58.9092 51.588 65.5443 54.8877 75.1531 56.4362C61.1439 58.1351 51.1299 62.6428 51.1299 67.9365C51.1299 72.0437 57.1579 75.6777 66.4028 77.8939C51.8262 80.4533 41.877 85.5821 41.877 91.4919C41.877 96.4495 48.8785 100.858 59.7399 103.66C44.4425 106.806 34.2344 112.473 34.2344 118.941C34.2344 128.827 58.0822 136.841 87.5 136.841C116.918 136.841 140.766 128.827 140.766 118.941C140.766 112.473 130.558 106.806 115.26 103.66C126.121 100.858 133.123 96.4495 133.123 91.4919C133.123 85.5821 123.174 80.4533 108.597 77.8939C117.842 75.6777 123.87 72.0437 123.87 67.9365C123.87 62.6428 113.856 58.1351 99.8469 56.4362Z">
    </path>
  </symbol>
  <symbol xmlns="http://www.w3.org/2000/svg" viewBox="0 0 175 175" id="shape11">
    <path
      d="M45.5 57C51.8516 57 57 51.8511 57 45.5C57 39.1489 51.8516 34 45.5 34C39.1484 34 34 39.1489 34 45.5C34 51.8511 39.1484 57 45.5 57Z">
    </path>
    <path
      d="M73.5 57C79.8516 57 85 51.8511 85 45.5C85 39.1489 79.8516 34 73.5 34C67.1484 34 62 39.1489 62 45.5C62 51.8511 67.1484 57 73.5 57Z">
    </path>
    <path
      d="M113 45.5C113 51.8511 107.852 57 101.5 57C95.1484 57 90 51.8511 90 45.5C90 39.1489 95.1484 34 101.5 34C107.852 34 113 39.1489 113 45.5Z">
    </path>
    <path
      d="M129.5 57C135.852 57 141 51.8511 141 45.5C141 39.1489 135.852 34 129.5 34C123.148 34 118 39.1489 118 45.5C118 51.8511 123.148 57 129.5 57Z">
    </path>
    <path
      d="M57 73.5C57 79.8511 51.8516 85 45.5 85C39.1484 85 34 79.8511 34 73.5C34 67.1489 39.1484 62 45.5 62C51.8516 62 57 67.1489 57 73.5Z">
    </path>
    <path
      d="M73.5 85C79.8516 85 85 79.8511 85 73.5C85 67.1489 79.8516 62 73.5 62C67.1484 62 62 67.1489 62 73.5C62 79.8511 67.1484 85 73.5 85Z">
    </path>
    <path
      d="M113 73.5C113 79.8511 107.852 85 101.5 85C95.1484 85 90 79.8511 90 73.5C90 67.1489 95.1484 62 101.5 62C107.852 62 113 67.1489 113 73.5Z">
    </path>
    <path
      d="M129.5 85C135.852 85 141 79.8511 141 73.5C141 67.1489 135.852 62 129.5 62C123.148 62 118 67.1489 118 73.5C118 79.8511 123.148 85 129.5 85Z">
    </path>
    <path
      d="M57 101.5C57 107.851 51.8516 113 45.5 113C39.1484 113 34 107.851 34 101.5C34 95.1489 39.1484 90 45.5 90C51.8516 90 57 95.1489 57 101.5Z">
    </path>
    <path
      d="M73.5 113C79.8516 113 85 107.851 85 101.5C85 95.1489 79.8516 90 73.5 90C67.1484 90 62 95.1489 62 101.5C62 107.851 67.1484 113 73.5 113Z">
    </path>
    <path
      d="M113 101.5C113 107.851 107.852 113 101.5 113C95.1484 113 90 107.851 90 101.5C90 95.1489 95.1484 90 101.5 90C107.852 90 113 95.1489 113 101.5Z">
    </path>
    <path
      d="M129.5 113C135.852 113 141 107.851 141 101.5C141 95.1489 135.852 90 129.5 90C123.148 90 118 95.1489 118 101.5C118 107.851 123.148 113 129.5 113Z">
    </path>
    <path
      d="M57 129.5C57 135.851 51.8516 141 45.5 141C39.1484 141 34 135.851 34 129.5C34 123.149 39.1484 118 45.5 118C51.8516 118 57 123.149 57 129.5Z">
    </path>
    <path
      d="M73.5 141C79.8516 141 85 135.851 85 129.5C85 123.149 79.8516 118 73.5 118C67.1484 118 62 123.149 62 129.5C62 135.851 67.1484 141 73.5 141Z">
    </path>
    <path
      d="M113 129.5C113 135.851 107.852 141 101.5 141C95.1484 141 90 135.851 90 129.5C90 123.149 95.1484 118 101.5 118C107.852 118 113 123.149 113 129.5Z">
    </path>
    <path
      d="M129.5 141C135.852 141 141 135.851 141 129.5C141 123.149 135.852 118 129.5 118C123.148 118 118 123.149 118 129.5C118 135.851 123.148 141 129.5 141Z">
    </path>
  </symbol>
  <symbol xmlns="http://www.w3.org/2000/svg" viewBox="0 0 175 175" id="shape12">
    <path
      d="M59.1279 43.3213C51.3959 43.3213 45.1279 49.5893 45.1279 57.3213V96.8711C45.1279 104.603 51.3959 110.871 59.1279 110.871H62.3223V117.678C62.3223 125.41 68.5903 131.678 76.3223 131.678H115.872C123.604 131.678 129.872 125.41 129.872 117.678V78.1284C129.872 70.3964 123.604 64.1284 115.872 64.1284H112.678V57.3213C112.678 49.5893 106.41 43.3213 98.6777 43.3213H59.1279Z">
    </path>
  </symbol>
  <symbol xmlns="http://www.w3.org/2000/svg" viewBox="0 0 175 175" id="shape13">
    <path fill-rule="evenodd" clip-rule="evenodd"
      d="M105.169 37.1967C101.538 30.9344 92.4621 30.9344 88.8312 37.1967L71.1076 67.767L68.0246 62.4242C64.2365 55.8583 54.7638 55.8583 50.9757 62.4242L24.8332 107.727C21.0451 114.293 25.7804 122.5 33.3586 122.5H83.8498L80.8332 127.727C77.0451 134.293 81.7804 142.5 89.3586 142.5H141.642C149.22 142.5 153.955 134.293 150.167 127.727L129.148 91.3021C131.646 88.4462 132.39 84.1483 130.222 80.4091L105.169 37.1967ZM100.007 94.4999H86.5343L93.2707 106.174L100.007 94.4999Z">
    </path>
  </symbol>
  <symbol xmlns="http://www.w3.org/2000/svg" viewBox="0 0 177 180" id="shape14">
    <path
      d="M88.1516 34.1909C88.1516 42.3229 74.9678 38.8377 72.3883 38.8377C69.8088 38.8377 67.7177 36.7573 67.7177 34.1909C67.7177 31.6245 69.8088 29.5441 72.3883 29.5441C75.8913 29.5441 77.1408 25.4658 80.5619 26.0589C84.4347 26.7304 88.1516 32.1862 88.1516 34.1909Z" />
    <path
      d="M40.8617 43.775C43.4412 43.775 44.6566 42.3229 44.9485 39.4186C45.1628 37.2863 43.4889 36.5144 42.0294 36.5144C41.1536 36.5144 37.9426 37.7235 37.9426 40.2899C37.9426 41.1612 38.2822 43.775 40.8617 43.775Z" />
    <path
      d="M37.6506 100.699C40.9998 92.5 29.8651 86.5762 31.4998 81C33.5432 74.0297 50.4948 75.7223 51.6625 68.752C52.8302 61.7818 51.9544 51.036 60.128 47.5508C68.3015 44.0657 74.0343 49.2756 82.4998 45.5C90.9652 41.7244 96.909 30.1252 112.38 35.9338C127.529 41.6212 115.732 62.8322 135.645 62.1995C146.5 61 155.121 75.4465 148.5 86.5C140.146 94.5 169.304 103.578 153.54 112C148.352 114.802 121.294 110.394 121.666 118.501C122.026 126.356 127.241 140.356 122.5 142.5C112.867 146.856 97.9019 137.5 91.4998 137.5C82.1585 137.5 82.8972 150.652 71.5126 148.91C60.128 147.167 62.1714 134.389 56.9169 125.095C51.6625 115.801 39.6941 126.547 34.1477 117.253C29.7106 109.818 35.4998 104.5 37.6506 100.699Z" />
    <path
      d="M50.2029 142.5C52.7824 142.5 56.625 138.096 56.625 135.53C56.625 132.963 54.8258 131.173 52.2463 131.173C49.6668 131.173 46.408 133.835 46.408 136.401C46.408 138.967 47.6234 142.5 50.2029 142.5Z" />
    <path
      d="M43.0059 63.2337C44.0438 65.5571 43.542 68.1709 40.9625 68.1709C38.383 68.1709 36 67.5426 36 64.9762C36 62.4098 36.0003 61.2007 37.4593 60.039C38.6272 59.1089 41.8383 60.6198 43.0059 63.2337Z" />
    <path
      d="M150.5 50.5C152.429 46 153.481 39.5 148.5 39.5C145.92 39.5 142 40.5 141 46C140 48.5 136.5 47 134.5 50C133.332 53.7756 137.621 56 142 56C146.669 56 149 54 150.5 50.5Z" />
    <path
      d="M30.3353 93.6255C31.656 96.5163 32.2035 101.177 28 103.5C25.3728 104.952 19.1453 99.434 18.0749 96.2393C16.3235 91.0116 20.458 87.5265 23.0375 87.5265C25.617 87.5265 28.8757 90.4308 30.3353 93.6255Z" />
    <path
      d="M132 129C137 133 148.098 134.777 149.165 133.628C153 129.5 145.5 122 143 120.5C140 119 134 119.5 132 121C129 123 130.5 127.5 132 129Z" />
  </symbol>
  <symbol fill="none" xmlns="http://www.w3.org/2000/svg" viewBox="0 0 366 455" id="page_stroke_02">
    <path
      d="M158.505 413C233.466 378.108 352.344 228.411 334.128 246.05C309.498 269.9 104.961 360 30 366.625C30 366.625 314.852 198.35 324.49 161.25C334.128 124.15 106.032 257.975 115.67 240.75C125.308 223.525 248.458 122.825 246.316 113.55C244.175 104.275 97.465 190.4 97.465 190.4L175.639 98.975L97.465 126.8L140.3 42"
      stroke-linecap="round" stroke-linejoin="round"></path>
  </symbol>
  <symbol fill="none" xmlns="http://www.w3.org/2000/svg" viewBox="0 0 334 473" id="page_stroke_01">
    <path
      d="M204.074 431C293.779 390.26 316.431 314.576 301.617 326.116C281.586 341.718 214.526 385.926 153.562 390.26C153.562 390.26 288.553 280.175 301.617 257.638C226.903 268.039 37.9144 421.465 27.2789 405.862C-21.3077 385.059 360.838 156.221 316.422 165.755C272.006 175.29 109.145 289.71 109.145 289.71L220.621 157.954L45.5676 278.441C45.5676 278.441 223.419 61.738 99.7493 34"
      stroke-linecap="round" stroke-linejoin="round"></path>
  </symbol>
  <symbol xmlns="http://www.w3.org/2000/svg" viewBox="0 0 57 23" id="page_arrow_shot">
    <path fill-rule="evenodd" clip-rule="evenodd"
      d="M46.8633 0.439336L56.4092 9.98528C56.995 10.5711 56.995 11.5208 56.4092 12.1066L46.8633 21.6525C46.2775 22.2383 45.3278 22.2383 44.742 21.6525C44.1562 21.0668 44.1562 20.117 44.742 19.5312L51.7273 12.5459L1.5 12.5459C0.671574 12.5459 1.16458e-06 11.8744 1.08333e-06 11.0459C1.00208e-06 10.2175 0.671574 9.54594 1.5 9.54594L51.7273 9.54594L44.742 2.56066C44.1562 1.97487 44.1562 1.02512 44.742 0.439337C45.3278 -0.14645 46.2775 -0.14645 46.8633 0.439336Z">
    </path>
  </symbol>
  <symbol xmlns="http://www.w3.org/2000/svg" viewBox="0 0 177 180" id="page_arrow_long">
    <path fill-rule="evenodd" clip-rule="evenodd"
      d="M0.668256 132.743C1.18921 132.56 1.76018 132.833 1.94355 133.354C12.3795 163.003 59.2644 187.196 87.7604 174.279C99.8601 168.795 108.513 158.26 113.641 146.038C110.679 146.431 107.624 146.634 104.479 146.634C79.6132 146.634 54.722 115.592 61.362 90.8569C63.2951 83.6559 68.3696 78.016 77.2709 75.8051C102.945 69.4281 119.285 89.1631 121.025 113.157C121.74 123.032 120.325 133.673 116.77 143.511C146.15 138 165.665 112.95 172.402 84.7261C179.831 53.6025 171.611 19.1081 144.36 3.21315L149.624 16.6713C149.825 17.1857 149.571 17.7657 149.057 17.9669C148.543 18.168 147.962 17.9142 147.761 17.3998L141.49 1.36426C141.37 1.05649 141.409 0.709139 141.595 0.43622C141.782 0.163286 142.091 3.2212e-05 142.421 3.22159e-05L159.668 3.24216e-05C160.22 3.24282e-05 160.668 0.447741 160.668 1.00003C160.668 1.55231 160.22 2.00003 159.668 2.00003L146.235 2.00003C173.815 18.703 181.819 53.8873 174.347 85.1904C167.397 114.306 146.965 140.477 115.941 145.693C110.72 158.781 101.609 170.198 88.5861 176.101C59.0417 189.493 10.8766 164.757 0.0569996 134.018C-0.126368 133.497 0.147301 132.926 0.668256 132.743ZM114.498 143.895C118.233 134.075 119.756 123.321 119.03 113.302C117.379 90.5324 102.215 71.6704 77.753 77.7461C69.5647 79.7799 65.04 84.8697 63.2936 91.3755C56.9884 114.864 80.9063 144.634 104.479 144.634C107.93 144.634 111.271 144.381 114.498 143.895Z">
    </path>
  </symbol>
  <symbol xmlns="http://www.w3.org/2000/svg" viewBox="0 0 200 160" id="folder-front">
    <path
      d="M10.8869 72.7153H10.8857C6.94911 72.7201 3.4439 75.9734 4.07191 80.2009C5.81373 91.9346 7.15018 100.301 8.44222 108.388L8.44812 108.425C10.1413 119.023 11.7412 129.037 13.9996 145.111C14.5077 148.731 17.5228 152.528 21.6957 152.528H175.915C180.087 152.528 183.109 148.741 183.61 145.111L183.61 145.11C185.245 133.257 187.051 121.405 188.858 109.544C191.577 91.7079 194.298 73.853 196.441 55.9495C196.973 51.5805 193.312 48.4676 189.335 48.4663C172.215 48.3846 146.402 48.3849 124.871 48.4058C114.104 48.4162 104.408 48.4317 97.4027 48.4446C93.9001 48.4511 91.0705 48.4569 89.1165 48.4611L86.8675 48.466L86.283 48.4674L86.1341 48.4677L86.0965 48.4678L86.0871 48.4679L86.0847 48.4679C86.0842 48.4679 86.084 48.4679 86.0863 49.4679L86.084 48.4679L86.0555 48.4679L86.0271 48.4696C81.3137 48.7494 78.2451 51.7519 74.4785 55.4374L74.3248 55.5878C74.3248 55.5878 74.3247 55.5878 74.3247 55.5878C73.1659 56.7213 72.0132 57.8792 70.8573 59.0401C66.6659 63.2499 62.4334 67.5009 57.7212 70.7836L57.7212 70.7836C56.0556 71.9441 54.2264 72.6917 52.2954 72.7138C47.7188 72.7139 43.1423 72.7141 38.5658 72.7144C29.3395 72.7148 20.1132 72.7153 10.8869 72.7153Z"
      fill="#DEC8FE" stroke="white" stroke-width="2">
    </path>
  </symbol>
  <symbol xmlns="http://www.w3.org/2000/svg" viewBox="0 0 200 160" id="folder-back">
    <path
      d="M73.9374 18.8045L73.9374 18.8045C70.403 14.4825 65.1817 12 59.6167 12H25.4087C18.5854 12 13.0008 17.3467 13.0008 24.2519C13.0008 24.2519 13.0008 24.2519 13.0008 24.252L13 73.7211L13 74.7211H14H26.7429H27.7429V73.7211V40.2018C27.7429 38.1915 29.3677 36.5655 31.3485 36.5655H168.54C170.52 36.5655 172.145 38.1915 172.145 40.2018V49.4106V50.4063L173.141 50.4106C175.076 50.4191 177.008 50.4253 178.939 50.4315C181.253 50.439 183.567 50.4464 185.884 50.4577L186.889 50.4626V49.4577V29.2609C186.889 24.7889 183.274 21.1404 178.816 21.1404H78.851C76.9421 21.1404 75.1528 20.291 73.9374 18.8045Z"
      fill="#DEC8FE" stroke="white" stroke-width="2">
    </path>
  </symbol>
  <symbol xmlns="http://www.w3.org/2000/svg" viewBox="0 0 37 50" id="blank-front" fill="none">
    <path
      d="M1.04199 45.6583V6.19165C1.04199 4.25865 2.60899 2.69165 4.54199 2.69165H32.542C34.475 2.69165 36.042 4.25865 36.042 6.19165V45.6583C36.042 47.5913 34.475 49.1583 32.542 49.1583H4.54199C2.609 49.1583 1.04199 47.5913 1.04199 45.6583Z"
      fill="#DEC8FE" stroke="#373737" />
    <path
      d="M1.2793 45.9111C1.2793 47.5722 2.60986 48.9188 4.25119 48.9188H32.5293C34.0571 48.9188 35.3156 47.7521 35.4824 46.2511C35.133 46.3972 34.7499 46.4778 34.3483 46.4778H6.43897C4.79764 46.4778 3.46707 45.1313 3.46707 43.4702V4.3132C3.46707 3.965 3.52554 3.63063 3.63308 3.31958C2.28841 3.60746 1.2793 4.81549 1.2793 6.26204V45.9111Z"
      fill="#F3EAFE" />
    <path
      d="M10.2506 18.0479C9.90938 18.0479 9.63281 18.3244 9.63281 18.6656C9.63281 19.0068 9.90938 19.2833 10.2506 19.2833H20.1734C20.5146 19.2833 20.7912 19.0068 20.7912 18.6656C20.7912 18.3244 20.5146 18.0479 20.1734 18.0479H10.2506Z"
      fill="#373737" />
    <path
      d="M10.2506 22.8873C9.90938 22.8873 9.63281 23.1639 9.63281 23.5051C9.63281 23.8462 9.90939 24.1228 10.2506 24.1228H26.8338C27.175 24.1228 27.4515 23.8462 27.4515 23.5051C27.4515 23.1639 27.175 22.8873 26.8338 22.8873H10.2506Z"
      fill="#373737" />
    <path
      d="M9.63281 28.3448C9.63281 28.0036 9.90938 27.7271 10.2506 27.7271H26.8338C27.175 27.7271 27.4515 28.0036 27.4515 28.3448C27.4515 28.686 27.175 28.9625 26.8338 28.9625H10.2506C9.90939 28.9625 9.63281 28.686 9.63281 28.3448Z"
      fill="#373737" />
    <path
      d="M10.2506 32.567C9.90938 32.567 9.63281 32.8436 9.63281 33.1848C9.63281 33.5259 9.90939 33.8025 10.2506 33.8025H26.8338C27.175 33.8025 27.4515 33.5259 27.4515 33.1848C27.4515 32.8436 27.175 32.567 26.8338 32.567H10.2506Z"
      fill="#373737" />
    <path
      d="M5.08203 7.43236L5.08203 2.89518C5.08203 1.94479 6.00204 1.06272 6.95183 1.02562C7.94908 0.98667 8.97744 1.89729 8.97744 2.89518L8.97744 13.9568C8.97743 14.5652 8.33941 15.2031 7.73091 15.2031C7.12241 15.2031 6.48437 14.5652 6.48438 13.9568L6.48438 6.47851"
      stroke="#373737" stroke-linecap="round" />
  </symbol>
  <symbol xmlns="http://www.w3.org/2000/svg" viewBox="0 0 37 48" id="blank-back" fill="none">
    <path
      d="M1.26562 43.6394V4.17272C1.26562 2.23973 2.83263 0.672729 4.76562 0.672729H32.7656C34.6986 0.672729 36.2656 2.23973 36.2656 4.17273V43.6394C36.2656 45.5723 34.6986 47.1394 32.7656 47.1394H4.76562C2.83263 47.1394 1.26562 45.5723 1.26562 43.6394Z"
      fill="#FFC8FF" stroke="#373737" />
    <path
      d="M1.50293 43.8953C1.50293 45.5547 2.83349 46.8998 4.47482 46.8998H32.7529C34.2807 46.8998 35.5392 45.7344 35.7061 44.2349C35.3566 44.3809 34.9736 44.4614 34.5719 44.4614H6.6626C5.02127 44.4614 3.6907 43.1163 3.6907 41.4569V2.34013C3.6907 1.99229 3.74917 1.65826 3.85671 1.34753C2.51204 1.63511 1.50293 2.84191 1.50293 4.28697V43.8953Z"
      fill="#FEE4FE" />
  </symbol>
  <symbol xmlns="http://www.w3.org/2000/svg" viewBox="0 0 6 36" id="blank-pen" fill="none">
    <path
      d="M1.34082 2.67154C1.34082 1.57235 2.23189 0.681274 3.33109 0.681274C4.43028 0.681274 5.32135 1.57235 5.32135 2.67154V31.7515L1.34082 31.7515L1.34082 2.67154Z"
      fill="#704FE6" />
    <path
      d="M3.19109 34.9792L1.34082 31.7515L5.32135 31.7515L3.53964 34.9764C3.46426 35.1129 3.26865 35.1145 3.19109 34.9792Z"
      fill="#373737" />
    <path
      d="M5.32135 31.7515V2.67154C5.32135 1.57235 4.43028 0.681274 3.33109 0.681274C2.23189 0.681274 1.34082 1.57235 1.34082 2.67154L1.34082 31.7515M5.32135 31.7515L1.34082 31.7515M5.32135 31.7515L3.53964 34.9764C3.46426 35.1129 3.26865 35.1145 3.19109 34.9792L1.34082 31.7515"
      stroke="#373737" stroke-linejoin="round" />
  </symbol>
</svg>
