<svg width="0" height="0" class="hidden">
  <symbol xmlns="http://www.w3.org/2000/svg" viewBox="0 0 175 175" id="shape1">
    <path fill-rule="evenodd" clip-rule="evenodd"
      d="M70 24C63.6484 24 58.5 29.1489 58.5 35.5V57H47C42.8574 57 39.5 60.3579 39.5 64.5C39.5 68.6421 42.8574 72 47 72H58.5V107H47C42.8574 107 39.5 110.358 39.5 114.5C39.5 118.642 42.8574 122 47 122H58.5V126.5C58.5 132.851 63.6484 138 70 138C76.3516 138 81.5 132.851 81.5 126.5V122H99.5V139.5C99.5 145.851 104.648 151 111 151C117.352 151 122.5 145.851 122.5 139.5V122H128C132.143 122 135.5 118.642 135.5 114.5C135.5 110.358 132.143 107 128 107H122.5V72H128C132.143 72 135.5 68.6421 135.5 64.5C135.5 60.3579 132.143 57 128 57H122.5V48.5C122.5 42.1489 117.352 37 111 37C104.648 37 99.5 42.1489 99.5 48.5V57H81.5V35.5C81.5 29.1489 76.3516 24 70 24ZM99.5 107V72H81.5V107H99.5Z">
    </path>
  </symbol>
  <symbol xmlns="http://www.w3.org/2000/svg" viewBox="0 0 175 175" id="shape2">
    <path fill-rule="evenodd" clip-rule="evenodd"
      d="M56.9686 52.1577C63.9282 29.7622 84.815 13.5 109.5 13.5C139.876 13.5 164.5 38.1243 164.5 68.5C164.5 95.9739 144.356 118.743 118.031 122.842C111.072 145.238 90.185 161.5 65.5 161.5C35.1243 161.5 10.5 136.876 10.5 106.5C10.5 79.0261 30.6444 56.2572 56.9686 52.1577ZM99.0342 100.859C96.929 88.2523 87.8874 77.9942 75.9658 74.1412C78.071 86.7477 87.1126 97.0058 99.0342 100.859ZM79.128 53.2015C84.7269 42.1079 96.225 34.5 109.5 34.5C128.278 34.5 143.5 49.7223 143.5 68.5C143.5 83.5371 133.738 96.2943 120.206 100.78C117.818 77.6712 101.122 58.8084 79.128 53.2015ZM95.872 121.799C90.2731 132.892 78.775 140.5 65.5 140.5C46.7223 140.5 31.5 125.278 31.5 106.5C31.5 91.4629 41.2617 78.7057 54.7938 74.2199C57.1817 97.3288 73.8777 116.192 95.872 121.799Z">
    </path>
  </symbol>
  <symbol xmlns="http://www.w3.org/2000/svg" viewBox="0 0 175 175" id="shape3">
    <path
      d="M57.75 87.5C57.75 62.9233 77.6733 43 102.25 43C108.049 43 112.75 38.299 112.75 32.5C112.75 26.701 108.049 22 102.25 22C66.0753 22 36.75 51.3253 36.75 87.5C36.75 123.675 66.0753 153 102.25 153C108.049 153 112.75 148.299 112.75 142.5C112.75 136.701 108.049 132 102.25 132C77.6733 132 57.75 112.077 57.75 87.5Z">
    </path>
    <path fill-rule="evenodd" clip-rule="evenodd"
      d="M138.25 87.5C138.25 106.83 122.58 122.5 103.25 122.5C83.92 122.5 68.25 106.83 68.25 87.5C68.25 68.17 83.92 52.5 103.25 52.5C122.58 52.5 138.25 68.17 138.25 87.5ZM117.25 87.5C117.25 95.232 110.982 101.5 103.25 101.5C95.518 101.5 89.25 95.232 89.25 87.5C89.25 79.768 95.518 73.5 103.25 73.5C110.982 73.5 117.25 79.768 117.25 87.5Z">
    </path>
  </symbol>
  <symbol xmlns="http://www.w3.org/2000/svg" viewBox="0 0 175 175" id="shape4">
    <path
      d="M74.5098 45.5C80.2833 35.5 94.7171 35.5 100.491 45.5L140.328 114.5C146.101 124.5 138.884 137 127.337 137H47.663C36.116 137 28.8991 124.5 34.6726 114.5L74.5098 45.5Z">
    </path>
  </symbol>
  <symbol xmlns="http://www.w3.org/2000/svg" viewBox="0 0 175 175" id="shape5">
    <path
      d="M59.9922 49.741C59.9922 58.387 55.7371 65.396 50.4883 65.396C45.2394 65.396 40.9844 58.387 40.9844 49.741C40.9844 41.0949 45.2394 34.0859 50.4883 34.0859C55.7371 34.0859 59.9922 41.0949 59.9922 49.741Z">
    </path>
    <path
      d="M50.4883 103.156C55.7371 103.156 59.9922 96.1467 59.9922 87.5007C59.9922 78.8547 55.7371 71.8457 50.4883 71.8457C45.2394 71.8457 40.9844 78.8547 40.9844 87.5007C40.9844 96.1467 45.2394 103.156 50.4883 103.156Z">
    </path>
    <path
      d="M75.1621 103.156C80.411 103.156 84.666 96.1467 84.666 87.5007C84.666 78.8547 80.411 71.8457 75.1621 71.8457C69.9132 71.8457 65.6582 78.8547 65.6582 87.5007C65.6582 96.1467 69.9132 103.156 75.1621 103.156Z">
    </path>
    <path
      d="M109.342 87.5007C109.342 96.1467 105.087 103.156 99.8379 103.156C94.589 103.156 90.334 96.1467 90.334 87.5007C90.334 78.8547 94.589 71.8457 99.8379 71.8457C105.087 71.8457 109.342 78.8547 109.342 87.5007Z">
    </path>
    <path
      d="M124.512 103.156C129.761 103.156 134.016 96.1467 134.016 87.5007C134.016 78.8547 129.761 71.8457 124.512 71.8457C119.263 71.8457 115.008 78.8547 115.008 87.5007C115.008 96.1467 119.263 103.156 124.512 103.156Z">
    </path>
    <path
      d="M59.9922 125.259C59.9922 133.905 55.7371 140.914 50.4883 140.914C45.2394 140.914 40.9844 133.905 40.9844 125.259C40.9844 116.613 45.2394 109.604 50.4883 109.604C55.7371 109.604 59.9922 116.613 59.9922 125.259Z">
    </path>
    <path
      d="M75.1621 140.914C80.411 140.914 84.666 133.905 84.666 125.259C84.666 116.613 80.411 109.604 75.1621 109.604C69.9132 109.604 65.6582 116.613 65.6582 125.259C65.6582 133.905 69.9132 140.914 75.1621 140.914Z">
    </path>
    <path
      d="M109.342 125.259C109.342 133.905 105.087 140.914 99.8379 140.914C94.589 140.914 90.334 133.905 90.334 125.259C90.334 116.613 94.589 109.604 99.8379 109.604C105.087 109.604 109.342 116.613 109.342 125.259Z">
    </path>
    <path
      d="M124.512 140.914C129.761 140.914 134.016 133.905 134.016 125.259C134.016 116.613 129.761 109.604 124.512 109.604C119.263 109.604 115.008 116.613 115.008 125.259C115.008 133.905 119.263 140.914 124.512 140.914Z">
    </path>
    <path
      d="M75.1621 65.396C80.411 65.396 84.666 58.387 84.666 49.741C84.666 41.0949 80.411 34.0859 75.1621 34.0859C69.9132 34.0859 65.6582 41.0949 65.6582 49.741C65.6582 58.387 69.9132 65.396 75.1621 65.396Z">
    </path>
    <path
      d="M109.342 49.741C109.342 58.387 105.087 65.396 99.8379 65.396C94.589 65.396 90.334 58.387 90.334 49.741C90.334 41.0949 94.589 34.0859 99.8379 34.0859C105.087 34.0859 109.342 41.0949 109.342 49.741Z">
    </path>
    <path
      d="M124.512 65.396C129.761 65.396 134.016 58.387 134.016 49.741C134.016 41.0949 129.761 34.0859 124.512 34.0859C119.263 34.0859 115.008 41.0949 115.008 49.741C115.008 58.387 119.263 65.396 124.512 65.396Z">
    </path>
  </symbol>
  <symbol xmlns="http://www.w3.org/2000/svg" viewBox="0 0 175 175" id="shape6">
    <path
      d="M141 96.0424C138.264 108.341 134.085 116.202 129.401 116.202C126.48 116.202 123.753 113.143 121.452 107.857C118.731 121.081 114.393 129.637 109.507 129.637C106.324 129.637 103.375 126.008 100.952 119.822C100.952 119.819 100.948 119.816 100.948 119.812C98.251 133.874 93.7747 143.072 88.7085 143.072C85.6389 143.072 82.7857 139.695 80.4137 133.905C77.678 146.203 73.4983 154.065 68.8145 154.065C65.8933 154.065 63.1672 151.006 60.8659 145.719C58.1443 158.944 53.8066 167.5 48.9205 167.5C40.6805 167.5 34 143.166 34 113.149C34 83.1315 40.6805 58.7977 48.9205 58.7977C51.8417 58.7977 54.5678 61.8565 56.8691 67.1434C59.5907 53.9188 63.9284 45.3626 68.8145 45.3626C71.8841 45.3626 74.7373 48.7399 77.1093 54.5301C79.845 42.2317 84.0246 34.3702 88.7085 34.3702C91.8929 34.3702 94.8441 38.0039 97.2673 44.1955C97.36 43.7136 97.4545 43.2371 97.5508 42.7672C100.272 29.514 104.615 20.9351 109.507 20.9351C112.428 20.9351 115.154 23.9939 117.455 29.2808C120.177 16.0562 124.515 7.5 129.401 7.5C132.47 7.5 135.324 10.8773 137.696 16.6675C137.696 16.6675 141 93.1885 141 96.0424Z">
    </path>
  </symbol>
  <symbol xmlns="http://www.w3.org/2000/svg" viewBox="0 0 175 175" id="shape7">
    <rect x="24.5693" y="87.9668" width="89" height="89" rx="17" transform="rotate(-45.4247 24.5693 87.9668)"></rect>
  </symbol>

  <symbol xmlns="http://www.w3.org/2000/svg" viewBox="0 0 175 175" id="shape8">
    <path
      d="M50.5518 105.914C34.2529 100.493 22.5 85.1191 22.5 67C22.5 44.3564 40.8564 26 63.5 26C72.4629 26 80.7529 28.876 87.5 33.7549C94.2471 28.876 102.537 26 111.5 26C134.144 26 152.5 44.3564 152.5 67C152.5 82.1235 144.312 95.3345 132.126 102.441C132.372 104.259 132.5 106.115 132.5 108C132.5 130.644 114.144 149 91.5 149C68.8564 149 50.5 130.644 50.5 108C50.5 107.3 50.5176 106.604 50.5518 105.914Z">
    </path>
  </symbol>
  <symbol xmlns="http://www.w3.org/2000/svg" viewBox="0 0 175 175" id="shape9">
    <path
      d="M50 42C50 35.6487 55.1487 30.5 61.5 30.5C67.8513 30.5 73 35.6487 73 42V133C73 139.351 67.8513 144.5 61.5 144.5C55.1487 144.5 50 139.351 50 133V42Z">
    </path>
    <path
      d="M102 42C102 35.6487 107.149 30.5 113.5 30.5C119.851 30.5 125 35.6487 125 42V133C125 139.351 119.851 144.5 113.5 144.5C107.149 144.5 102 139.351 102 133V42Z">
    </path>
    <path
      d="M80 63C80 58.8579 83.3579 55.5 87.5 55.5C91.6421 55.5 95 58.8579 95 63V120C95 124.142 91.6421 127.5 87.5 127.5C83.3579 127.5 80 124.142 80 120V63Z">
    </path>
  </symbol>
  <symbol xmlns="http://www.w3.org/2000/svg" viewBox="0 0 175 175" id="shape10">
    <path
      d="M99.8469 56.4362C109.456 54.8877 116.091 51.588 116.091 47.7675C116.091 42.461 103.29 38.1592 87.5 38.1592C71.7097 38.1592 58.9092 42.461 58.9092 47.7675C58.9092 51.588 65.5443 54.8877 75.1531 56.4362C61.1439 58.1351 51.1299 62.6428 51.1299 67.9365C51.1299 72.0437 57.1579 75.6777 66.4028 77.8939C51.8262 80.4533 41.877 85.5821 41.877 91.4919C41.877 96.4495 48.8785 100.858 59.7399 103.66C44.4425 106.806 34.2344 112.473 34.2344 118.941C34.2344 128.827 58.0822 136.841 87.5 136.841C116.918 136.841 140.766 128.827 140.766 118.941C140.766 112.473 130.558 106.806 115.26 103.66C126.121 100.858 133.123 96.4495 133.123 91.4919C133.123 85.5821 123.174 80.4533 108.597 77.8939C117.842 75.6777 123.87 72.0437 123.87 67.9365C123.87 62.6428 113.856 58.1351 99.8469 56.4362Z">
    </path>
  </symbol>
  <symbol xmlns="http://www.w3.org/2000/svg" viewBox="0 0 175 175" id="shape11">
    <path
      d="M45.5 57C51.8516 57 57 51.8511 57 45.5C57 39.1489 51.8516 34 45.5 34C39.1484 34 34 39.1489 34 45.5C34 51.8511 39.1484 57 45.5 57Z">
    </path>
    <path
      d="M73.5 57C79.8516 57 85 51.8511 85 45.5C85 39.1489 79.8516 34 73.5 34C67.1484 34 62 39.1489 62 45.5C62 51.8511 67.1484 57 73.5 57Z">
    </path>
    <path
      d="M113 45.5C113 51.8511 107.852 57 101.5 57C95.1484 57 90 51.8511 90 45.5C90 39.1489 95.1484 34 101.5 34C107.852 34 113 39.1489 113 45.5Z">
    </path>
    <path
      d="M129.5 57C135.852 57 141 51.8511 141 45.5C141 39.1489 135.852 34 129.5 34C123.148 34 118 39.1489 118 45.5C118 51.8511 123.148 57 129.5 57Z">
    </path>
    <path
      d="M57 73.5C57 79.8511 51.8516 85 45.5 85C39.1484 85 34 79.8511 34 73.5C34 67.1489 39.1484 62 45.5 62C51.8516 62 57 67.1489 57 73.5Z">
    </path>
    <path
      d="M73.5 85C79.8516 85 85 79.8511 85 73.5C85 67.1489 79.8516 62 73.5 62C67.1484 62 62 67.1489 62 73.5C62 79.8511 67.1484 85 73.5 85Z">
    </path>
    <path
      d="M113 73.5C113 79.8511 107.852 85 101.5 85C95.1484 85 90 79.8511 90 73.5C90 67.1489 95.1484 62 101.5 62C107.852 62 113 67.1489 113 73.5Z">
    </path>
    <path
      d="M129.5 85C135.852 85 141 79.8511 141 73.5C141 67.1489 135.852 62 129.5 62C123.148 62 118 67.1489 118 73.5C118 79.8511 123.148 85 129.5 85Z">
    </path>
    <path
      d="M57 101.5C57 107.851 51.8516 113 45.5 113C39.1484 113 34 107.851 34 101.5C34 95.1489 39.1484 90 45.5 90C51.8516 90 57 95.1489 57 101.5Z">
    </path>
    <path
      d="M73.5 113C79.8516 113 85 107.851 85 101.5C85 95.1489 79.8516 90 73.5 90C67.1484 90 62 95.1489 62 101.5C62 107.851 67.1484 113 73.5 113Z">
    </path>
    <path
      d="M113 101.5C113 107.851 107.852 113 101.5 113C95.1484 113 90 107.851 90 101.5C90 95.1489 95.1484 90 101.5 90C107.852 90 113 95.1489 113 101.5Z">
    </path>
    <path
      d="M129.5 113C135.852 113 141 107.851 141 101.5C141 95.1489 135.852 90 129.5 90C123.148 90 118 95.1489 118 101.5C118 107.851 123.148 113 129.5 113Z">
    </path>
    <path
      d="M57 129.5C57 135.851 51.8516 141 45.5 141C39.1484 141 34 135.851 34 129.5C34 123.149 39.1484 118 45.5 118C51.8516 118 57 123.149 57 129.5Z">
    </path>
    <path
      d="M73.5 141C79.8516 141 85 135.851 85 129.5C85 123.149 79.8516 118 73.5 118C67.1484 118 62 123.149 62 129.5C62 135.851 67.1484 141 73.5 141Z">
    </path>
    <path
      d="M113 129.5C113 135.851 107.852 141 101.5 141C95.1484 141 90 135.851 90 129.5C90 123.149 95.1484 118 101.5 118C107.852 118 113 123.149 113 129.5Z">
    </path>
    <path
      d="M129.5 141C135.852 141 141 135.851 141 129.5C141 123.149 135.852 118 129.5 118C123.148 118 118 123.149 118 129.5C118 135.851 123.148 141 129.5 141Z">
    </path>
  </symbol>
  <symbol xmlns="http://www.w3.org/2000/svg" viewBox="0 0 175 175" id="shape12">
    <path
      d="M59.1279 43.3213C51.3959 43.3213 45.1279 49.5893 45.1279 57.3213V96.8711C45.1279 104.603 51.3959 110.871 59.1279 110.871H62.3223V117.678C62.3223 125.41 68.5903 131.678 76.3223 131.678H115.872C123.604 131.678 129.872 125.41 129.872 117.678V78.1284C129.872 70.3964 123.604 64.1284 115.872 64.1284H112.678V57.3213C112.678 49.5893 106.41 43.3213 98.6777 43.3213H59.1279Z">
    </path>
  </symbol>
  <symbol xmlns="http://www.w3.org/2000/svg" viewBox="0 0 175 175" id="shape13">
    <path fill-rule="evenodd" clip-rule="evenodd"
      d="M105.169 37.1967C101.538 30.9344 92.4621 30.9344 88.8312 37.1967L71.1076 67.767L68.0246 62.4242C64.2365 55.8583 54.7638 55.8583 50.9757 62.4242L24.8332 107.727C21.0451 114.293 25.7804 122.5 33.3586 122.5H83.8498L80.8332 127.727C77.0451 134.293 81.7804 142.5 89.3586 142.5H141.642C149.22 142.5 153.955 134.293 150.167 127.727L129.148 91.3021C131.646 88.4462 132.39 84.1483 130.222 80.4091L105.169 37.1967ZM100.007 94.4999H86.5343L93.2707 106.174L100.007 94.4999Z">
    </path>
  </symbol>
  <symbol xmlns="http://www.w3.org/2000/svg" viewBox="0 0 366 455" id="page_stroke_02">
    <path
      d="M158.505 413C233.466 378.108 352.344 228.411 334.128 246.05C309.498 269.9 104.961 360 30 366.625C30 366.625 314.852 198.35 324.49 161.25C334.128 124.15 106.032 257.975 115.67 240.75C125.308 223.525 248.458 122.825 246.316 113.55C244.175 104.275 97.465 190.4 97.465 190.4L175.639 98.975L97.465 126.8L140.3 42"
      stroke-linecap="round" stroke-linejoin="round"></path>
  </symbol>
  <symbol fill="none" xmlns="http://www.w3.org/2000/svg" viewBox="0 0 334 473" id="page_stroke_01">
    <path
      d="M204.074 431C293.779 390.26 316.431 314.576 301.617 326.116C281.586 341.718 214.526 385.926 153.562 390.26C153.562 390.26 288.553 280.175 301.617 257.638C226.903 268.039 37.9144 421.465 27.2789 405.862C-21.3077 385.059 360.838 156.221 316.422 165.755C272.006 175.29 109.145 289.71 109.145 289.71L220.621 157.954L45.5676 278.441C45.5676 278.441 223.419 61.738 99.7493 34"
      stroke-linecap="round" stroke-linejoin="round"></path>
  </symbol>
  <symbol xmlns="http://www.w3.org/2000/svg" viewBox="0 0 57 23" id="page_arrow_shot">
    <path fill-rule="evenodd" clip-rule="evenodd"
      d="M46.8633 0.439336L56.4092 9.98528C56.995 10.5711 56.995 11.5208 56.4092 12.1066L46.8633 21.6525C46.2775 22.2383 45.3278 22.2383 44.742 21.6525C44.1562 21.0668 44.1562 20.117 44.742 19.5312L51.7273 12.5459L1.5 12.5459C0.671574 12.5459 1.16458e-06 11.8744 1.08333e-06 11.0459C1.00208e-06 10.2175 0.671574 9.54594 1.5 9.54594L51.7273 9.54594L44.742 2.56066C44.1562 1.97487 44.1562 1.02512 44.742 0.439337C45.3278 -0.14645 46.2775 -0.14645 46.8633 0.439336Z">
    </path>
  </symbol>
  <symbol xmlns="http://www.w3.org/2000/svg" viewBox="0 0 177 180" id="page_arrow_long">
    <path fill-rule="evenodd" clip-rule="evenodd"
      d="M0.668256 132.743C1.18921 132.56 1.76018 132.833 1.94355 133.354C12.3795 163.003 59.2644 187.196 87.7604 174.279C99.8601 168.795 108.513 158.26 113.641 146.038C110.679 146.431 107.624 146.634 104.479 146.634C79.6132 146.634 54.722 115.592 61.362 90.8569C63.2951 83.6559 68.3696 78.016 77.2709 75.8051C102.945 69.4281 119.285 89.1631 121.025 113.157C121.74 123.032 120.325 133.673 116.77 143.511C146.15 138 165.665 112.95 172.402 84.7261C179.831 53.6025 171.611 19.1081 144.36 3.21315L149.624 16.6713C149.825 17.1857 149.571 17.7657 149.057 17.9669C148.543 18.168 147.962 17.9142 147.761 17.3998L141.49 1.36426C141.37 1.05649 141.409 0.709139 141.595 0.43622C141.782 0.163286 142.091 3.2212e-05 142.421 3.22159e-05L159.668 3.24216e-05C160.22 3.24282e-05 160.668 0.447741 160.668 1.00003C160.668 1.55231 160.22 2.00003 159.668 2.00003L146.235 2.00003C173.815 18.703 181.819 53.8873 174.347 85.1904C167.397 114.306 146.965 140.477 115.941 145.693C110.72 158.781 101.609 170.198 88.5861 176.101C59.0417 189.493 10.8766 164.757 0.0569996 134.018C-0.126368 133.497 0.147301 132.926 0.668256 132.743ZM114.498 143.895C118.233 134.075 119.756 123.321 119.03 113.302C117.379 90.5324 102.215 71.6704 77.753 77.7461C69.5647 79.7799 65.04 84.8697 63.2936 91.3755C56.9884 114.864 80.9063 144.634 104.479 144.634C107.93 144.634 111.271 144.381 114.498 143.895Z">
    </path>
  </symbol>
</svg>
