<svg width="0" height="0" class="hidden">
  <symbol fill="none" xmlns="http://www.w3.org/2000/svg" viewBox="0 0 96 96" id="cookie">
    <path
      d="M34.2534 9.20851C37.4722 10.731 41.3148 9.85398 43.5543 7.08565C45.8429 4.25648 50.1571 4.25649 52.4457 7.08565C54.6852 9.85398 58.5278 10.731 61.7466 9.20851C65.0361 7.65254 68.923 9.52437 69.7575 13.0664C70.5741 16.5322 73.6556 18.9897 77.2163 19.0145C80.8551 19.0399 83.545 22.4128 82.76 25.9661C81.9919 29.443 83.702 32.9941 86.8993 34.5614C90.1668 36.1632 91.1268 40.3691 88.8778 43.23C86.6772 46.0293 86.6772 49.9707 88.8778 52.77C91.1268 55.6309 90.1668 59.8368 86.8993 61.4386C83.702 63.0059 81.9919 66.557 82.76 70.0339C83.545 73.5872 80.8551 76.9601 77.2163 76.9855C73.6556 77.0103 70.5741 79.4678 69.7575 82.9336C68.923 86.4756 65.0361 88.3475 61.7466 86.7915C58.5278 85.269 54.6852 86.146 52.4457 88.9143C50.1571 91.7435 45.8429 91.7435 43.5543 88.9144C41.3148 86.146 37.4722 85.269 34.2534 86.7915C30.9638 88.3475 27.077 86.4756 26.2425 82.9336C25.4259 79.4678 22.3444 77.0103 18.7837 76.9855C15.1449 76.9601 12.455 73.5872 13.24 70.0339C14.0081 66.557 12.298 63.0059 9.10073 61.4386C5.83322 59.8368 4.87323 55.6309 7.12219 52.77C9.32278 49.9707 9.32278 46.0293 7.12219 43.23C4.87323 40.3691 5.83322 36.1632 9.10073 34.5614C12.298 32.9941 14.0081 29.443 13.24 25.9661C12.455 22.4128 15.1449 19.0399 18.7837 19.0145C22.3444 18.9897 25.4259 16.5322 26.2425 13.0664C27.077 9.52437 30.9639 7.65254 34.2534 9.20851Z"
      stroke-width="2"></path>
  </symbol>
  <symbol fill="none" xmlns="http://www.w3.org/2000/svg" viewBox="0 0 96 96" id="list">
    <path
      d="M80 42V11C80 7.68629 77.3137 5 74 5H22C18.6863 5 16 7.68629 16 11V84C16 87.3137 18.6863 90 22 90H35M27 16.5H59.5M27 40.5H54.5M27 28.5H68M27 52H41.5M27 64H33M27 76H35"
      stroke="#373737" stroke-width="2" stroke-linecap="round"></path>
  </symbol>
  <symbol xmlns="http://www.w3.org/2000/svg" viewBox="0 0 24 24" id="camps">
    <path
      d="M2 22V17.35L10.75 5.55L9 3.2L10.6 2L12 3.875L13.4 2L15 3.2L13.25 5.55L22 17.35V22H2ZM8.225 20H15.775L12 14.725L8.225 20Z">
    </path>
  </symbol>
  <symbol xmlns="http://www.w3.org/2000/svg" viewBox="0 0 24 24" id="useful">
    <path
      d="M12 21.0001C10.05 21.0001 8.39583 20.3209 7.0375 18.9626C5.67917 17.6042 5 15.9501 5 14.0001C5 12.4334 5.4625 11.0292 6.3875 9.78757C7.3125 8.5459 8.525 7.7084 10.025 7.27507C9.475 7.14173 8.99583 6.90423 8.5875 6.56257C8.17917 6.2209 7.85 5.8084 7.6 5.32507C7.35 4.84173 7.175 4.31673 7.075 3.75007C6.975 3.1834 6.95833 2.6084 7.025 2.02507C7.70833 1.94173 8.35833 1.9834 8.975 2.15007C9.59167 2.31673 10.15 2.5834 10.65 2.95007C11.15 3.31673 11.5625 3.7584 11.8875 4.27507C12.2125 4.79173 12.4083 5.37507 12.475 6.02507C12.6917 5.5084 12.9542 5.0209 13.2625 4.56257C13.5708 4.10423 13.9167 3.6834 14.3 3.30007C14.4833 3.11673 14.7167 3.02507 15 3.02507C15.2833 3.02507 15.5167 3.11673 15.7 3.30007C15.8833 3.4834 15.975 3.71673 15.975 4.00007C15.975 4.2834 15.8833 4.51673 15.7 4.70007C15.3333 5.06673 15.0083 5.4709 14.725 5.91257C14.4417 6.35423 14.2333 6.82507 14.1 7.32507C15.5667 7.79173 16.75 8.63757 17.65 9.86257C18.55 11.0876 19 12.4667 19 14.0001C19 15.9501 18.3208 17.6042 16.9625 18.9626C15.6042 20.3209 13.95 21.0001 12 21.0001Z">
    </path>
  </symbol>
  <symbol xmlns="http://www.w3.org/2000/svg" viewBox="0 0 24 24" id="clubs">
    <path
      d="M12 22C10.6333 22 9.34167 21.7375 8.125 21.2125C6.90833 20.6875 5.84583 19.9708 4.9375 19.0625C4.02917 18.1542 3.3125 17.0917 2.7875 15.875C2.2625 14.6583 2 13.3667 2 12C2 10.6167 2.27083 9.31667 2.8125 8.1C3.35417 6.88333 4.0875 5.825 5.0125 4.925C5.9375 4.025 7.01667 3.3125 8.25 2.7875C9.48333 2.2625 10.8 2 12.2 2C13.5333 2 14.7917 2.22917 15.975 2.6875C17.1583 3.14583 18.1958 3.77917 19.0875 4.5875C19.9792 5.39583 20.6875 6.35417 21.2125 7.4625C21.7375 8.57083 22 9.76667 22 11.05C22 12.9667 21.4167 14.4375 20.25 15.4625C19.0833 16.4875 17.6667 17 16 17H14.15C14 17 13.8958 17.0417 13.8375 17.125C13.7792 17.2083 13.75 17.3 13.75 17.4C13.75 17.6 13.875 17.8875 14.125 18.2625C14.375 18.6375 14.5 19.0667 14.5 19.55C14.5 20.3833 14.2708 21 13.8125 21.4C13.3542 21.8 12.75 22 12 22ZM6.5 13C6.93333 13 7.29167 12.8583 7.575 12.575C7.85833 12.2917 8 11.9333 8 11.5C8 11.0667 7.85833 10.7083 7.575 10.425C7.29167 10.1417 6.93333 10 6.5 10C6.06667 10 5.70833 10.1417 5.425 10.425C5.14167 10.7083 5 11.0667 5 11.5C5 11.9333 5.14167 12.2917 5.425 12.575C5.70833 12.8583 6.06667 13 6.5 13ZM9.5 9C9.93333 9 10.2917 8.85833 10.575 8.575C10.8583 8.29167 11 7.93333 11 7.5C11 7.06667 10.8583 6.70833 10.575 6.425C10.2917 6.14167 9.93333 6 9.5 6C9.06667 6 8.70833 6.14167 8.425 6.425C8.14167 6.70833 8 7.06667 8 7.5C8 7.93333 8.14167 8.29167 8.425 8.575C8.70833 8.85833 9.06667 9 9.5 9ZM14.5 9C14.9333 9 15.2917 8.85833 15.575 8.575C15.8583 8.29167 16 7.93333 16 7.5C16 7.06667 15.8583 6.70833 15.575 6.425C15.2917 6.14167 14.9333 6 14.5 6C14.0667 6 13.7083 6.14167 13.425 6.425C13.1417 6.70833 13 7.06667 13 7.5C13 7.93333 13.1417 8.29167 13.425 8.575C13.7083 8.85833 14.0667 9 14.5 9ZM17.5 13C17.9333 13 18.2917 12.8583 18.575 12.575C18.8583 12.2917 19 11.9333 19 11.5C19 11.0667 18.8583 10.7083 18.575 10.425C18.2917 10.1417 17.9333 10 17.5 10C17.0667 10 16.7083 10.1417 16.425 10.425C16.1417 10.7083 16 11.0667 16 11.5C16 11.9333 16.1417 12.2917 16.425 12.575C16.7083 12.8583 17.0667 13 17.5 13Z">
    </path>
  </symbol>
  <symbol xmlns="http://www.w3.org/2000/svg" viewBox="0 0 24 24" id="concerts">
    <path
      d="M7 22C5.33333 22 3.91667 21.4167 2.75 20.25C1.58333 19.0833 1 17.6667 1 16V9H13V16C13 17.6667 12.4167 19.0833 11.25 20.25C10.0833 21.4167 8.66667 22 7 22ZM5 14.5C5.28333 14.5 5.52083 14.4042 5.7125 14.2125C5.90417 14.0208 6 13.7833 6 13.5C6 13.2167 5.90417 12.9792 5.7125 12.7875C5.52083 12.5958 5.28333 12.5 5 12.5C4.71667 12.5 4.47917 12.5958 4.2875 12.7875C4.09583 12.9792 4 13.2167 4 13.5C4 13.7833 4.09583 14.0208 4.2875 14.2125C4.47917 14.4042 4.71667 14.5 5 14.5ZM7 17.9C7.65 17.9 8.22917 17.7292 8.7375 17.3875C9.24583 17.0458 9.5 16.5833 9.5 16H4.5C4.5 16.5833 4.75417 17.0458 5.2625 17.3875C5.77083 17.7292 6.35 17.9 7 17.9ZM9 14.5C9.28333 14.5 9.52083 14.4042 9.7125 14.2125C9.90417 14.0208 10 13.7833 10 13.5C10 13.2167 9.90417 12.9792 9.7125 12.7875C9.52083 12.5958 9.28333 12.5 9 12.5C8.71667 12.5 8.47917 12.5958 8.2875 12.7875C8.09583 12.9792 8 13.2167 8 13.5C8 13.7833 8.09583 14.0208 8.2875 14.2125C8.47917 14.4042 8.71667 14.5 9 14.5ZM17 15C16.5667 15 16.1375 14.9542 15.7125 14.8625C15.2875 14.7708 14.8833 14.6333 14.5 14.45V7.5H11V2H23V9C23 10.6667 22.4167 12.0833 21.25 13.25C20.0833 14.4167 18.6667 15 17 15ZM15 7.5C15.2833 7.5 15.5208 7.40417 15.7125 7.2125C15.9042 7.02083 16 6.78333 16 6.5C16 6.21667 15.9042 5.97917 15.7125 5.7875C15.5208 5.59583 15.2833 5.5 15 5.5C14.7167 5.5 14.4792 5.59583 14.2875 5.7875C14.0958 5.97917 14 6.21667 14 6.5C14 6.78333 14.0958 7.02083 14.2875 7.2125C14.4792 7.40417 14.7167 7.5 15 7.5ZM14.5 10.9H19.5C19.5 10.3167 19.2458 9.85417 18.7375 9.5125C18.2292 9.17083 17.65 9 17 9C16.4333 9 15.875 9.15 15.325 9.45C14.775 9.75 14.5 10.2333 14.5 10.9ZM19 7.5C19.2833 7.5 19.5208 7.40417 19.7125 7.2125C19.9042 7.02083 20 6.78333 20 6.5C20 6.21667 19.9042 5.97917 19.7125 5.7875C19.5208 5.59583 19.2833 5.5 19 5.5C18.7167 5.5 18.4792 5.59583 18.2875 5.7875C18.0958 5.97917 18 6.21667 18 6.5C18 6.78333 18.0958 7.02083 18.2875 7.2125C18.4792 7.40417 18.7167 7.5 19 7.5Z">
    </path>
  </symbol>
  <symbol xmlns="http://www.w3.org/2000/svg" viewBox="0 0 24 24" id="celebrations">
    <path
      d="M2 22L7 8L16 17L2 22ZM14.55 12.55L13.5 11.5L19.1 5.9C19.6333 5.36667 20.275 5.1 21.025 5.1C21.775 5.1 22.4167 5.36667 22.95 5.9L23.55 6.5L22.5 7.55L21.9 6.95C21.6667 6.71667 21.375 6.6 21.025 6.6C20.675 6.6 20.3833 6.71667 20.15 6.95L14.55 12.55ZM10.55 8.55L9.5 7.5L10.1 6.9C10.3333 6.66667 10.45 6.38333 10.45 6.05C10.45 5.71667 10.3333 5.43333 10.1 5.2L9.45 4.55L10.5 3.5L11.15 4.15C11.6833 4.68333 11.95 5.31667 11.95 6.05C11.95 6.78333 11.6833 7.41667 11.15 7.95L10.55 8.55ZM12.55 10.55L11.5 9.5L15.1 5.9C15.3333 5.66667 15.45 5.375 15.45 5.025C15.45 4.675 15.3333 4.38333 15.1 4.15L13.5 2.55L14.55 1.5L16.15 3.1C16.6833 3.63333 16.95 4.275 16.95 5.025C16.95 5.775 16.6833 6.41667 16.15 6.95L12.55 10.55ZM16.55 14.55L15.5 13.5L17.1 11.9C17.6333 11.3667 18.275 11.1 19.025 11.1C19.775 11.1 20.4167 11.3667 20.95 11.9L22.55 13.5L21.5 14.55L19.9 12.95C19.6667 12.7167 19.375 12.6 19.025 12.6C18.675 12.6 18.3833 12.7167 18.15 12.95L16.55 14.55Z">
    </path>
  </symbol>
  <symbol xmlns="http://www.w3.org/2000/svg" viewBox="0 0 24 24" id="festivals">
    <path
      d="M2 22C2.48333 20.7667 2.80417 19.4958 2.9625 18.1875C3.12083 16.8792 3.21667 15.5667 3.25 14.25C2.6 14 2.0625 13.5833 1.6375 13C1.2125 12.4167 1 11.75 1 11V9C2.91667 8.36667 4.87083 7.4 6.8625 6.1C8.85417 4.8 10.5667 3.43333 12 2C13.4333 3.43333 15.1458 4.8 17.1375 6.1C19.1292 7.4 21.0833 8.36667 23 9V11C23 11.75 22.7875 12.4167 22.3625 13C21.9375 13.5833 21.4 14 20.75 14.25C20.7833 15.5667 20.8792 16.8792 21.0375 18.1875C21.1958 19.4958 21.5167 20.7667 22 22H2ZM5.9 9H18.1C16.8 8.26667 15.6292 7.5125 14.5875 6.7375C13.5458 5.9625 12.6833 5.28333 12 4.7C11.3167 5.28333 10.4542 5.9625 9.4125 6.7375C8.37083 7.5125 7.2 8.26667 5.9 9ZM14.5 12.5C14.9167 12.5 15.2708 12.3542 15.5625 12.0625C15.8542 11.7708 16 11.4167 16 11H13C13 11.4167 13.1458 11.7708 13.4375 12.0625C13.7292 12.3542 14.0833 12.5 14.5 12.5ZM9.5 12.5C9.91667 12.5 10.2708 12.3542 10.5625 12.0625C10.8542 11.7708 11 11.4167 11 11H8C8 11.4167 8.14583 11.7708 8.4375 12.0625C8.72917 12.3542 9.08333 12.5 9.5 12.5ZM4.5 12.5C4.91667 12.5 5.27083 12.3542 5.5625 12.0625C5.85417 11.7708 6 11.4167 6 11H3C3 11.4167 3.14583 11.7708 3.4375 12.0625C3.72917 12.3542 4.08333 12.5 4.5 12.5ZM4.65 20H7.325C7.475 19 7.59167 18.0083 7.675 17.025C7.75833 16.0417 7.825 15.05 7.875 14.05C7.725 13.9667 7.575 13.8792 7.425 13.7875C7.275 13.6958 7.13333 13.5833 7 13.45C6.75 13.7 6.47917 13.9042 6.1875 14.0625C5.89583 14.2208 5.58333 14.3417 5.25 14.425C5.21667 15.375 5.15833 16.3125 5.075 17.2375C4.99167 18.1625 4.85 19.0833 4.65 20ZM9.35 20H14.65C14.5167 19.0833 14.4125 18.1667 14.3375 17.25C14.2625 16.3333 14.2 15.4083 14.15 14.475C13.7167 14.4417 13.3208 14.3375 12.9625 14.1625C12.6042 13.9875 12.2833 13.7583 12 13.475C11.7167 13.7583 11.3875 13.9875 11.0125 14.1625C10.6375 14.3375 10.25 14.4417 9.85 14.475C9.8 15.4083 9.7375 16.3333 9.6625 17.25C9.5875 18.1667 9.48333 19.0833 9.35 20ZM16.675 20H19.35C19.15 19.0833 19.0083 18.1625 18.925 17.2375C18.8417 16.3125 18.7833 15.375 18.75 14.425C18.4167 14.3417 18.1 14.2208 17.8 14.0625C17.5 13.9042 17.2333 13.7 17 13.45C16.8667 13.5833 16.725 13.6958 16.575 13.7875C16.425 13.8792 16.275 13.9667 16.125 14.05C16.175 15.05 16.2458 16.0417 16.3375 17.025C16.4292 18.0083 16.5417 19 16.675 20ZM19.5 12.5C19.9167 12.5 20.2708 12.3542 20.5625 12.0625C20.8542 11.7708 21 11.4167 21 11H18C18 11.4167 18.1458 11.7708 18.4375 12.0625C18.7292 12.3542 19.0833 12.5 19.5 12.5Z">
    </path>
  </symbol>
  <symbol xmlns="http://www.w3.org/2000/svg" viewBox="0 0 24 24" id="travels">
    <path
      d="M6 21C5.71667 21 5.47917 20.9042 5.2875 20.7125C5.09583 20.5208 5 20.2833 5 20V17.95C4.7 17.6167 4.45833 17.2458 4.275 16.8375C4.09167 16.4292 4 15.9833 4 15.5V6C4 4.61667 4.64167 3.60417 5.925 2.9625C7.20833 2.32083 9.23333 2 12 2C14.8667 2 16.9167 2.30833 18.15 2.925C19.3833 3.54167 20 4.56667 20 6V15.5C20 15.9833 19.9083 16.4292 19.725 16.8375C19.5417 17.2458 19.3 17.6167 19 17.95V20C19 20.2833 18.9042 20.5208 18.7125 20.7125C18.5208 20.9042 18.2833 21 18 21H17C16.7167 21 16.4792 20.9042 16.2875 20.7125C16.0958 20.5208 16 20.2833 16 20V19H8V20C8 20.2833 7.90417 20.5208 7.7125 20.7125C7.52083 20.9042 7.28333 21 7 21H6ZM6 10H18V7H6V10ZM8.5 16C8.91667 16 9.27083 15.8542 9.5625 15.5625C9.85417 15.2708 10 14.9167 10 14.5C10 14.0833 9.85417 13.7292 9.5625 13.4375C9.27083 13.1458 8.91667 13 8.5 13C8.08333 13 7.72917 13.1458 7.4375 13.4375C7.14583 13.7292 7 14.0833 7 14.5C7 14.9167 7.14583 15.2708 7.4375 15.5625C7.72917 15.8542 8.08333 16 8.5 16ZM15.5 16C15.9167 16 16.2708 15.8542 16.5625 15.5625C16.8542 15.2708 17 14.9167 17 14.5C17 14.0833 16.8542 13.7292 16.5625 13.4375C16.2708 13.1458 15.9167 13 15.5 13C15.0833 13 14.7292 13.1458 14.4375 13.4375C14.1458 13.7292 14 14.0833 14 14.5C14 14.9167 14.1458 15.2708 14.4375 15.5625C14.7292 15.8542 15.0833 16 15.5 16Z">
    </path>
  </symbol>
  <symbol xmlns="http://www.w3.org/2000/svg" viewBox="0 0 24 24" id="projects">
    <path
      d="M4 21C3.45 21 2.97917 20.8042 2.5875 20.4125C2.19583 20.0208 2 19.55 2 19V15H9V17H15V15H22V19C22 19.55 21.8042 20.0208 21.4125 20.4125C21.0208 20.8042 20.55 21 20 21H4ZM11 15V13H13V15H11ZM2 13V8C2 7.45 2.19583 6.97917 2.5875 6.5875C2.97917 6.19583 3.45 6 4 6H8V4C8 3.45 8.19583 2.97917 8.5875 2.5875C8.97917 2.19583 9.45 2 10 2H14C14.55 2 15.0208 2.19583 15.4125 2.5875C15.8042 2.97917 16 3.45 16 4V6H20C20.55 6 21.0208 6.19583 21.4125 6.5875C21.8042 6.97917 22 7.45 22 8V13H15V11H9V13H2ZM10 6H14V4H10V6Z">
    </path>
  </symbol>
  <symbol xmlns="http://www.w3.org/2000/svg" viewBox="0 0 24 24" id="masters">
    <path
      d="M18 21H8V8L15 1L16.25 2.25C16.3667 2.36667 16.4625 2.525 16.5375 2.725C16.6125 2.925 16.65 3.11667 16.65 3.3V3.65L15.55 8H21C21.5333 8 22 8.2 22.4 8.6C22.8 9 23 9.46667 23 10V12C23 12.1167 22.9875 12.2417 22.9625 12.375C22.9375 12.5083 22.9 12.6333 22.85 12.75L19.85 19.8C19.7 20.1333 19.45 20.4167 19.1 20.65C18.75 20.8833 18.3833 21 18 21ZM6 8V21H2V8H6Z">
    </path>
  </symbol>
  <symbol xmlns="http://www.w3.org/2000/svg" viewBox="0 0 24 24" id="courses">
    <path
      d="M7.475 21C5.95833 21 4.66667 20.4667 3.6 19.4C2.53333 18.3333 2 17.0417 2 15.525C2 14.0917 2.47917 12.8542 3.4375 11.8125C4.39583 10.7708 5.59167 10.1917 7.025 10.075L3 2H10L12 6L14 2H21L17 10.025C18.4167 10.1583 19.6042 10.7458 20.5625 11.7875C21.5208 12.8292 22 14.0667 22 15.5C22 17.0333 21.4667 18.3333 20.4 19.4C19.3333 20.4667 18.0333 21 16.5 21C16.35 21 16.1958 20.9958 16.0375 20.9875C15.8792 20.9792 15.725 20.9583 15.575 20.925C16.4917 20.325 17.2083 19.5458 17.725 18.5875C18.2417 17.6292 18.5 16.6 18.5 15.5C18.5 13.6833 17.8708 12.1458 16.6125 10.8875C15.3542 9.62917 13.8167 9 12 9C10.1833 9 8.64583 9.62917 7.3875 10.8875C6.12917 12.1458 5.5 13.6833 5.5 15.5C5.5 16.6333 5.73333 17.7 6.2 18.7C6.66667 19.7 7.4 20.4417 8.4 20.925C8.25 20.9583 8.09583 20.9792 7.9375 20.9875C7.77917 20.9958 7.625 21 7.475 21ZM12 20C10.75 20 9.6875 19.5625 8.8125 18.6875C7.9375 17.8125 7.5 16.75 7.5 15.5C7.5 14.25 7.9375 13.1875 8.8125 12.3125C9.6875 11.4375 10.75 11 12 11C13.25 11 14.3125 11.4375 15.1875 12.3125C16.0625 13.1875 16.5 14.25 16.5 15.5C16.5 16.75 16.0625 17.8125 15.1875 18.6875C14.3125 19.5625 13.25 20 12 20ZM10.15 18.25L12 16.85L13.85 18.25L13.15 15.975L15 14.65H12.725L12 12.25L11.275 14.65H9L10.85 15.975L10.15 18.25Z">
    </path>
  </symbol>
  <symbol xmlns="http://www.w3.org/2000/svg" viewBox="0 0 24 24" id="parents">
    <path
      d="M10.7 12.725L9.85 11.45C9.76667 11.3167 9.65 11.2083 9.5 11.125C9.35 11.0417 9.19167 11 9.025 11H2.475C2.29167 10.5667 2.16667 10.15 2.1 9.75C2.03333 9.35 2 8.93333 2 8.5C2 6.93333 2.525 5.625 3.575 4.575C4.625 3.525 5.93333 3 7.5 3C8.36667 3 9.19167 3.18333 9.975 3.55C10.7583 3.91667 11.4333 4.43333 12 5.1C12.5667 4.43333 13.2417 3.91667 14.025 3.55C14.8083 3.18333 15.6333 3 16.5 3C18.0667 3 19.375 3.525 20.425 4.575C21.475 5.625 22 6.93333 22 8.5C22 8.93333 21.9667 9.35 21.9 9.75C21.8333 10.15 21.7083 10.5667 21.525 11H15.575L13.85 8.45C13.75 8.3 13.6208 8.1875 13.4625 8.1125C13.3042 8.0375 13.1333 8 12.95 8C12.7333 8 12.5458 8.0625 12.3875 8.1875C12.2292 8.3125 12.1167 8.475 12.05 8.675L10.7 12.725ZM12 21.35L10.55 20.05C8.8 18.4833 7.36667 17.1417 6.25 16.025C5.13333 14.9083 4.25833 13.9 3.625 13H8.425L10.15 15.55C10.25 15.7 10.3792 15.8125 10.5375 15.8875C10.6958 15.9625 10.8667 16 11.05 16C11.2667 16 11.4542 15.9375 11.6125 15.8125C11.7708 15.6875 11.8833 15.525 11.95 15.325L13.3 11.25L14.175 12.55C14.2583 12.6833 14.375 12.7917 14.525 12.875C14.675 12.9583 14.8333 13 15 13H20.375C19.7417 13.9 18.8667 14.9083 17.75 16.025C16.6333 17.1417 15.2 18.4833 13.45 20.05L12 21.35Z">
    </path>
  </symbol>
  <symbol xmlns="http://www.w3.org/2000/svg" viewBox="0 0 24 24" id="gallery">
    <path
      d="M9 14H19L15.55 9.5L13.25 12.5L11.7 10.5L9 14ZM8 18C7.45 18 6.97917 17.8042 6.5875 17.4125C6.19583 17.0208 6 16.55 6 16V4C6 3.45 6.19583 2.97917 6.5875 2.5875C6.97917 2.19583 7.45 2 8 2H20C20.55 2 21.0208 2.19583 21.4125 2.5875C21.8042 2.97917 22 3.45 22 4V16C22 16.55 21.8042 17.0208 21.4125 17.4125C21.0208 17.8042 20.55 18 20 18H8ZM4 22C3.45 22 2.97917 21.8042 2.5875 21.4125C2.19583 21.0208 2 20.55 2 20V6H4V20H18V22H4Z">
    </path>
  </symbol>
  <symbol xmlns="http://www.w3.org/2000/svg" viewBox="0 0 24 24" id="rules-and-payments">
    <path
      d="M3 20C2.45 20 1.97917 19.8042 1.5875 19.4125C1.19583 19.0208 1 18.55 1 18V7H3V18H20V20H3ZM7 16C6.45 16 5.97917 15.8042 5.5875 15.4125C5.19583 15.0208 5 14.55 5 14V6C5 5.45 5.19583 4.97917 5.5875 4.5875C5.97917 4.19583 6.45 4 7 4H21C21.55 4 22.0208 4.19583 22.4125 4.5875C22.8042 4.97917 23 5.45 23 6V14C23 14.55 22.8042 15.0208 22.4125 15.4125C22.0208 15.8042 21.55 16 21 16H7ZM9 14C9 13.45 8.80417 12.9792 8.4125 12.5875C8.02083 12.1958 7.55 12 7 12V14H9ZM19 14H21V12C20.45 12 19.9792 12.1958 19.5875 12.5875C19.1958 12.9792 19 13.45 19 14ZM14 13C14.8333 13 15.5417 12.7083 16.125 12.125C16.7083 11.5417 17 10.8333 17 10C17 9.16667 16.7083 8.45833 16.125 7.875C15.5417 7.29167 14.8333 7 14 7C13.1667 7 12.4583 7.29167 11.875 7.875C11.2917 8.45833 11 9.16667 11 10C11 10.8333 11.2917 11.5417 11.875 12.125C12.4583 12.7083 13.1667 13 14 13ZM7 8C7.55 8 8.02083 7.80417 8.4125 7.4125C8.80417 7.02083 9 6.55 9 6H7V8ZM21 8V6H19C19 6.55 19.1958 7.02083 19.5875 7.4125C19.9792 7.80417 20.45 8 21 8Z">
    </path>
  </symbol>
  <symbol xmlns="http://www.w3.org/2000/svg" viewBox="0 0 24 24" id="calendar">
    <path
      d="M12 14C11.7167 14 11.4792 13.9042 11.2875 13.7125C11.0958 13.5208 11 13.2833 11 13C11 12.7167 11.0958 12.4792 11.2875 12.2875C11.4792 12.0958 11.7167 12 12 12C12.2833 12 12.5208 12.0958 12.7125 12.2875C12.9042 12.4792 13 12.7167 13 13C13 13.2833 12.9042 13.5208 12.7125 13.7125C12.5208 13.9042 12.2833 14 12 14ZM8 14C7.71667 14 7.47917 13.9042 7.2875 13.7125C7.09583 13.5208 7 13.2833 7 13C7 12.7167 7.09583 12.4792 7.2875 12.2875C7.47917 12.0958 7.71667 12 8 12C8.28333 12 8.52083 12.0958 8.7125 12.2875C8.90417 12.4792 9 12.7167 9 13C9 13.2833 8.90417 13.5208 8.7125 13.7125C8.52083 13.9042 8.28333 14 8 14ZM16 14C15.7167 14 15.4792 13.9042 15.2875 13.7125C15.0958 13.5208 15 13.2833 15 13C15 12.7167 15.0958 12.4792 15.2875 12.2875C15.4792 12.0958 15.7167 12 16 12C16.2833 12 16.5208 12.0958 16.7125 12.2875C16.9042 12.4792 17 12.7167 17 13C17 13.2833 16.9042 13.5208 16.7125 13.7125C16.5208 13.9042 16.2833 14 16 14ZM12 18C11.7167 18 11.4792 17.9042 11.2875 17.7125C11.0958 17.5208 11 17.2833 11 17C11 16.7167 11.0958 16.4792 11.2875 16.2875C11.4792 16.0958 11.7167 16 12 16C12.2833 16 12.5208 16.0958 12.7125 16.2875C12.9042 16.4792 13 16.7167 13 17C13 17.2833 12.9042 17.5208 12.7125 17.7125C12.5208 17.9042 12.2833 18 12 18ZM8 18C7.71667 18 7.47917 17.9042 7.2875 17.7125C7.09583 17.5208 7 17.2833 7 17C7 16.7167 7.09583 16.4792 7.2875 16.2875C7.47917 16.0958 7.71667 16 8 16C8.28333 16 8.52083 16.0958 8.7125 16.2875C8.90417 16.4792 9 16.7167 9 17C9 17.2833 8.90417 17.5208 8.7125 17.7125C8.52083 17.9042 8.28333 18 8 18ZM16 18C15.7167 18 15.4792 17.9042 15.2875 17.7125C15.0958 17.5208 15 17.2833 15 17C15 16.7167 15.0958 16.4792 15.2875 16.2875C15.4792 16.0958 15.7167 16 16 16C16.2833 16 16.5208 16.0958 16.7125 16.2875C16.9042 16.4792 17 16.7167 17 17C17 17.2833 16.9042 17.5208 16.7125 17.7125C16.5208 17.9042 16.2833 18 16 18ZM5 22C4.45 22 3.97917 21.8042 3.5875 21.4125C3.19583 21.0208 3 20.55 3 20V6C3 5.45 3.19583 4.97917 3.5875 4.5875C3.97917 4.19583 4.45 4 5 4H6V2H8V4H16V2H18V4H19C19.55 4 20.0208 4.19583 20.4125 4.5875C20.8042 4.97917 21 5.45 21 6V20C21 20.55 20.8042 21.0208 20.4125 21.4125C20.0208 21.8042 19.55 22 19 22H5ZM5 20H19V10H5V20Z">
    </path>
  </symbol>
  <symbol fill="none" xmlns="http://www.w3.org/2000/svg" viewBox="0 0 24 24" id="pen">
    <path
      d="M5 19H6.425L16.2 9.225L14.775 7.8L5 17.575V19ZM3 21V16.75L16.2 3.575C16.4 3.39167 16.6208 3.25 16.8625 3.15C17.1042 3.05 17.3583 3 17.625 3C17.8917 3 18.15 3.05 18.4 3.15C18.65 3.25 18.8667 3.4 19.05 3.6L20.425 5C20.625 5.18333 20.7708 5.4 20.8625 5.65C20.9542 5.9 21 6.15 21 6.4C21 6.66667 20.9542 6.92083 20.8625 7.1625C20.7708 7.40417 20.625 7.625 20.425 7.825L7.25 21H3ZM15.475 8.525L14.775 7.8L16.2 9.225L15.475 8.525Z"
      fill="#373737"></path>
  </symbol>
  <symbol xmlns="http://www.w3.org/2000/svg" viewBox="0 0 24 24" id="info">
    <path
      d="M12 7C11.45 7 10.9792 6.80417 10.5875 6.4125C10.1958 6.02083 10 5.55 10 5C10 4.45 10.1958 3.97917 10.5875 3.5875C10.9792 3.19583 11.45 3 12 3C12.55 3 13.0208 3.19583 13.4125 3.5875C13.8042 3.97917 14 4.45 14 5C14 5.55 13.8042 6.02083 13.4125 6.4125C13.0208 6.80417 12.55 7 12 7ZM10.5 21V9H13.5V21H10.5Z">
    </path>
  </symbol>
  <symbol xmlns="http://www.w3.org/2000/svg" viewBox="0 0 24 24" id="membership">
    <path
      d="M5 21C4.71667 21 4.47917 20.9042 4.2875 20.7125C4.09583 20.5208 4 20.2833 4 20V19C3.16667 19 2.45833 18.7083 1.875 18.125C1.29167 17.5417 1 16.8333 1 16V11C1 10.45 1.19583 9.97917 1.5875 9.5875C1.97917 9.19583 2.45 9 3 9C3.55 9 4.02083 9.19583 4.4125 9.5875C4.80417 9.97917 5 10.45 5 11V15H19V11C19 10.45 19.1958 9.97917 19.5875 9.5875C19.9792 9.19583 20.45 9 21 9C21.55 9 22.0208 9.19583 22.4125 9.5875C22.8042 9.97917 23 10.45 23 11V16C23 16.8333 22.7083 17.5417 22.125 18.125C21.5417 18.7083 20.8333 19 20 19V20C20 20.2833 19.9042 20.5208 19.7125 20.7125C19.5208 20.9042 19.2833 21 19 21C18.7167 21 18.4792 20.9042 18.2875 20.7125C18.0958 20.5208 18 20.2833 18 20V19H6V20C6 20.2833 5.90417 20.5208 5.7125 20.7125C5.52083 20.9042 5.28333 21 5 21ZM7 13V11C7 10.0833 6.72083 9.2625 6.1625 8.5375C5.60417 7.8125 4.88333 7.3 4 7V6C4 5.16667 4.29167 4.45833 4.875 3.875C5.45833 3.29167 6.16667 3 7 3H17C17.8333 3 18.5417 3.29167 19.125 3.875C19.7083 4.45833 20 5.16667 20 6V7C19.1 7.23333 18.375 7.72083 17.825 8.4625C17.275 9.20417 17 10.05 17 11V13H7Z">
    </path>
  </symbol>
  <symbol xmlns="http://www.w3.org/2000/svg" viewBox="0 0 24 24" id="about">
    <path
      d="M12 22C10.6167 22 9.31667 21.7375 8.1 21.2125C6.88333 20.6875 5.825 19.975 4.925 19.075C4.025 18.175 3.3125 17.1167 2.7875 15.9C2.2625 14.6833 2 13.3833 2 12V2.5L8.025 7.025C8.54167 6.24167 9.12917 5.43333 9.7875 4.6C10.4458 3.76667 11.1833 2.9 12 2C12.75 2.83333 13.4667 3.67917 14.15 4.5375C14.8333 5.39583 15.4333 6.225 15.95 7.025L22 2.5V12C22 13.3833 21.7375 14.6833 21.2125 15.9C20.6875 17.1167 19.975 18.175 19.075 19.075C18.175 19.975 17.1167 20.6875 15.9 21.2125C14.6833 21.7375 13.3833 22 12 22Z">
    </path>
  </symbol>
  <symbol xmlns="http://www.w3.org/2000/svg" viewBox="0 0 24 24" id="teachers">
    <path
      d="M1 20V17.2C1 16.6333 1.14583 16.1125 1.4375 15.6375C1.72917 15.1625 2.11667 14.8 2.6 14.55C3.63333 14.0333 4.68333 13.6458 5.75 13.3875C6.81667 13.1292 7.9 13 9 13C10.1 13 11.1833 13.1292 12.25 13.3875C13.3167 13.6458 14.3667 14.0333 15.4 14.55C15.8833 14.8 16.2708 15.1625 16.5625 15.6375C16.8542 16.1125 17 16.6333 17 17.2V20H1ZM19 20V17C19 16.2667 18.7958 15.5625 18.3875 14.8875C17.9792 14.2125 17.4 13.6333 16.65 13.15C17.5 13.25 18.3 13.4208 19.05 13.6625C19.8 13.9042 20.5 14.2 21.15 14.55C21.75 14.8833 22.2083 15.2542 22.525 15.6625C22.8417 16.0708 23 16.5167 23 17V20H19ZM9 12C7.9 12 6.95833 11.6083 6.175 10.825C5.39167 10.0417 5 9.1 5 8C5 6.9 5.39167 5.95833 6.175 5.175C6.95833 4.39167 7.9 4 9 4C10.1 4 11.0417 4.39167 11.825 5.175C12.6083 5.95833 13 6.9 13 8C13 9.1 12.6083 10.0417 11.825 10.825C11.0417 11.6083 10.1 12 9 12ZM19 8C19 9.1 18.6083 10.0417 17.825 10.825C17.0417 11.6083 16.1 12 15 12C14.8167 12 14.5833 11.9792 14.3 11.9375C14.0167 11.8958 13.7833 11.85 13.6 11.8C14.05 11.2667 14.3958 10.675 14.6375 10.025C14.8792 9.375 15 8.7 15 8C15 7.3 14.8792 6.625 14.6375 5.975C14.3958 5.325 14.05 4.73333 13.6 4.2C13.8333 4.11667 14.0667 4.0625 14.3 4.0375C14.5333 4.0125 14.7667 4 15 4C16.1 4 17.0417 4.39167 17.825 5.175C18.6083 5.95833 19 6.9 19 8Z">
    </path>
  </symbol>
  <symbol xmlns="http://www.w3.org/2000/svg" viewBox="0 0 24 24" id="feedbacks">
    <path
      d="M7 18C6.71667 18 6.47917 17.9042 6.2875 17.7125C6.09583 17.5208 6 17.2833 6 17V15H19V6H21C21.2833 6 21.5208 6.09583 21.7125 6.2875C21.9042 6.47917 22 6.71667 22 7V19.575C22 20.025 21.7958 20.3375 21.3875 20.5125C20.9792 20.6875 20.6167 20.6167 20.3 20.3L18 18H7ZM6 13L3.7 15.3C3.38333 15.6167 3.02083 15.6875 2.6125 15.5125C2.20417 15.3375 2 15.025 2 14.575V3C2 2.71667 2.09583 2.47917 2.2875 2.2875C2.47917 2.09583 2.71667 2 3 2H16C16.2833 2 16.5208 2.09583 16.7125 2.2875C16.9042 2.47917 17 2.71667 17 3V12C17 12.2833 16.9042 12.5208 16.7125 12.7125C16.5208 12.9042 16.2833 13 16 13H6Z">
    </path>
  </symbol>
  <symbol fill="none" xmlns="http://www.w3.org/2000/svg" viewBox="0 0 24 24" id="circle_help">
    <path
      d="M11.95 18C12.3 18 12.5958 17.8792 12.8375 17.6375C13.0792 17.3958 13.2 17.1 13.2 16.75C13.2 16.4 13.0792 16.1042 12.8375 15.8625C12.5958 15.6208 12.3 15.5 11.95 15.5C11.6 15.5 11.3042 15.6208 11.0625 15.8625C10.8208 16.1042 10.7 16.4 10.7 16.75C10.7 17.1 10.8208 17.3958 11.0625 17.6375C11.3042 17.8792 11.6 18 11.95 18ZM11.05 14.15H12.9C12.9 13.6 12.9625 13.1667 13.0875 12.85C13.2125 12.5333 13.5667 12.1 14.15 11.55C14.5833 11.1167 14.925 10.7042 15.175 10.3125C15.425 9.92083 15.55 9.45 15.55 8.9C15.55 7.96667 15.2083 7.25 14.525 6.75C13.8417 6.25 13.0333 6 12.1 6C11.15 6 10.3792 6.25 9.7875 6.75C9.19583 7.25 8.78333 7.85 8.55 8.55L10.2 9.2C10.2833 8.9 10.4708 8.575 10.7625 8.225C11.0542 7.875 11.5 7.7 12.1 7.7C12.6333 7.7 13.0333 7.84583 13.3 8.1375C13.5667 8.42917 13.7 8.75 13.7 9.1C13.7 9.43333 13.6 9.74583 13.4 10.0375C13.2 10.3292 12.95 10.6 12.65 10.85C11.9167 11.5 11.4667 11.9917 11.3 12.325C11.1333 12.6583 11.05 13.2667 11.05 14.15ZM12 22C10.6167 22 9.31667 21.7375 8.1 21.2125C6.88333 20.6875 5.825 19.975 4.925 19.075C4.025 18.175 3.3125 17.1167 2.7875 15.9C2.2625 14.6833 2 13.3833 2 12C2 10.6167 2.2625 9.31667 2.7875 8.1C3.3125 6.88333 4.025 5.825 4.925 4.925C5.825 4.025 6.88333 3.3125 8.1 2.7875C9.31667 2.2625 10.6167 2 12 2C13.3833 2 14.6833 2.2625 15.9 2.7875C17.1167 3.3125 18.175 4.025 19.075 4.925C19.975 5.825 20.6875 6.88333 21.2125 8.1C21.7375 9.31667 22 10.6167 22 12C22 13.3833 21.7375 14.6833 21.2125 15.9C20.6875 17.1167 19.975 18.175 19.075 19.075C18.175 19.975 17.1167 20.6875 15.9 21.2125C14.6833 21.7375 13.3833 22 12 22ZM12 20C14.2333 20 16.125 19.225 17.675 17.675C19.225 16.125 20 14.2333 20 12C20 9.76667 19.225 7.875 17.675 6.325C16.125 4.775 14.2333 4 12 4C9.76667 4 7.875 4.775 6.325 6.325C4.775 7.875 4 9.76667 4 12C4 14.2333 4.775 16.125 6.325 17.675C7.875 19.225 9.76667 20 12 20Z"
      fill="#373737"></path>
  </symbol>
  <symbol xmlns="http://www.w3.org/2000/svg" viewBox="0 0 24 24" id="arrow">
    <path d="M22 8L12 18L2 8L3.775 6.225L12 14.45L20.225 6.225L22 8Z"></path>
  </symbol>
  <symbol fill="none" xmlns="http://www.w3.org/2000/svg" viewBox="0 0 24 24" id="check">
    <path
      d="M9.5501 17.9996L3.8501 12.2996L5.2751 10.8746L9.5501 15.1496L18.7251 5.97461L20.1501 7.39961L9.5501 17.9996Z"
      fill="#373737"></path>
  </symbol>
  <symbol xmlns="http://www.w3.org/2000/svg" viewBox="0 0 24 24" id="arrow_outward">
    <path d="M6.4 18L5 16.6L14.6 7H6V5H18V17H16V8.4L6.4 18Z"></path>
  </symbol>
  <symbol xmlns="http://www.w3.org/2000/svg" viewBox="0 0 24 24" id="arrow_backward">
    <path d="M7.825 11L20 11L20 13L7.825 13L13.425 18.6L12 20L4 12L12 4L13.425 5.4L7.825 11Z"></path>
  </symbol>
  <symbol fill="none" xmlns="http://www.w3.org/2000/svg" viewBox="0 0 24 24" id="info_i">
    <path
      d="M12 7C11.45 7 10.9792 6.80417 10.5875 6.4125C10.1958 6.02083 10 5.55 10 5C10 4.45 10.1958 3.97917 10.5875 3.5875C10.9792 3.19583 11.45 3 12 3C12.55 3 13.0208 3.19583 13.4125 3.5875C13.8042 3.97917 14 4.45 14 5C14 5.55 13.8042 6.02083 13.4125 6.4125C13.0208 6.80417 12.55 7 12 7ZM10.5 21V9H13.5V21H10.5Z"
      fill="#373737"></path>
  </symbol>
  <symbol fill="none" xmlns="http://www.w3.org/2000/svg" viewBox="0 0 24 24" id="arrow_drop_down">
    <path d="M12 15L7 10H17L12 15Z" fill="#373737"></path>
  </symbol>
  <symbol fill="none" xmlns="http://www.w3.org/2000/svg" viewBox="0 0 24 24" id="download">
    <path
      d="M12 16L7 11L8.4 9.55L11 12.15V4H13V12.15L15.6 9.55L17 11L12 16ZM6 20C5.45 20 4.97917 19.8042 4.5875 19.4125C4.19583 19.0208 4 18.55 4 18V15H6V18H18V15H20V18C20 18.55 19.8042 19.0208 19.4125 19.4125C19.0208 19.8042 18.55 20 18 20H6Z"
      fill="#373737"></path>
  </symbol>
  <symbol fill="none" xmlns="http://www.w3.org/2000/svg" viewBox="0 0 24 24" id="add">
    <path d="M11 13H5V11H11V5H13V11H19V13H13V19H11V13Z" fill="#373737"></path>
  </symbol>
  <symbol fill="none" xmlns="http://www.w3.org/2000/svg" viewBox="0 0 24 24" id="close">
    <path d="M6.4 19L5 17.6L10.6 12L5 6.4L6.4 5L12 10.6L17.6 5L19 6.4L13.4 12L19 17.6L17.6 19L12 13.4L6.4 19Z"
      fill="#373737"></path>
  </symbol>
  <symbol fill="none" xmlns="http://www.w3.org/2000/svg" viewBox="0 0 24 24" id="close_small">
    <path
      d="M8.4 17.0004L7 15.6004L10.6 12.0004L7 8.42539L8.4 7.02539L12 10.6254L15.575 7.02539L16.975 8.42539L13.375 12.0004L16.975 15.6004L15.575 17.0004L12 13.4004L8.4 17.0004Z"
      fill="#373737"></path>
  </symbol>
  <symbol xmlns="http://www.w3.org/2000/svg" viewBox="0 0 24 24" id="location">
    <path
      d="M12 13.2178C13.6569 13.2178 15 11.8746 15 10.2178C15 8.56092 13.6569 7.21777 12 7.21777C10.3431 7.21777 9 8.56092 9 10.2178C9 11.8746 10.3431 13.2178 12 13.2178ZM12 22.2178C9.31667 19.9344 7.3125 17.8136 5.9875 15.8553C4.6625 13.8969 4 12.0844 4 10.4178C4 5.92531 7.42264 2.21777 12 2.21777C16.5774 2.21777 20 5.92531 20 10.4178C20 12.0844 19.3375 13.8969 18.0125 15.8553C16.6875 17.8136 14.6833 19.9344 12 22.2178Z" />
  </symbol>
  <symbol xmlns="http://www.w3.org/2000/svg" viewBox="0 0 24 24" id="email">
    <path
      d="M4 20.2178C2.90844 20.2178 2 19.3093 2 18.2178V6.21777C2 5.12621 2.90844 4.21777 4 4.21777H20C21.0916 4.21777 22 5.12621 22 6.21777V18.2178C22 19.3093 21.0916 20.2178 20 20.2178H4ZM12 13.2178L20 8.21777V6.21777L12 11.2178L4 6.21777V8.21777L12 13.2178Z" />
  </symbol>
  <symbol xmlns="http://www.w3.org/2000/svg" viewBox="0 0 24 24" id="phone">
    <path
      d="M19.95 21.2178C17.8667 21.2178 15.8083 20.7636 13.775 19.8553C9.65882 18.0165 6.20129 14.559 4.3625 10.4428C3.45417 8.40944 3 6.35111 3 4.26777C3 3.67895 3.46118 3.21777 4.05 3.21777H8.1C8.55195 3.21777 8.98055 3.56637 9.05 4.01777L9.7 7.51777C9.76667 8.05111 9.66667 8.40111 9.4 8.66777L6.975 11.1178C8.32962 13.6238 10.6367 15.7916 13.1 17.2178L15.45 14.8678C15.7769 14.5409 16.299 14.4033 16.75 14.4678L20.2 15.1678C20.6261 15.2895 21 15.6537 21 16.1178V20.1678C21 20.7566 20.5388 21.2178 19.95 21.2178Z" />
  </symbol>
  <symbol xmlns="http://www.w3.org/2000/svg" viewBox="0 0 24 24" id="instagram">
    <path
      d="M20.9467 8.52295C20.9282 7.13214 20.4879 5.71182 19.4889 4.71278C18.4963 3.72022 17.0901 3.28232 15.7087 3.25395C13.2471 3.14392 10.7503 3.11224 8.28974 3.25395C6.90886 3.28253 5.50262 3.72034 4.51037 4.71259C3.51849 5.70447 3.07885 7.11118 3.05274 8.49195C2.94281 10.9539 2.90859 13.4512 3.05274 15.912C3.08046 17.2942 3.51755 18.6999 4.51117 19.6927C5.49942 20.6802 6.91573 21.1357 8.29074 21.181C10.7527 21.2909 13.25 21.3252 15.7107 21.181C17.0924 21.1537 18.4979 20.7155 19.4906 19.7228C20.4839 18.7295 20.9211 17.3243 20.9487 15.942C21.0588 13.4802 21.0907 10.9836 20.9467 8.52295ZM11.9937 16.82C9.43974 16.82 7.37074 14.751 7.37074 12.197C7.37074 9.64295 9.43974 7.57395 11.9937 7.57395C14.5117 7.57395 16.6167 9.67896 16.6167 12.197C16.6167 14.7149 14.5117 16.82 11.9937 16.82ZM16.8007 8.48095C16.2141 8.4815 15.7222 7.98963 15.7227 7.40295C15.7227 6.81311 16.2159 6.32545 16.8002 6.32545C17.3871 6.32545 17.8777 6.81606 17.8777 7.40295C17.8777 7.99895 17.3957 8.48095 16.8007 8.48095Z" />
    <path
      d="M11.9942 15.1994C13.6527 15.1994 14.9972 13.8549 14.9972 12.1964C14.9972 10.5378 13.6527 9.19336 11.9942 9.19336C10.3357 9.19336 8.99121 10.5378 8.99121 12.1964C8.99121 13.8549 10.3357 15.1994 11.9942 15.1994Z" />
  </symbol>
  <symbol xmlns="http://www.w3.org/2000/svg" viewBox="0 0 24 24" id="facebook">
    <path
      d="M12.001 2.21973C6.47895 2.21973 2.00195 6.69673 2.00195 12.2187C2.00195 17.2087 5.65795 21.3447 10.439 22.0977V15.1097H7.89895V12.2187H10.439V10.0157C10.439 7.50773 11.932 6.12473 14.215 6.12473C15.309 6.12473 16.455 6.31973 16.455 6.31973V8.77873H15.191C13.951 8.77873 13.563 9.55073 13.563 10.3417V12.2167H16.334L15.891 15.1077H13.563V22.0957C18.344 21.3467 22 17.2097 22 12.2187C22 6.69673 17.523 2.21973 12.001 2.21973Z " />
  </symbol>
  <symbol xmlns=" http://www.w3.org/2000/svg" viewBox="0 0 24 24" id="telegram">
    <path
      d="M20.6646 3.71682L2.93461 10.5538C1.72461 11.0398 1.73161 11.7148 2.71261 12.0158L7.26461 13.4358L17.7966 6.79082C18.2946 6.48782 18.7496 6.65082 18.3756 6.98282L9.84261 14.6838H9.84061L9.84261 14.6848L9.52861 19.3768C9.98861 19.3768 10.1916 19.1658 10.4496 18.9168L12.6606 16.7668L17.2596 20.1638C18.1076 20.6308 18.7166 20.3908 18.9276 19.3788L21.9466 5.15082C22.2556 3.91182 21.4736 3.35082 20.6646 3.71682Z" />
  </symbol>
  <symbol xmlns="http://www.w3.org/2000/svg" viewBox="0 0 24 24" id="whatsapp">
    <path fill-rule="evenodd" clip-rule="evenodd"
      d="M3.075 11.9184C3.077 6.96843 7.105 2.94143 12.053 2.94143C16.9405 2.92901 21.0441 7.03782 21.03 11.9244C21.028 16.8744 17 20.9014 12.053 20.9014H12.049C10.5502 20.9008 9.07539 20.525 7.759 19.8084L3 21.0574L4.273 16.4064C3.488 15.0444 3.075 13.5004 3.075 11.9184ZM14.6132 13.0676C14.4082 12.9926 14.2592 12.9556 14.1092 13.1796C13.9592 13.4036 13.5292 13.9086 13.3982 14.0586C13.2672 14.2086 13.1362 14.2266 12.9122 14.1146C11.6335 13.4753 10.5939 12.7078 9.86021 11.4476C9.72921 11.2226 9.84621 11.1016 9.95921 10.9896C10.1863 10.7648 10.3769 10.5072 10.5192 10.2226C10.5942 10.0726 10.5572 9.9416 10.5002 9.8296C10.463 9.7545 10.2522 9.2416 10.06 8.77421C9.96309 8.5384 9.87092 8.31417 9.80821 8.1636C9.64789 7.77829 9.48442 7.77979 9.35326 7.78099C9.33635 7.78114 9.31997 7.78129 9.30421 7.7806C9.2983 7.78036 9.29238 7.78012 9.28646 7.77988C8.9192 7.76477 8.54316 7.74931 8.27621 8.0526C8.26298 8.06706 8.24821 8.08282 8.23215 8.09995C7.99822 8.34955 7.49121 8.89052 7.49121 9.9236C7.49121 11.0184 8.28193 12.0769 8.40428 12.2407L8.40721 12.2446C8.41443 12.2543 8.4273 12.2727 8.44566 12.2991C8.71202 12.6813 10.1343 14.7223 12.2392 15.6316C13.1018 16.0034 13.9784 16.3339 14.9312 16.1936C15.3622 16.1296 16.2582 15.6516 16.4452 15.1276C16.6322 14.6036 16.6322 14.1546 16.5762 14.0606C15.8175 13.5504 15.0647 13.232 14.6132 13.0676Z" />
  </symbol>
  <symbol fill="none" xmlns="http://www.w3.org/2000/svg" viewBox="0 0 24 24" id="send">
    <path d="M3 20V4L22 12L3 20ZM5 17L16.85 12L5 7V10.5L11 12L5 13.5V17Z" fill="#373737"></path>
  </symbol>
  <symbol fill="none" xmlns="http://www.w3.org/2000/svg" viewBox="0 0 24 24" id="menu">
    <path d="M3 18V16H21V18H3ZM3 13V11H21V13H3ZM3 8V6H21V8H3Z" fill="#1C1B1F"></path>
  </symbol>
</svg>
